<svg width="222" height="638" viewBox="0 0 222 638" fill="none" xmlns="http://www.w3.org/2000/svg">
<g clip-path="url(#clip0_352_392)">
<g opacity="0.13">
<path d="M138.613 365.505C143.492 335.169 143.087 303.955 135.861 271.516C133.02 266.282 126.989 262.614 120.914 264.178L50.7118 282.249C45.3117 283.639 41.7051 289.041 40.9851 294.446C41.358 295.841 40.8694 296.713 41.2423 298.108L41.9881 300.899C52.2744 369.088 11.3938 434.789 -54.7584 451.817C-126.311 470.235 -199.721 425.006 -219.297 351.752C-239.06 277.8 -196.855 203.556 -125.977 185.311C-81.4259 173.843 -36.7972 186.962 -4.52461 215.937L-2.61521 217.683C-1.75375 218.206 -0.705871 219.428 0.155589 219.952C5.32435 223.095 11.0974 223.101 15.7518 218.92L29.5287 205.68L36.864 214.231L62.2769 190.539L54.9416 181.989L69.3935 168.575C74.0479 164.395 74.6972 156.025 71.5535 152.36C49.6184 129.672 23.2153 111.862 -5.25789 99.8043C-50.0281 80.7568 -101.266 75.3047 -151.217 88.1627C-274.746 119.96 -347.057 248.93 -312.939 376.601C-278.821 504.273 -151.325 581.811 -27.7956 550.013C61.3073 527.078 123.718 452.852 138.613 365.505Z" stroke="#383838" stroke-miterlimit="10"/>
<path d="M97.8544 305.752L100.906 317.172L64.5558 298.248L86.3124 301.768L87.0708 301.891L86.8731 301.151L84.2792 291.442L113.764 295.318L118.617 313.48L98.5279 305.166L97.595 304.78L97.8544 305.752Z" stroke="#383838"/>
</g>
</g>
<defs>
<clipPath id="clip0_352_392">
<rect width="222" height="638" fill="white" transform="matrix(-1 0 0 -1 222 638)"/>
</clipPath>
</defs>
</svg>
