<svg width="208" height="267" viewBox="0 0 208 267" fill="none" xmlns="http://www.w3.org/2000/svg">
<g opacity="0.15" clip-path="url(#clip0_616_3496)">
<path d="M-41.0091 508.866L-41.0099 508.858L-34.4389 507.671C-34.4003 507.738 -34.3464 507.797 -34.2766 507.854C-33.9537 508.117 -33.4742 508.072 -33.2138 507.754C-33.0833 507.599 -33.0217 507.395 -33.0394 507.207C-33.0571 507.018 -33.1453 506.852 -33.2951 506.715L-27.736 475.401C-27.4642 475.463 -27.1745 475.372 -26.9859 475.148C-26.8553 474.994 -26.7938 474.79 -26.8115 474.601C-26.8292 474.413 -26.9188 474.231 -27.0846 474.096C-27.1719 474.025 -27.273 473.979 -27.3725 473.948L-21.1586 453.828C-20.9943 453.86 -20.8156 453.875 -20.6318 453.858C-19.6809 453.768 -18.9846 452.942 -19.0723 452.007C-19.0796 451.929 -19.087 451.85 -19.1104 451.773L-5.09137 447.232C-5.04331 447.315 -4.98722 447.397 -4.90068 447.46C-4.57778 447.723 -4.09837 447.678 -3.83799 447.36C-3.70742 447.205 -3.64593 447.002 -3.66362 446.813C-3.6813 446.624 -3.77091 446.443 -3.93674 446.308C-3.98911 446.265 -4.04071 446.23 -4.09959 446.204L3.05626 422.46C3.30038 422.485 3.5494 422.39 3.71625 422.192C3.84682 422.037 3.90828 421.833 3.89059 421.645C3.87585 421.487 3.8132 421.335 3.69679 421.211L18.5096 401.671C18.6107 401.717 18.7335 401.737 18.8533 401.726C19.2289 401.691 19.5045 401.364 19.4699 400.994C19.4352 400.625 19.1298 400.376 18.7688 400.394L8.28446 359.599C8.98517 359.335 9.45062 358.626 9.3784 357.856C9.35408 357.597 9.2753 357.358 9.15079 357.148L29.9568 348.824C30.2823 349.372 30.9112 349.718 31.6064 349.652C32.5572 349.563 33.2536 348.737 33.1659 347.802C33.1121 347.228 32.7685 346.745 32.2923 346.481L40.1134 311.61C40.1134 311.61 40.1773 311.604 40.2173 311.6C40.6488 311.56 40.9599 311.182 40.9209 310.765C40.912 310.671 40.8879 310.586 40.8486 310.511L62.2276 295.404C62.4786 295.673 62.8479 295.829 63.2394 295.792C63.6309 295.755 63.9728 295.533 64.1693 295.221L69.1619 297.488C69.0786 297.717 69.0375 297.967 69.0626 298.234C69.1503 299.169 69.9881 299.851 70.939 299.762C71.3625 299.723 71.74 299.537 72.0121 299.257L83.7067 308.782C83.6307 308.915 83.5967 309.069 83.6114 309.226C83.6512 309.651 84.0345 309.956 84.458 309.916C84.5059 309.911 84.5618 309.906 84.6083 309.886L92.3496 325.044C92.1384 325.198 92.0174 325.455 92.0432 325.73C92.0668 325.982 92.216 326.198 92.421 326.321L81.3152 356.079C81.2498 356.069 81.1772 356.068 81.1133 356.074C80.6818 356.114 80.3699 356.485 80.4097 356.909C80.4495 357.333 80.8327 357.638 81.2562 357.598C81.6398 357.562 81.9336 357.257 81.9643 356.898L97.8974 355.403C97.9944 355.751 98.3398 355.996 98.7234 355.96C98.9151 355.942 99.0843 355.855 99.2098 355.732L111.805 364.118C111.752 364.234 111.732 364.362 111.744 364.496C111.784 364.92 112.167 365.225 112.591 365.185C112.766 365.169 112.921 365.099 113.04 364.992L142.68 387.425C142.564 387.571 142.509 387.758 142.528 387.955C142.529 387.971 142.531 387.986 142.532 388.002C142.596 388.424 143.001 388.703 143.43 388.639C143.772 388.583 144.028 388.313 144.079 387.992L149.58 388.982C149.566 389.086 149.568 389.197 149.579 389.315C149.667 390.25 150.505 390.932 151.456 390.843C151.839 390.807 152.179 390.648 152.448 390.417L183.032 418.967C182.757 419.302 182.612 419.736 182.655 420.192C182.743 421.127 183.58 421.809 184.531 421.72C185.059 421.67 185.508 421.39 185.793 420.991L201.889 430.087C201.813 430.308 201.779 430.549 201.803 430.8C201.89 431.735 202.728 432.417 203.679 432.328C204.63 432.239 205.326 431.413 205.239 430.478C205.181 429.865 204.795 429.354 204.272 429.11L209.125 420.697C209.28 420.802 209.478 420.846 209.676 420.812C210.09 420.749 210.369 420.382 210.332 419.982C210.33 419.966 210.329 419.95 210.327 419.934C210.308 419.817 210.266 419.71 210.201 419.621L224.453 409.479L234.998 401.42L235.048 401.264L234.926 401.165L234.723 401.152L225.017 396.245L222.418 391.567L225.539 388.484L225.563 388.315L224.185 386.082L225.15 384.858L235.202 384.082C235.363 384.344 235.667 384.49 235.993 384.444C236.407 384.381 236.687 384.014 236.649 383.614C236.648 383.598 236.646 383.582 236.645 383.566C236.6 383.261 236.377 383.029 236.095 382.952L236.469 376.885C236.526 376.888 236.591 376.89 236.646 376.877C237.051 376.815 237.339 376.447 237.302 376.046C237.3 376.031 237.299 376.015 237.296 375.991C237.263 375.804 237.167 375.639 237.035 375.524L241.851 369.548C242.015 369.668 242.222 369.72 242.436 369.684C242.849 369.621 243.129 369.254 243.092 368.853C243.09 368.838 243.089 368.822 243.087 368.806C243.025 368.4 242.644 368.119 242.229 368.165L241.552 360.945C241.771 360.79 241.9 360.532 241.874 360.249C241.855 360.052 241.767 359.886 241.626 359.757L242.55 356.032L242.531 356.002L242.541 355.938L240.692 351.863L240.508 351.793L235.801 353.859C235.675 353.546 235.357 353.338 234.998 353.372C234.71 353.399 234.469 353.58 234.355 353.821L231.572 353.55L231.501 353.557L226.127 355.995L220.509 352.218C220.563 352.102 220.583 351.974 220.57 351.832C220.53 351.408 220.155 351.102 219.723 351.143C219.292 351.183 218.98 351.561 219.019 351.977C219.043 352.229 219.184 352.438 219.38 352.554L217.06 358.248L208.579 360.637C208.489 360.281 208.135 360.029 207.751 360.065C207.623 360.077 207.514 360.119 207.415 360.176L201.021 351.557C201.199 351.398 201.306 351.166 201.283 350.914C201.243 350.49 200.859 350.177 200.435 350.217C200.012 350.257 199.693 350.636 199.733 351.06C199.736 351.091 199.739 351.123 199.741 351.154L185.396 357.628C185.136 357.177 184.679 356.855 184.139 356.779L184.922 344.84C185.345 344.792 185.649 344.423 185.61 344.007C185.599 343.897 185.566 343.797 185.517 343.706L199.843 332.043C199.979 332.117 200.136 332.158 200.304 332.142C200.736 332.102 201.047 331.724 201.008 331.307C200.991 331.127 200.911 330.96 200.787 330.845L205.36 317.203C205.541 317.241 205.727 317.256 205.919 317.238C206.87 317.148 207.566 316.322 207.479 315.387C207.398 314.531 206.685 313.884 205.827 313.854L205.281 301.152C205.66 301.069 205.926 300.719 205.889 300.326C205.886 300.303 205.884 300.279 205.881 300.248L227.526 291.924C227.833 292.538 228.499 292.935 229.234 292.866C229.594 292.832 229.919 292.691 230.174 292.484L255.36 317.887C255.36 317.887 255.331 317.922 255.316 317.931C254.975 318.336 254.836 318.832 254.881 319.311C254.926 319.791 255.155 320.253 255.565 320.587C256.377 321.248 257.583 321.135 258.258 320.334L258.272 320.317L268.295 327.137C268.156 327.379 268.101 327.646 268.126 327.913C268.158 328.259 268.326 328.592 268.614 328.827C268.946 329.097 269.374 329.191 269.769 329.107L287.14 382.397C286.787 382.502 286.452 382.707 286.198 383.009C285.857 383.413 285.718 383.91 285.763 384.389C285.808 384.868 286.037 385.33 286.447 385.664C287.259 386.325 288.466 386.212 289.148 385.411C289.489 385.007 289.628 384.51 289.583 384.031C289.538 383.551 289.309 383.089 288.899 382.755C288.62 382.528 288.293 382.392 287.958 382.344L287.037 350.608C287.761 350.508 288.289 349.864 288.221 349.141C288.196 348.874 288.092 348.622 287.929 348.431L305.895 331.14C306.165 331.36 306.523 331.477 306.898 331.442C307.649 331.372 308.208 330.709 308.139 329.97C308.069 329.232 307.397 328.685 306.646 328.755C306.391 328.779 306.158 328.872 305.961 329.01L281.015 301.872L380.626 383.228C380.463 383.544 380.399 383.899 380.431 384.237C380.476 384.716 380.705 385.178 381.115 385.512C381.926 386.173 383.133 386.06 383.816 385.259C384.156 384.854 384.295 384.358 384.25 383.879C384.205 383.399 383.977 382.937 383.566 382.603C383.113 382.234 382.544 382.105 382.013 382.202L360.508 287.925C361.102 287.727 361.5 287.158 361.44 286.522C361.371 285.783 360.699 285.236 359.948 285.307C359.764 285.324 359.584 285.38 359.43 285.458L290.805 185.209C291.142 184.932 291.336 184.51 291.293 184.046C291.224 183.308 290.56 182.759 289.8 182.831C289.041 182.902 288.491 183.564 288.56 184.302C288.606 184.789 288.909 185.189 289.323 185.388L265.969 247.42C265.912 247.41 265.854 247.399 265.789 247.39L264.272 187.389C264.909 187.297 265.371 186.731 265.311 186.087C265.251 185.442 264.708 184.986 264.072 184.998L257.58 138.811C258.306 138.553 258.787 137.842 258.713 137.056C258.659 136.475 258.315 135.992 257.84 135.735L264.554 115.1C264.669 115.121 264.782 115.126 264.902 115.115C265.573 115.052 266.066 114.467 266.004 113.807C265.952 113.249 265.516 112.815 264.977 112.738L266.738 64.0418L266.754 64.0403C267.425 63.9773 267.918 63.3921 267.856 62.7321C267.794 62.0721 267.201 61.5888 266.529 61.6518C266.394 61.6645 266.268 61.7001 266.152 61.7506L248.45 32.3486C248.828 32.0039 249.046 31.4921 248.996 30.9499C248.909 30.0228 248.07 29.3326 247.119 29.4218C246.168 29.511 245.472 30.3372 245.56 31.2722C245.616 31.8693 245.985 32.3658 246.484 32.6201L233.319 55.6357C233.16 55.5713 232.979 55.5328 232.795 55.5422L229.12 33.036C229.678 32.8806 230.055 32.3538 230.001 31.7724C229.939 31.1124 229.346 30.6291 228.674 30.692C228.003 30.755 227.553 31.2886 227.572 31.913L207.705 34.6085C207.523 33.7854 206.743 33.2086 205.864 33.291C204.913 33.3802 204.217 34.2064 204.305 35.1414C204.351 35.6364 204.609 36.064 204.99 36.3453L194.927 52.1267C194.733 52.034 194.52 51.9985 194.288 52.0202C193.617 52.0831 193.124 52.6684 193.186 53.3284C193.229 53.7841 193.521 54.1529 193.924 54.3212L186.681 78.43C186.575 78.4083 186.461 78.4031 186.341 78.4143C185.67 78.4773 185.177 79.0625 185.239 79.7225C185.301 80.3825 185.894 80.8658 186.565 80.8028C186.901 80.7714 187.192 80.6093 187.395 80.3683L198.931 87.8545L209.156 107.749L200.911 143.516C200.822 143.508 200.732 143.501 200.644 143.509C199.973 143.572 199.48 144.157 199.542 144.817C199.575 145.171 199.764 145.47 200.025 145.668L188.439 163.692C188.245 163.6 188.023 163.557 187.8 163.578C187.128 163.641 186.635 164.226 186.697 164.886C186.717 165.098 186.792 165.297 186.913 165.468L150.568 197.538C150.322 197.323 149.997 197.211 149.646 197.244C149.086 197.296 148.657 197.709 148.561 198.225L126.641 196.825C126.565 196.183 125.98 195.706 125.317 195.769C124.654 195.831 124.152 196.417 124.214 197.077C124.222 197.155 124.228 197.226 124.259 197.295L106.962 202.808C106.751 202.361 106.271 202.065 105.736 202.115C105.065 202.178 104.572 202.763 104.634 203.423C104.662 203.722 104.8 203.994 105.011 204.18L57.4555 267.04C57.2425 266.917 56.9954 266.861 56.7317 266.886C56.0605 266.949 55.5672 267.534 55.6291 268.194C55.6387 268.296 55.6643 268.397 55.6971 268.489L39.6635 276.302C39.3135 275.922 38.7851 275.702 38.2257 275.755C37.2748 275.844 36.5785 276.67 36.6662 277.605C36.7296 278.281 37.1837 278.825 37.792 279.037L26.8128 330.342C26.8128 330.342 26.7569 330.347 26.7329 330.35C26.3014 330.39 25.9902 330.768 26.0293 331.185C26.0455 331.357 26.1169 331.517 26.2326 331.633L8.33977 356.408C8.09701 356.312 7.82741 356.274 7.54775 356.3C7.02037 356.349 6.56308 356.63 6.28609 357.028L-32.069 345.749C-32.069 345.749 -32.0683 345.669 -32.072 345.63C-32.1067 345.261 -32.4383 344.991 -32.8139 345.026C-33.1894 345.061 -33.4651 345.388 -33.4304 345.757C-33.4282 345.781 -33.426 345.804 -33.4238 345.828L-56.5092 355.547C-56.8224 354.958 -57.4781 354.583 -58.1973 354.651C-59.1481 354.74 -59.8445 355.566 -59.7568 356.501C-59.7362 356.721 -59.6763 356.93 -59.5787 357.111L-78.4147 368.563C-78.731 368.371 -79.153 368.426 -79.3996 368.719C-79.5302 368.874 -79.5917 369.078 -79.574 369.266C-79.5681 369.329 -79.5535 369.399 -79.5316 369.46L-100.051 389.52C-100.392 389.235 -100.85 389.079 -101.33 389.124C-102.145 389.201 -102.779 389.831 -102.884 390.602L-155.107 388.303C-155.132 388.123 -155.22 387.957 -155.377 387.837C-155.7 387.574 -156.171 387.618 -156.44 387.936C-156.469 387.971 -156.497 388.013 -156.518 388.047L-167.212 384.548C-167.201 384.491 -167.207 384.436 -167.212 384.381C-167.229 384.193 -167.319 384.011 -167.485 383.876C-167.808 383.613 -168.287 383.658 -168.547 383.976C-168.642 384.087 -168.695 384.211 -168.714 384.348L-211.15 386.283C-211.189 386.128 -211.274 385.985 -211.405 385.879C-211.728 385.616 -212.208 385.661 -212.468 385.979C-212.599 386.133 -212.66 386.337 -212.642 386.526C-212.639 386.565 -212.634 386.612 -212.623 386.651L-229.128 394.508C-229.453 393.96 -230.082 393.615 -230.777 393.68C-231.728 393.769 -232.424 394.595 -232.337 395.53C-232.249 396.465 -231.411 397.148 -230.46 397.058C-229.957 397.011 -229.521 396.756 -229.242 396.381L-165.706 435.672C-165.857 435.956 -165.923 436.279 -165.892 436.617C-165.804 437.552 -164.966 438.234 -164.015 438.145C-163.4 438.088 -162.887 437.714 -162.627 437.215L-139.092 446.476C-139.074 446.665 -138.984 446.847 -138.819 446.974C-138.627 447.13 -138.389 447.179 -138.16 447.126L-127.224 463.863C-127.224 463.863 -127.268 463.906 -127.283 463.924C-127.413 464.079 -127.475 464.282 -127.457 464.471C-127.439 464.66 -127.35 464.841 -127.184 464.976C-126.861 465.239 -126.39 465.195 -126.121 464.877C-126.107 464.86 -126.1 464.843 -126.085 464.834L-95.5461 478.464C-95.5461 478.464 -95.5424 478.503 -95.5402 478.527C-95.5225 478.715 -95.4329 478.897 -95.2671 479.032C-95.1012 479.167 -94.9108 479.221 -94.7191 479.203L-89.3074 494.016C-89.3844 494.055 -89.4511 494.117 -89.5091 494.186C-89.6397 494.341 -89.7012 494.544 -89.6835 494.733C-89.6658 494.922 -89.5762 495.103 -89.4104 495.238C-89.0875 495.501 -88.616 495.457 -88.3477 495.139C-88.3187 495.104 -88.2904 495.062 -88.2621 495.02L-44.3666 508.649C-44.407 508.82 -44.4221 509.003 -44.4051 509.184C-44.3174 510.119 -43.4795 510.801 -42.5287 510.712C-41.5778 510.623 -40.8815 509.797 -40.9692 508.862L-41.0091 508.866ZM-28.1271 475.184L-42.1843 507.422C-42.4089 507.348 -42.6451 507.323 -42.8928 507.346C-43.2284 507.377 -43.5311 507.501 -43.7801 507.683L-69.9239 479.12C-69.6301 478.815 -69.4584 478.411 -69.4517 477.966L-28.3099 474.868C-28.2749 474.984 -28.2166 475.09 -28.1271 475.184ZM-21.4398 453.751L-27.6726 473.929C-27.8564 473.946 -28.0328 474.042 -28.1554 474.196C-28.2569 474.317 -28.309 474.448 -28.3277 474.593L-69.4615 477.69C-69.4827 477.549 -69.5185 477.426 -69.571 477.296L-22.2609 453.075C-22.0629 453.381 -21.7749 453.616 -21.4318 453.75L-21.4398 453.751ZM-22.5241 452.331C-22.5079 452.504 -22.4678 452.674 -22.3971 452.826L-24.6738 453.991L-69.7072 477.047C-70.018 476.569 -70.5633 476.255 -71.1678 476.257L-77.4677 401.264C-77.1343 401.209 -76.8337 401.062 -76.5957 400.85L-22.1465 451.114C-22.4134 451.449 -22.5589 451.874 -22.5161 452.33L-22.5241 452.331ZM-131.002 417.564C-130.13 417.411 -129.502 416.623 -129.586 415.735C-129.592 415.664 -129.599 415.594 -129.621 415.524L-79.363 400.221C-79.2588 400.473 -79.1016 400.688 -78.8994 400.868L-115.658 449.494L-126.429 463.741C-126.514 463.701 -126.597 463.677 -126.686 463.669L-131.01 417.565L-131.002 417.564ZM-146.434 436.005C-146.389 435.969 -146.344 435.933 -146.308 435.882C-146.178 435.727 -146.116 435.523 -146.134 435.335C-146.152 435.146 -146.241 434.964 -146.407 434.829L-134.679 420.303L-132.26 417.302C-132.122 417.392 -131.971 417.465 -131.813 417.513L-138.281 445.671C-138.468 445.649 -138.666 445.691 -138.824 445.809L-146.427 435.996L-146.434 436.005ZM-184.997 410.985C-184.872 410.862 -184.764 410.725 -184.673 410.574L-174.158 415.168C-174.175 415.249 -174.184 415.329 -174.176 415.407C-174.159 415.596 -174.069 415.778 -173.903 415.913C-173.72 416.062 -173.473 416.11 -173.26 416.066L-165.013 434.981C-165.067 435.01 -165.128 435.047 -165.182 435.076L-184.997 410.985ZM-171.044 400.934L-173.439 414.585C-173.648 414.589 -173.866 414.681 -174.011 414.853C-174.025 414.87 -174.04 414.887 -174.046 414.904L-184.561 410.31C-184.477 410.088 -184.444 409.839 -184.467 409.588C-184.511 409.124 -184.742 408.726 -185.074 408.448L-168.316 385.151C-168.316 385.151 -168.283 385.163 -168.266 385.17L-171.029 400.924L-171.044 400.934ZM-172.912 414.789L-156.19 389.134C-155.973 389.216 -155.724 389.201 -155.526 389.079L-135.495 411.431L-132.551 414.713C-132.816 414.984 -132.992 415.341 -133.028 415.725L-172.689 415.196C-172.719 415.041 -172.789 414.897 -172.913 414.781L-172.912 414.789ZM-99.6728 391.577L-79.4175 399.125C-79.4797 399.321 -79.4998 399.537 -79.4792 399.757C-79.4726 399.827 -79.4659 399.898 -79.444 399.96L-129.702 415.263C-129.755 415.133 -129.822 415.02 -129.897 414.908L-102.442 392.05C-102.095 392.398 -101.593 392.589 -101.058 392.539C-100.434 392.48 -99.914 392.099 -99.6568 391.575L-99.6728 391.577ZM-56.9423 357.632L-13.41 397.642C-13.6189 397.907 -13.7579 398.23 -13.7814 398.581L-76.044 399.427C-76.0985 398.845 -76.45 398.363 -76.9262 398.099L-58.6753 357.977C-58.4499 358.059 -58.1971 358.091 -57.9414 358.067C-57.5579 358.031 -57.2101 357.871 -56.9423 357.632ZM-76.0415 399.712L-13.7796 398.858C-13.7104 399.596 -13.1719 400.18 -12.4794 400.345L-20.6827 450.478C-20.7801 450.471 -20.8767 450.472 -20.9726 450.481C-21.3561 450.517 -21.704 450.677 -21.9717 450.916L-76.4209 400.651C-76.204 400.385 -76.073 400.064 -76.0494 399.713L-76.0415 399.712ZM-4.4041 446.137C-4.63077 446.127 -4.87183 446.221 -5.03142 446.41C-5.16196 446.565 -5.22345 446.769 -5.20577 446.958L-5.2043 446.973L-19.2313 451.515C-19.3253 451.286 -19.4731 451.086 -19.6578 450.921L2.74375 422.394L-4.41209 446.138L-4.4041 446.137ZM2.34847 421.789C2.36321 421.946 2.42516 422.091 2.53357 422.216L-19.876 450.743C-20.0389 450.639 -20.2155 450.561 -20.4052 450.515L-12.1938 400.382C-12.0965 400.388 -11.9999 400.387 -11.904 400.378C-11.6643 400.356 -11.4449 400.287 -11.2453 400.182L-4.61795 410.252L2.58159 421.181C2.58159 421.181 2.53733 421.225 2.52282 421.242C2.39224 421.397 2.33878 421.6 2.35646 421.788L2.34847 421.789ZM18.245 401.513L3.43215 421.053C3.23807 420.961 3.01208 420.958 2.81749 421.032L-11.0087 400.04C-10.6705 399.779 -10.4319 399.4 -10.3591 398.973L2.75402 399.986L18.084 401.172C18.0965 401.306 18.1562 401.427 18.2465 401.529L18.245 401.513ZM7.77969 359.718C7.84362 359.712 7.90752 359.706 7.97071 359.692L18.4535 400.471C18.2837 400.551 18.1531 400.706 18.1046 400.877L-10.3457 398.686C-10.3501 398.639 -10.3553 398.584 -10.3604 398.529C-10.4135 397.964 -10.749 397.48 -11.2173 397.215L6.81102 359.531C7.09893 359.679 7.42735 359.743 7.77097 359.711L7.77969 359.718ZM64.2358 294.985C64.2857 294.83 64.3109 294.669 64.2947 294.496C64.2328 293.836 63.6394 293.353 62.9682 293.416C62.9602 293.417 62.9522 293.418 62.9442 293.418L57.6287 271.121L57.2291 269.439L69.885 296.604C69.6091 296.756 69.3879 296.975 69.2276 297.244L64.2351 294.978L64.2358 294.985ZM71.053 296.423L75.9724 252.788C76.2681 252.76 76.5229 252.641 76.7152 252.457L125.252 268.814L173.98 285.24C173.938 285.394 173.921 285.554 173.928 285.72L72.4264 297.744C72.2903 297.068 71.7419 296.548 71.069 296.421L71.053 296.423ZM95.4924 224.048L116.051 239.898C115.962 240.073 115.909 240.276 115.921 240.489L77.0911 251.565C77.0911 251.565 77.0859 251.51 77.0837 251.487C77.0623 251.259 76.9778 251.045 76.841 250.876L94.0892 224.299C94.2833 224.391 94.5049 224.434 94.7367 224.412C95.0323 224.385 95.2944 224.257 95.4859 224.065L95.4924 224.048ZM124.749 198.049C124.961 198.164 125.208 198.22 125.464 198.196C125.744 198.17 125.991 198.052 126.184 197.875L168.296 272.853L174.323 283.575L139.396 235.275C139.607 235.034 139.715 234.722 139.684 234.384C139.622 233.724 139.028 233.241 138.357 233.304C137.99 233.339 137.669 233.535 137.47 233.815L95.8388 223.358C95.8546 223.269 95.8538 223.174 95.8457 223.088C95.8266 222.883 95.7522 222.692 95.6481 222.528L124.757 198.048L124.749 198.049ZM175.298 283.998L150.156 199.59C150.575 199.416 150.86 199.024 150.898 198.569L212.708 195.641C212.786 196.212 213.136 196.679 213.618 196.927L176.189 284.042C175.973 283.975 175.736 283.941 175.489 283.965C175.425 283.971 175.361 283.977 175.298 283.99L175.298 283.998ZM257.291 219.867C257.163 220.132 257.103 220.439 257.132 220.753C257.139 220.824 257.145 220.887 257.167 220.948L238.498 226.536L215.266 233.486C215.167 233.202 214.968 232.975 214.713 232.832L214.57 197.107C215.106 197.057 215.555 196.777 215.84 196.378L257.298 219.858L257.291 219.867ZM280.075 297.347L279.789 298.69C279.667 298.67 279.538 298.674 279.409 298.678L266.074 249.741C266.525 249.564 266.831 249.139 266.842 248.654L289.831 246.498C289.817 246.602 289.81 246.706 289.82 246.816C289.868 247.327 290.197 247.74 290.642 247.928L280.075 297.347ZM261.415 272.696L278.547 298.941C278.364 299.045 278.2 299.188 278.055 299.36C277.794 299.67 277.644 300.048 277.614 300.423L251.138 300.458C251.138 300.458 251.138 300.458 251.137 300.45C251.083 299.868 250.739 299.385 250.255 299.122L260.578 272.79C260.71 272.825 260.848 272.836 260.992 272.822C261.144 272.808 261.285 272.763 261.416 272.703L261.415 272.696ZM177.357 285.493C177.315 285.046 177.1 284.646 176.776 284.375L213.825 235.056C213.949 235.084 214.079 235.095 214.214 235.083C214.39 235.066 214.547 235.02 214.692 234.935L228.454 289.618C227.868 289.816 227.431 290.308 227.309 290.906L177.359 285.691C177.353 285.629 177.363 285.556 177.357 285.493ZM116.206 239.662L95.665 223.826C95.6998 223.767 95.7339 223.701 95.7599 223.635L137.325 234.075C137.287 234.181 137.256 234.287 137.243 234.407L118.181 239.841C117.951 239.45 117.501 239.199 117.013 239.245C116.686 239.276 116.394 239.43 116.198 239.662L116.206 239.662ZM118.348 240.325C118.34 240.246 118.325 240.168 118.302 240.091L137.253 234.684C137.352 235.309 137.926 235.754 138.573 235.693C138.797 235.672 139.007 235.589 139.173 235.471L160.587 265.087L174.526 284.364C174.474 284.408 174.423 284.461 174.37 284.505L118.11 241.14C118.274 240.91 118.368 240.624 118.34 240.326L118.348 240.325ZM230.225 290.023L264.943 249.633C265.038 249.695 265.139 249.741 265.238 249.771L265.012 250.879L260.977 270.43C260.904 270.421 260.832 270.428 260.76 270.435C260.089 270.498 259.595 271.083 259.657 271.743C259.671 271.884 259.708 272.023 259.768 272.145L230.389 290.221C230.342 290.154 230.28 290.089 230.226 290.03L230.225 290.023ZM262.086 271.507C262.04 271.02 261.705 270.624 261.256 270.483L265.518 249.832C265.591 249.841 265.663 249.835 265.735 249.828C265.759 249.826 265.775 249.824 265.799 249.822L278.911 298.78C278.911 298.78 278.841 298.803 278.81 298.821L261.659 272.546C261.959 272.304 262.133 271.923 262.094 271.506L262.086 271.507ZM277.616 300.701C277.616 300.701 277.618 300.724 277.619 300.732C277.649 301.054 277.768 301.376 277.963 301.651L258.107 317.867C258.054 317.817 258.009 317.766 257.948 317.724C257.434 317.304 256.771 317.2 256.175 317.375L250.252 302.094C250.75 301.825 251.098 301.317 251.14 300.735L277.616 300.701ZM264.409 248.748C264.435 249.023 264.554 249.265 264.733 249.454L230.015 289.844C229.687 289.613 229.281 289.501 228.85 289.541C228.81 289.545 228.77 289.549 228.73 289.552L214.942 234.761C215.105 234.611 215.224 234.417 215.284 234.198L260.45 247.28L264.419 248.43C264.405 248.534 264.398 248.638 264.409 248.748ZM213.557 234.954L176.56 284.213C176.56 284.213 176.491 284.172 176.449 284.152L213.879 197.037C214.012 197.08 214.143 197.108 214.281 197.118L214.369 219.367L214.421 232.725C214.288 232.69 214.142 232.68 213.998 232.693C213.327 232.756 212.834 233.342 212.896 234.001C212.936 234.426 213.194 234.774 213.557 234.954ZM115.963 240.762C116.119 241.311 116.654 241.688 117.253 241.632C117.517 241.607 117.749 241.506 117.936 241.346L174.214 284.726C174.157 284.803 174.116 284.886 174.076 284.977L76.9111 252.224C76.9814 252.115 77.0342 251.991 77.0697 251.853L115.971 240.762L115.963 240.762ZM84.2598 308.405C84.092 308.42 83.9446 308.482 83.8329 308.579L72.1382 299.055C72.3441 298.759 72.4643 298.407 72.4522 298.019L173.611 286.035L85.0421 308.839C84.9102 308.55 84.6027 308.365 84.2591 308.397L84.2598 308.405ZM85.1086 309.118L127.233 298.271L174.016 286.227C174.059 286.342 174.11 286.456 174.176 286.561L132.147 317.071C132.021 317.011 131.881 316.977 131.729 316.991C131.513 317.011 131.329 317.116 131.198 317.263L85.113 309.165C85.113 309.165 85.11 309.133 85.1078 309.11L85.1086 309.118ZM124.533 359.389C124.436 359.382 124.331 359.384 124.227 359.394C123.516 359.46 122.949 359.942 122.741 360.563L99.3748 355.257C99.3748 355.257 99.3682 355.186 99.3645 355.147C99.3498 354.99 99.2886 354.853 99.1969 354.735L131.247 318.304C131.309 318.362 131.386 318.41 131.463 318.451L124.524 359.382L124.533 359.389ZM92.6923 324.916C92.6444 324.921 92.5964 324.925 92.55 324.946L84.8087 309.788C84.9292 309.697 85.0148 309.578 85.0669 309.447L131.045 317.523L93.4943 325.388C93.3689 325.083 93.0519 324.883 92.7003 324.916L92.6923 324.916ZM93.544 325.661L105.758 323.104L131.016 317.811L131.017 317.827C131.025 317.913 131.049 317.998 131.081 318.074L98.9867 354.556C98.8675 354.488 98.7265 354.446 98.5819 354.451L93.0488 326.397C93.3524 326.281 93.5503 325.985 93.544 325.661ZM81.5203 356.202L92.6261 326.444C92.6755 326.456 92.7162 326.46 92.7641 326.455L98.2972 354.51C98.0249 354.615 97.8305 354.863 97.8019 355.159L81.8688 356.653C81.8105 356.46 81.6824 356.298 81.5123 356.203L81.5203 356.202ZM112.386 363.691C112.194 363.709 112.025 363.796 111.899 363.918L99.304 355.533L122.67 360.84C122.65 360.968 122.647 361.111 122.66 361.245C122.665 361.3 122.671 361.363 122.684 361.417L113.152 364.118C113.012 363.838 112.714 363.66 112.378 363.691L112.386 363.691ZM113.152 364.808C113.221 364.682 113.247 364.537 113.233 364.388L122.766 361.695C123.033 362.391 123.746 362.855 124.537 362.781C124.793 362.757 125.035 362.679 125.241 362.556L131.691 371.677L142.592 387.093L113.152 364.815L113.152 364.808ZM144.007 387.745C143.981 387.636 143.931 387.538 143.867 387.457L182.164 359.873L152.375 387.919C152.032 387.618 151.565 387.456 151.07 387.502C150.335 387.571 149.746 388.086 149.566 388.745L144.007 387.745ZM206.994 361.103C207.031 361.242 207.115 361.361 207.221 361.454L184.036 388.073L179.153 393.682C179.11 393.655 179.06 393.636 179.002 393.617L183.712 360.219C183.794 360.227 183.882 360.219 183.97 360.211C184.753 360.137 185.36 359.565 185.501 358.838L206.994 361.103ZM229.924 377.911L223.561 384.326C223.479 384.31 223.39 384.31 223.295 384.327C222.882 384.39 222.602 384.757 222.639 385.157C222.641 385.173 222.642 385.189 222.644 385.205C222.649 385.26 222.671 385.321 222.692 385.374L211.165 402.054C211.099 402.028 211.032 402.011 210.968 402.009L207.938 361.625C208.032 361.6 208.117 361.56 208.201 361.505L229.68 375.659C229.444 375.983 229.313 376.383 229.353 376.816C229.394 377.248 229.609 377.648 229.916 377.92L229.924 377.911ZM224.094 384.688C224.028 384.583 223.948 384.504 223.846 384.442L229.788 378.447L224.927 384.626L224.086 384.689L224.094 384.688ZM223.605 385.828L223.767 386.098L221.586 388.878C221.487 388.856 221.389 388.849 221.286 388.867C220.881 388.929 220.593 389.296 220.631 389.697C220.632 389.713 220.634 389.729 220.636 389.752C220.642 389.823 220.665 389.892 220.695 389.953L213.669 398.926L222.861 385.628C223.03 385.802 223.28 385.89 223.542 385.849C223.566 385.847 223.582 385.846 223.606 385.843L223.605 385.828ZM221.997 391.551L212.369 401.053L220.896 390.211C221.027 390.318 221.187 390.382 221.357 390.398L221.998 391.558L221.997 391.551ZM219.707 400.73L213.005 401.905L224.356 396.759L222.39 399.17C222.072 398.962 221.682 398.848 221.267 398.887C220.316 398.976 219.62 399.803 219.707 400.73ZM184.605 418.384C184.458 418.358 184.312 418.356 184.153 418.371C184.129 418.373 184.113 418.375 184.097 418.376L179.183 395.637L183.854 406.082L186.11 411.133C185.858 411.284 185.706 411.559 185.734 411.858C185.736 411.874 185.737 411.889 185.739 411.905C185.778 412.155 185.934 412.354 186.146 412.461L184.605 418.376L184.605 418.384ZM172.487 384.4C172.487 384.4 172.484 384.369 172.481 384.345C172.446 384.134 172.324 383.956 172.16 383.836L183.218 360.107C183.285 360.132 183.359 360.149 183.433 360.166L178.723 393.564C178.723 393.564 178.667 393.57 178.635 393.573C178.563 393.579 178.492 393.602 178.431 393.631L172.269 384.999C172.423 384.842 172.507 384.62 172.486 384.392L172.487 384.4ZM207.46 361.598C207.527 361.623 207.593 361.641 207.666 361.65L210.696 402.035C210.483 402.086 210.311 402.229 210.215 402.405L179.543 394.407C179.54 394.367 179.543 394.32 179.539 394.272C179.537 394.257 179.536 394.241 179.534 394.225C179.513 394.085 179.453 393.963 179.371 393.86L207.469 361.605L207.46 361.598ZM177.981 394.419C177.981 394.419 177.984 394.45 177.985 394.466C178.046 394.856 178.393 395.125 178.779 395.112L183.708 417.929L172.183 385.372L178.205 393.803C178.05 393.96 177.966 394.182 177.988 394.41L177.981 394.419ZM187.294 411.815C187.294 411.815 187.288 411.752 187.284 411.712C187.283 411.697 187.282 411.681 187.28 411.665C187.208 411.244 186.811 410.964 186.382 411.028L186.366 411.03L181.52 400.182L179.194 394.978C179.194 394.978 179.232 394.951 179.247 394.942L208.556 419.696L187.294 411.815ZM179.428 394.727C179.428 394.727 179.448 394.685 179.463 394.668L210.118 402.659C210.107 402.716 210.105 402.78 210.111 402.842C210.112 402.858 210.114 402.874 210.115 402.89C210.159 403.179 210.365 403.405 210.623 403.492L209.132 419.397C209.032 419.446 208.942 419.518 208.878 419.603L179.428 394.727ZM209.482 419.166L210.942 403.541C210.942 403.541 210.982 403.537 211.006 403.535C211.411 403.473 211.699 403.106 211.662 402.705L219.761 401.057C219.868 401.42 220.091 401.732 220.393 401.942L209.482 419.166ZM182.958 359.996L171.891 383.727C171.793 383.704 171.687 383.698 171.576 383.717C171.179 383.778 170.897 384.121 170.917 384.508L152.864 388.666C152.796 388.458 152.69 388.278 152.562 388.116L182.648 359.788C182.744 359.866 182.84 359.936 182.95 359.997L182.958 359.996ZM152.569 390.247C152.844 389.912 152.989 389.486 152.946 389.023C152.943 388.991 152.94 388.96 152.938 388.936L170.991 384.778C171.125 385.091 171.466 385.288 171.831 385.23L183.617 418.508C183.455 418.579 183.303 418.68 183.169 418.796L152.585 390.246L152.569 390.247ZM201.932 429.861L185.862 420.779C185.99 420.513 186.051 420.214 186.021 419.9C185.957 419.216 185.486 418.666 184.87 418.454L186.412 412.555C186.486 412.564 186.558 412.565 186.63 412.551C186.757 412.539 186.865 412.481 186.964 412.416L202.06 429.674C202.017 429.734 201.974 429.793 201.94 429.86L201.932 429.861ZM208.704 420.158C208.704 420.158 208.707 420.189 208.708 420.205C208.728 420.322 208.77 420.429 208.843 420.525L203.934 429.031C203.735 428.97 203.515 428.951 203.292 428.972C202.876 429.011 202.514 429.188 202.24 429.451L187.153 412.2C187.153 412.2 187.201 412.117 187.222 412.075L191.865 413.795L208.701 420.039C208.701 420.039 208.708 420.11 208.711 420.142L208.704 420.158ZM209.927 419.449C209.927 419.449 209.876 419.414 209.85 419.401L220.64 402.085C220.919 402.225 221.239 402.29 221.575 402.259C221.655 402.251 221.735 402.244 221.805 402.221L224.133 409.335L209.927 419.449ZM224.367 409.162L224.097 408.347L222.072 402.141C222.631 401.914 223.034 401.4 223.116 400.814L228.74 401.135L234.445 401.456L224.359 409.163L224.367 409.162ZM233.949 401.146L223.138 400.535C223.138 400.535 223.131 400.456 223.127 400.417C223.087 399.993 222.891 399.615 222.6 399.349L223.185 398.628L224.87 396.568L233.949 401.154L233.949 401.146ZM224.637 396.32L211.895 402.096L211.657 402.135L222.134 391.799L224.645 396.311L224.637 396.32ZM225.177 388.407L222.196 391.35L221.643 390.355C221.98 390.244 222.207 389.914 222.173 389.553C222.171 389.537 222.17 389.521 222.168 389.505C222.132 389.295 222.01 389.108 221.847 388.997L223.92 386.353L225.185 388.406L225.177 388.407ZM223.939 385.868L223.844 385.718C224.072 385.562 224.208 385.296 224.181 385.013C224.18 384.997 224.178 384.981 224.177 384.966L224.68 384.918L223.939 385.868ZM235.005 383.792C235.005 383.792 235.008 383.823 235.01 383.847L225.295 384.599L230.337 378.19C230.606 378.315 230.909 378.366 231.221 378.337C231.533 378.307 231.828 378.192 232.07 378.019L235.2 383.203C235.061 383.358 234.976 383.564 234.996 383.784L235.005 383.792ZM236.103 376.848L235.726 382.963C235.726 382.963 235.686 382.967 235.662 382.969C235.574 382.977 235.504 383.008 235.427 383.046L232.288 377.848C232.605 377.533 232.79 377.104 232.786 376.636L235.679 376.365C235.74 376.581 235.901 376.756 236.095 376.849L236.103 376.848ZM236.704 375.429C236.587 375.384 236.449 375.373 236.321 375.393C235.956 375.451 235.693 375.745 235.661 376.089L232.769 376.361C232.738 376.205 232.692 376.059 232.623 375.922L241.317 369.701L236.704 375.429ZM241.862 368.295C241.586 368.44 241.412 368.733 241.441 369.048C241.443 369.063 241.444 369.079 241.446 369.095C241.45 369.142 241.463 369.188 241.483 369.234L232.425 375.616C232.379 375.557 232.325 375.499 232.271 375.44L240.941 361.137C240.981 361.133 241.03 361.136 241.07 361.133C241.11 361.129 241.15 361.125 241.181 361.114L241.854 368.288L241.862 368.295ZM240.223 360.443C240.249 360.718 240.424 360.948 240.66 361.06L239.062 363.699L232.053 375.262C231.734 375.039 231.328 374.926 230.905 374.966C230.833 374.973 230.761 374.979 230.691 375.002L221.637 357.883C221.757 357.792 221.843 357.673 221.894 357.534L240.221 360.333C240.221 360.333 240.22 360.404 240.223 360.443ZM240.292 360.056L221.949 357.259L234.303 354.563C234.449 354.826 234.739 354.997 235.067 354.967C235.418 354.934 235.692 354.678 235.759 354.355L236.297 354.502L242.167 356.155L241.295 359.661C241.186 359.616 241.063 359.604 240.936 359.616C240.648 359.643 240.407 359.824 240.293 360.072L240.292 360.056ZM240.405 352.151L242.072 355.831L235.953 354.107L240.405 352.151ZM231.499 353.882L234.208 354.144C234.208 354.144 234.207 354.223 234.21 354.254C234.211 354.262 234.211 354.27 234.212 354.278L227.285 355.792L231.507 353.882L231.499 353.882ZM220.262 352.503L225.673 356.141L221.882 356.972C221.757 356.674 221.44 356.474 221.097 356.507L220.043 352.658C220.127 352.619 220.195 352.565 220.262 352.503ZM219.557 352.72C219.631 352.737 219.703 352.738 219.775 352.731L220.829 356.579C220.544 356.717 220.354 357.012 220.385 357.342L217.328 358.184L219.557 352.72ZM220.46 357.621C220.599 357.901 220.905 358.078 221.233 358.047C221.289 358.042 221.337 358.038 221.391 358.017L230.417 375.091C230.207 375.174 230.017 375.303 229.854 375.453L208.384 361.305C208.447 361.212 208.485 361.098 208.506 360.977L220.459 357.613L220.46 357.621ZM199.755 351.47C199.906 351.701 200.185 351.842 200.48 351.814C200.552 351.807 200.624 351.793 200.685 351.763L207.107 360.418C207.021 360.53 206.962 360.67 206.952 360.821L185.524 358.559C185.518 358.496 185.527 358.424 185.52 358.353C185.506 358.204 185.477 358.064 185.425 357.934L199.754 351.462L199.755 351.47ZM184.556 344.89L183.773 356.829C183.733 356.833 183.685 356.837 183.645 356.841C182.695 356.93 181.998 357.756 182.086 358.691C182.111 358.958 182.198 359.204 182.332 359.421L163.259 373.162L144.367 386.768L184.33 344.8C184.399 344.849 184.483 344.881 184.565 344.897L184.556 344.89ZM184.117 344.598L143.546 387.209C143.412 387.159 143.273 387.132 143.122 387.162C143.082 387.166 143.043 387.177 143.004 387.189L125.476 362.392C125.902 362.042 126.15 361.504 126.096 360.923C126.09 360.868 126.085 360.805 126.071 360.75L184.05 344.478C184.069 344.516 184.098 344.56 184.125 344.598L184.117 344.598ZM183.969 344.216L125.99 360.489C125.789 359.969 125.34 359.575 124.796 359.443L131.737 318.536C131.777 318.532 131.817 318.536 131.857 318.532C132.161 318.504 132.408 318.306 132.513 318.051L183.997 343.92C183.966 344.01 183.959 344.114 183.969 344.216ZM199.366 331.509C199.381 331.666 199.443 331.811 199.534 331.921L185.244 343.549C185.087 343.421 184.887 343.353 184.672 343.373C184.456 343.393 184.249 343.508 184.127 343.67L132.761 317.853L199.375 331.342C199.372 331.397 199.368 331.445 199.373 331.5L199.366 331.509ZM205.009 317.164L200.462 330.732C200.344 330.68 200.213 330.661 200.07 330.674C199.798 330.7 199.571 330.863 199.448 331.089L132.99 317.634L203.961 315.788C204.029 316.424 204.448 316.94 205.002 317.173L205.009 317.164ZM203.959 315.503L132.449 317.359C132.421 317.322 132.393 317.285 132.366 317.248L172.13 288.377L174.326 286.784C174.678 287.179 175.215 287.406 175.782 287.353C176.142 287.319 176.467 287.178 176.729 286.963L204.364 314.49C204.124 314.767 203.971 315.122 203.95 315.496L203.959 315.503ZM205.694 300.051C205.542 299.812 205.262 299.664 204.959 299.692C204.527 299.733 204.216 300.111 204.255 300.527C204.289 300.888 204.573 301.171 204.924 301.217L205.471 313.919C205.128 313.959 204.827 314.098 204.58 314.304L176.945 286.776C177.142 286.552 177.27 286.286 177.331 285.987L227.281 291.202C227.279 291.266 227.277 291.337 227.284 291.408C227.294 291.518 227.312 291.627 227.347 291.735L205.702 300.058L205.694 300.051ZM230.711 291.079C230.69 290.859 230.622 290.651 230.524 290.462L259.903 272.386C260.012 272.518 260.143 272.625 260.287 272.698L249.971 299.021C249.747 298.947 249.494 298.916 249.238 298.94C248.671 298.993 248.201 299.306 247.928 299.752L230.604 291.834C230.688 291.604 230.728 291.347 230.704 291.087L230.711 291.079ZM230.291 292.355C230.363 292.269 230.427 292.175 230.491 292.082L240.689 296.737L247.814 299.993C247.716 300.24 247.668 300.506 247.695 300.788C247.782 301.723 248.62 302.406 249.571 302.317C249.715 302.303 249.857 302.274 249.982 302.23L255.905 317.503C255.758 317.573 255.613 317.658 255.486 317.765L230.299 292.362L230.291 292.355ZM258.361 320.15C258.57 319.798 258.654 319.401 258.618 319.016C258.588 318.694 258.47 318.38 258.274 318.105L278.236 301.982C278.236 301.982 278.271 302.011 278.288 302.025C278.428 302.138 278.574 302.228 278.725 302.293L277.092 306.71L269.753 326.524C269.266 326.404 268.724 326.557 268.374 326.955L258.352 320.135L258.361 320.15ZM285.422 349.459C285.484 350.127 286.031 350.63 286.689 350.68L287.607 382.385C287.518 382.386 287.43 382.394 287.351 382.409L269.977 329.087C270.039 329.058 270.108 329.027 270.161 328.991L285.828 348.375C285.539 348.648 285.382 349.043 285.422 349.467L285.422 349.459ZM305.339 330.288C305.365 330.563 305.469 330.807 305.632 331.006L287.666 348.297C287.396 348.077 287.038 347.96 286.663 347.995C286.439 348.016 286.228 348.091 286.053 348.203L282.78 344.151L270.387 328.819C270.387 328.819 270.453 328.749 270.482 328.715C270.642 328.525 270.742 328.302 270.777 328.077L305.341 330.217C305.341 330.217 305.345 330.264 305.347 330.288L305.339 330.288ZM305.686 329.257C305.518 329.447 305.395 329.681 305.355 329.938L270.791 327.798C270.791 327.798 270.787 327.751 270.784 327.727C270.752 327.382 270.584 327.049 270.296 326.814C270.208 326.743 270.115 326.688 270.022 326.642L278.993 302.403C279.572 302.562 280.206 302.447 280.687 302.077L305.687 329.273L305.686 329.257ZM380.808 382.925C380.808 382.925 380.743 383.011 380.715 383.053L281.077 301.676C281.12 301.617 281.163 301.557 281.197 301.49L331.151 323.936L342.663 329.11C342.559 329.382 342.521 329.663 342.548 329.945C342.593 330.425 342.821 330.887 343.232 331.221C343.869 331.74 344.735 331.785 345.408 331.397L380.94 382.794C380.896 382.838 380.852 382.882 380.816 382.932L380.808 382.925ZM360.134 288.063C360.134 288.063 360.158 288.061 360.174 288.059L381.68 382.344C381.493 382.409 381.324 382.497 381.157 382.615L345.644 331.24C345.749 331.159 345.837 331.071 345.924 330.968C346.265 330.564 346.404 330.067 346.359 329.588C346.314 329.109 346.086 328.647 345.675 328.312C345.536 328.199 345.382 328.11 345.222 328.038L359.68 288.034C359.82 288.069 359.974 288.078 360.126 288.064L360.134 288.063ZM359.421 287.94L344.964 327.943C344.261 327.756 343.475 327.972 342.983 328.565C342.903 328.66 342.839 328.753 342.777 328.862L340.311 327.754L281.318 301.241C281.422 300.97 281.46 300.689 281.434 300.406L281.433 300.398L320.247 293.714L358.697 287.096C358.805 287.474 359.076 287.782 359.43 287.947L359.421 287.94ZM358.639 286.816L281.375 300.126C281.284 299.754 281.065 299.402 280.742 299.139C280.533 298.969 280.296 298.848 280.047 298.777L290.895 248.047C291.027 248.074 291.156 248.078 291.3 248.064C291.835 248.014 292.27 247.664 292.452 247.203L349.711 280.837L358.762 286.155C358.668 286.354 358.616 286.581 358.639 286.816ZM359.129 285.685C359.047 285.756 358.973 285.826 358.908 285.911L315.879 260.636L292.522 246.919C292.537 246.815 292.543 246.703 292.531 246.586C292.468 245.91 291.912 245.399 291.248 245.366L291.078 237.195L290.018 185.584C290.186 185.569 290.35 185.514 290.496 185.437L359.121 285.685L359.129 285.685ZM289.516 185.552C289.59 185.569 289.664 185.586 289.745 185.586L290.47 220.829L290.975 245.376C290.474 245.447 290.062 245.787 289.895 246.23L266.81 248.396C266.735 248.03 266.49 247.736 266.169 247.576L289.523 185.544L289.516 185.552ZM264.493 248.185L215.316 233.941C215.312 233.894 215.316 233.846 215.311 233.799L215.31 233.791L257.234 221.243C257.508 221.923 258.22 222.379 258.995 222.307C259.027 222.304 259.067 222.3 259.099 222.297L265.198 247.54C264.879 247.657 264.627 247.895 264.494 248.193L264.493 248.185ZM265.437 247.335L259.374 222.224C260.125 221.979 260.629 221.258 260.554 220.456C260.484 219.71 259.929 219.12 259.229 218.964L263.933 187.896L265.438 247.343L265.437 247.335ZM263.713 187.441L258.952 218.926C258.862 218.919 258.774 218.919 258.678 218.928C258.15 218.978 257.701 219.258 257.416 219.657L215.958 196.176C216.086 195.911 216.146 195.604 216.117 195.29C216.117 195.29 216.116 195.282 216.115 195.274L255.693 187.964L262.864 186.641C262.99 187.033 263.308 187.336 263.713 187.441ZM257.081 138.993C257.129 138.988 257.185 138.983 257.233 138.979L263.722 185.126C263.163 185.273 262.768 185.786 262.814 186.368L216.066 195.001C215.97 194.669 215.781 194.378 215.527 194.156L256.172 138.832C256.442 138.966 256.754 139.024 257.081 138.993ZM263.495 114.122C263.537 114.57 263.82 114.931 264.207 115.101L257.506 135.703C257.273 135.622 257.028 135.59 256.764 135.614C256.445 135.644 256.157 135.758 255.916 135.932L225.402 107.097C225.488 106.986 225.55 106.869 225.594 106.738L263.5 113.923C263.498 113.987 263.497 114.058 263.503 114.129L263.495 114.122ZM266.374 64.1155L264.613 112.812C264.613 112.812 264.605 112.813 264.597 112.814C264.094 112.861 263.69 113.2 263.546 113.641L225.64 106.457C225.642 106.393 225.643 106.322 225.637 106.251C225.613 105.999 225.512 105.779 225.365 105.595L260.109 69.7758L265.828 63.8814C265.984 64.0015 266.177 64.0785 266.381 64.1069L266.374 64.1155ZM209.316 107.647L204.191 90.7377C204.33 90.677 204.452 90.5943 204.555 90.4974L223.402 105.715C223.282 105.901 223.214 106.114 223.21 106.336L209.323 107.638L209.316 107.647ZM204.616 88.8272L232.072 57.8134C232.176 57.883 232.302 57.9424 232.426 57.9783L224.487 105.17C224.431 105.175 224.375 105.172 224.319 105.178C224.031 105.205 223.776 105.324 223.584 105.508L204.737 90.2901C204.878 90.0708 204.95 89.8104 204.924 89.5276C204.897 89.2447 204.787 89.0173 204.617 88.8351L204.616 88.8272ZM210.857 51.6314C210.922 51.6332 210.986 51.6351 211.042 51.6298C211.506 51.5864 211.882 51.2975 212.047 50.9095L216.539 52.224L231.55 56.6259C231.528 56.7311 231.529 56.8339 231.54 56.9439C231.565 57.2111 231.676 57.4543 231.846 57.6364L204.39 88.6503C204.287 88.5807 204.177 88.5276 204.053 88.4917L210.841 51.6329L210.857 51.6314ZM265.346 63.0389C265.369 63.2903 265.471 63.5107 265.617 63.6951L225.155 105.408C225.034 105.325 224.899 105.258 224.758 105.216L232.697 58.0243C232.753 58.0191 232.809 58.0217 232.865 58.0164C233.369 57.9692 233.779 57.6216 233.915 57.173L244.238 59.0344L265.327 62.8425C265.325 62.9061 265.323 62.9697 265.329 63.0325L265.346 63.0389ZM246.662 32.8015C246.878 32.8685 247.106 32.8946 247.346 32.8722C247.642 32.8444 247.907 32.7482 248.135 32.6L265.818 61.9721C265.615 62.1259 265.465 62.3302 265.391 62.5749L233.978 56.9054C233.98 56.8418 233.983 56.7782 233.977 56.7154C233.943 56.3539 233.753 56.0547 233.477 55.8586L246.655 32.8101L246.662 32.8015ZM228.761 33.1647L232.436 55.671C232.074 55.7683 231.792 56.0246 231.645 56.3475L212.134 50.6318C212.156 50.5267 212.154 50.4238 212.144 50.3138C212.121 50.0624 212.019 49.8342 211.865 49.6583L225.512 35.4748L227.965 32.9303C228.182 33.0922 228.456 33.1775 228.753 33.1655L228.761 33.1647ZM207.665 34.961L227.532 32.2655C227.581 32.4432 227.661 32.6022 227.778 32.7339L211.677 49.4619C211.444 49.2936 211.145 49.2027 210.834 49.232C210.794 49.2357 210.754 49.2395 210.714 49.2432L206.611 36.6134C207.271 36.3454 207.717 35.6853 207.673 34.9524L207.665 34.961ZM195.085 52.3497L205.148 36.5683C205.436 36.7157 205.756 36.7807 206.1 36.7485C206.18 36.741 206.252 36.7343 206.33 36.7111L210.433 49.3409C209.984 49.5415 209.688 49.9973 209.719 50.5016L195.488 52.946C195.417 52.707 195.268 52.499 195.077 52.3504L195.085 52.3497ZM186.873 78.5785L194.115 54.4697C194.221 54.4836 194.327 54.4895 194.43 54.4798C195.086 54.4184 195.573 53.8574 195.537 53.2188L209.769 50.7743C209.827 50.9592 209.924 51.1324 210.057 51.2626L187.051 78.6728C186.991 78.6387 186.932 78.6047 186.873 78.5785ZM187.585 79.5579C187.559 79.2829 187.44 79.0405 187.261 78.8512L210.275 51.4403C210.369 51.5027 210.471 51.5487 210.586 51.5775L203.798 88.4364C203.733 88.4345 203.668 88.4326 203.613 88.4379C203.261 88.4709 202.955 88.6501 202.754 88.9147L187.503 80.1442C187.583 79.9624 187.613 79.7693 187.594 79.565L187.585 79.5579ZM202.13 88.8781L199.021 87.6955L190.841 82.3834L202.13 88.8781ZM199.25 88.0782L200.571 88.5805L202.544 89.3307C202.507 89.4609 202.497 89.6046 202.51 89.746C202.572 90.406 203.165 90.8894 203.837 90.8264C203.869 90.8234 203.9 90.8204 203.932 90.8174L208.637 106.339L199.259 88.0853L199.25 88.0782ZM201.1 143.641L209.333 107.915L223.236 106.611C223.295 106.898 223.455 107.137 223.68 107.306L201.218 143.693C201.218 143.693 201.141 143.653 201.1 143.641ZM201.458 143.845L223.927 107.45C224.113 107.535 224.326 107.571 224.549 107.55C224.805 107.526 225.029 107.425 225.209 107.282L225.289 107.354L255.706 136.102C255.374 136.434 255.184 136.896 255.214 137.393L201.878 144.543C201.827 144.262 201.676 144.023 201.466 143.844L201.458 143.845ZM201.888 144.819L255.248 137.667C255.344 138.086 255.595 138.443 255.94 138.68L215.309 193.986C215.003 193.809 214.639 193.716 214.256 193.752C214.208 193.757 214.16 193.761 214.112 193.766L201.117 145.882C201.56 145.714 201.876 145.296 201.896 144.819L201.888 144.819ZM189.035 164.722C189.004 164.384 188.832 164.099 188.587 163.9L200.18 145.867C200.365 145.945 200.562 145.982 200.778 145.962C200.794 145.96 200.81 145.959 200.834 145.957L213.829 193.848C213.673 193.902 213.535 193.978 213.399 194.07L188.712 165.656C188.939 165.413 189.069 165.084 189.036 164.73L189.035 164.722ZM150.666 197.806L187.01 165.737C187.256 165.951 187.581 166.063 187.933 166.031C188.141 166.011 188.335 165.937 188.503 165.834L213.19 194.248C212.887 194.546 212.707 194.944 212.683 195.382L150.874 198.31C150.84 198.122 150.768 197.955 150.666 197.814L150.666 197.806ZM148.447 198.561C148.447 198.561 148.45 198.592 148.452 198.616C148.514 199.276 149.108 199.759 149.779 199.696C149.811 199.693 149.843 199.69 149.867 199.688L170.339 268.421L175.009 284.097C175.009 284.097 174.947 284.118 174.924 284.136L126.358 197.676C126.457 197.524 126.521 197.352 126.545 197.175L148.449 198.577L148.447 198.561ZM106.972 203.259C106.968 203.22 106.965 203.181 106.96 203.134L124.28 197.61C124.339 197.715 124.42 197.81 124.509 197.897L95.4531 222.34C95.4531 222.34 95.3746 222.276 95.3309 222.24L105.305 204.478C105.481 204.548 105.677 204.578 105.877 204.559C106.548 204.496 107.041 203.911 106.979 203.251L106.972 203.259ZM104.637 205.095L102.738 208.483L95.0852 222.113C94.9093 222.042 94.7131 222.013 94.5134 222.032C93.8422 222.095 93.3489 222.68 93.4108 223.34C93.4373 223.623 93.5568 223.865 93.7438 224.054L60.0944 263.979L104.645 205.094L104.637 205.095ZM93.2721 225.041L76.6366 250.673C76.4009 250.481 76.0848 250.376 75.7572 250.407C75.0859 250.469 74.5927 251.055 74.6546 251.715C74.6863 252.053 74.8589 252.345 75.1105 252.536L57.9174 266.981L93.2794 225.032L93.2721 225.041ZM57.9755 268.029C57.9564 267.825 57.882 267.634 57.7786 267.477L75.3599 252.703C75.4609 252.749 75.5685 252.778 75.6833 252.799L70.7696 296.41C70.697 296.408 70.6323 296.407 70.5604 296.413C70.4086 296.428 70.2662 296.457 70.1341 296.509L57.3965 269.162C57.7776 268.928 58.019 268.493 57.9748 268.022L57.9755 268.029ZM40.0187 277.338C39.9929 277.063 39.8959 276.803 39.7547 276.586L55.7418 268.794C55.9777 269.16 56.4095 269.381 56.8809 269.337C56.8889 269.336 56.8969 269.335 56.9049 269.335L62.6617 293.5C62.4743 293.565 62.3074 293.676 62.1761 293.823L39.8999 278.134C39.9976 277.887 40.0452 277.621 40.0187 277.338ZM39.7701 278.384L62.0115 294.045C61.8933 294.246 61.8355 294.489 61.8591 294.741C61.8753 294.914 61.93 295.067 62.0079 295.21L40.629 310.317C40.5133 310.201 40.3534 310.129 40.1819 310.105L38.5143 279.176C39.0482 279.11 39.4946 278.798 39.7614 278.377L39.7701 278.384ZM37.9818 279.17C38.0639 279.186 38.1533 279.194 38.2339 279.194L39.9015 310.124C39.5311 310.214 39.2649 310.556 39.301 310.941C39.3195 311.137 39.4076 311.304 39.5399 311.426L27.0061 330.427L37.9731 279.163L37.9818 279.17ZM27.504 331.094C27.4848 330.89 27.3879 330.716 27.2475 330.595L39.7894 311.593L31.9783 346.399C31.8032 346.337 31.615 346.307 31.421 346.301L27.0836 331.854C27.361 331.717 27.5349 331.424 27.5047 331.102L27.504 331.094ZM8.51006 356.59L26.3745 331.858C26.501 331.917 26.6493 331.951 26.8011 331.936C26.8011 331.936 26.8091 331.936 26.8171 331.935L31.1326 346.32C30.2429 346.459 29.6002 347.257 29.685 348.16C29.6997 348.317 29.7377 348.464 29.7916 348.61L8.93911 356.954C8.82125 356.814 8.67291 356.694 8.51079 356.598L8.51006 356.59ZM6.05688 357.335C5.92866 357.601 5.87601 357.899 5.90475 358.206C5.95117 358.701 6.20897 359.128 6.58129 359.402L-11.4601 397.118C-11.6941 397.029 -11.9549 396.998 -12.2266 397.024C-12.3385 397.034 -12.4496 397.053 -12.5513 397.086L-32.4598 346.308C-32.3691 346.244 -32.2878 346.165 -32.232 346.073L6.0649 357.335L6.05688 357.335ZM-56.3884 356.233C-56.4009 356.099 -56.4287 355.975 -56.4725 355.852L-33.387 346.134C-33.2488 346.319 -33.0198 346.44 -32.7641 346.416C-32.7481 346.415 -32.7321 346.413 -32.7161 346.412L-22.4714 372.534L-12.8076 397.189C-12.9543 397.259 -13.0907 397.351 -13.2177 397.458L-56.7501 357.448C-56.4831 357.114 -56.3377 356.688 -56.3797 356.24L-56.3884 356.233ZM-78.1313 369.178C-78.143 369.053 -78.1876 368.922 -78.2705 368.811L-59.4955 357.396C-59.3478 357.596 -59.155 357.761 -58.9347 357.875L-77.1857 397.996C-77.3442 397.94 -77.5085 397.907 -77.6785 397.9L-78.7187 369.963C-78.5604 369.932 -78.4072 369.846 -78.2991 369.709C-78.1686 369.554 -78.1071 369.35 -78.1247 369.162L-78.1313 369.178ZM-99.915 389.768L-79.4396 369.753C-79.4396 369.753 -79.3953 369.796 -79.3691 369.818C-79.2644 369.903 -79.1386 369.955 -79.0158 369.975L-77.9836 397.912C-78.5894 397.985 -79.0865 398.357 -79.3365 398.872L-99.5917 391.323C-99.5295 391.127 -99.5095 390.911 -99.5301 390.691C-99.564 390.33 -99.7068 390.011 -99.9244 389.754L-99.915 389.768ZM-102.958 390.926C-102.958 390.926 -102.952 390.989 -102.949 391.02C-102.921 391.326 -102.805 391.609 -102.638 391.847L-130.093 414.705C-130.44 414.357 -130.942 414.166 -131.477 414.216C-131.805 414.247 -132.1 414.362 -132.349 414.544L-155.325 388.902C-155.261 388.817 -155.214 388.717 -155.183 388.619L-102.959 390.918L-102.958 390.926ZM-156.666 388.354C-156.677 388.41 -156.672 388.465 -156.667 388.52C-156.651 388.693 -156.571 388.86 -156.437 388.99L-165.492 402.886L-173.159 414.646C-173.159 414.646 -173.167 414.647 -173.175 414.648L-168.01 385.241C-167.8 385.237 -167.591 385.146 -167.438 384.973C-167.409 384.939 -167.381 384.896 -167.36 384.863L-156.666 388.362L-156.666 388.354ZM-168.757 384.661C-168.73 384.785 -168.662 384.906 -168.564 385.007L-185.321 408.304C-185.62 408.126 -185.983 408.042 -186.358 408.077C-186.734 408.112 -187.098 408.273 -187.365 408.52L-211.296 386.875C-211.24 386.783 -211.2 386.692 -211.186 386.587L-168.75 384.652L-168.757 384.661ZM-228.947 395.236C-228.961 395.079 -229 394.924 -229.053 394.786L-212.548 386.929C-212.512 386.973 -212.467 387.017 -212.423 387.06C-212.152 387.28 -211.765 387.284 -211.486 387.083L-187.555 408.728C-187.648 408.848 -187.725 408.974 -187.785 409.106L-228.984 395.786C-228.944 395.608 -228.921 395.424 -228.939 395.227L-228.947 395.236ZM-229.132 396.181C-229.132 396.181 -229.091 396.098 -229.071 396.056L-187.873 409.376C-187.912 409.554 -187.936 409.739 -187.917 409.935C-187.829 410.87 -186.992 411.552 -186.041 411.463C-185.737 411.435 -185.465 411.33 -185.23 411.173L-165.406 435.264C-165.473 435.326 -165.539 435.395 -165.596 435.472L-229.132 396.181ZM-164.378 434.795C-164.514 434.808 -164.64 434.835 -164.765 434.879L-173.012 415.964C-172.951 415.926 -172.899 415.874 -172.856 415.822C-172.776 415.728 -172.722 415.612 -172.693 415.498L-133.032 416.027C-133.032 416.027 -133.029 416.058 -133.028 416.074C-133.007 416.302 -132.938 416.517 -132.84 416.706L-162.84 435.467C-163.188 435.016 -163.762 434.745 -164.377 434.803L-164.378 434.795ZM-162.69 435.691L-132.69 416.93C-132.634 417.004 -132.563 417.076 -132.493 417.141L-146.669 434.703C-146.951 434.611 -147.282 434.697 -147.485 434.938C-147.579 435.05 -147.639 435.191 -147.65 435.326L-162.509 436.237C-162.536 436.041 -162.601 435.857 -162.69 435.691ZM-162.569 436.979C-162.526 436.832 -162.492 436.679 -162.492 436.512L-155.471 436.084L-147.632 435.602C-147.594 435.749 -147.509 435.884 -147.386 435.991C-147.194 436.148 -146.94 436.195 -146.712 436.134L-139.037 446.027C-139.072 446.086 -139.099 446.144 -139.125 446.21L-162.577 436.98L-162.569 436.979ZM-137.952 447.027C-137.899 446.99 -137.847 446.946 -137.803 446.894C-137.673 446.739 -137.611 446.536 -137.629 446.347C-137.646 446.158 -137.736 445.977 -137.902 445.842C-137.937 445.813 -137.98 445.785 -138.014 445.765L-131.541 417.575C-131.46 417.583 -131.37 417.591 -131.282 417.59L-126.958 463.695C-126.958 463.695 -127.005 463.707 -127.036 463.718L-137.953 447.011L-137.952 447.027ZM-126.001 464.35C-126.016 464.193 -126.079 464.041 -126.195 463.917L-78.6652 401.044C-78.3998 401.209 -78.0851 401.298 -77.7546 401.299L-71.5034 475.686L-71.4467 476.291C-72.0975 476.399 -72.604 476.843 -72.8074 477.425L-125.998 464.469C-125.998 464.469 -125.997 464.397 -126.001 464.358L-126.001 464.35ZM-94.0844 478.406C-94.1021 478.217 -94.1917 478.035 -94.3575 477.9C-94.6805 477.637 -95.1599 477.682 -95.4203 478C-95.4711 478.06 -95.5131 478.128 -95.5392 478.194L-125.296 464.91L-106.24 469.551L-72.8725 477.677C-72.8825 477.741 -72.8934 477.798 -72.8954 477.861L-94.0836 478.501C-94.0836 478.501 -94.0902 478.43 -94.0932 478.399L-94.0844 478.406ZM-89.0889 493.94L-94.4991 479.142C-94.4068 479.094 -94.3241 479.031 -94.2588 478.953C-94.2153 478.902 -94.1798 478.851 -94.1609 478.794L-72.8921 478.154C-72.8604 478.492 -72.7198 478.788 -72.5197 479.031L-88.5365 494.071C-88.7009 493.951 -88.9058 493.915 -89.0968 493.941L-89.0889 493.94ZM-88.2218 494.762C-88.2189 494.707 -88.2154 494.659 -88.2205 494.604C-88.2316 494.486 -88.2746 494.371 -88.3408 494.266L-72.3241 479.226C-71.9815 479.527 -71.5148 479.689 -71.0195 479.643C-70.6838 479.611 -70.3811 479.488 -70.1328 479.298L-43.9891 507.861C-44.1364 508.01 -44.2487 508.186 -44.3349 508.385L-88.2305 494.755L-88.2218 494.762ZM-41.9241 507.533L-28.1059 475.84L-33.5583 506.574C-33.849 506.482 -34.1722 506.56 -34.3826 506.809C-34.5131 506.964 -34.5746 507.168 -34.5569 507.357C-34.5547 507.38 -34.5533 507.396 -34.5518 507.412L-41.0748 508.594C-41.199 508.13 -41.517 507.748 -41.9321 507.533L-41.9241 507.533Z" fill="#A3EED4"/>
</g>
<defs>
<clipPath id="clip0_616_3496">
<rect width="341.294" height="212.821" fill="white" transform="translate(212.023 0.923096) rotate(84.642)"/>
</clipPath>
</defs>
</svg>
