<svg width="54" height="48" viewBox="0 0 54 48" fill="none" xmlns="http://www.w3.org/2000/svg">
<path d="M52.5403 19.2897C53.3788 18.1303 53.6924 16.497 53.8017 15.3376C53.933 13.9886 53.8819 12.4792 53.6559 11.2032C53.6122 10.9407 53.3861 10.7511 53.1236 10.7511C52.2851 10.7438 51.4684 10.7438 50.6663 10.7438C50.6517 10.0803 50.6372 9.41674 50.6226 8.74591C50.6007 7.90008 50.5861 7.06153 50.5642 6.2157C50.5569 5.91674 50.309 5.67612 50.0028 5.68341C49.7038 5.6907 49.4632 5.93862 49.4705 6.24487C49.4924 7.0907 49.5069 7.92924 49.5288 8.77508C49.5434 9.43133 49.558 10.0876 49.5726 10.7511C48.3257 10.7584 47.0861 10.7803 45.7736 10.8167L45.6934 6.53654C45.6861 6.23758 45.4455 5.99695 45.1465 5.99695H45.1392C44.8403 6.00424 44.5997 6.25216 44.5997 6.55112L44.6799 10.8459C43.8778 10.8751 43.0392 10.9115 42.1497 10.9553C41.8653 10.9699 41.6392 11.2032 41.6319 11.4876C41.5444 14.4261 41.6538 17.6855 43.0684 19.5522C44.0528 20.8428 45.6132 21.6667 47.2465 21.7907L47.2538 21.9803C47.2538 21.9876 47.2538 21.9949 47.2538 22.0022C47.5528 26.4355 46.408 31.1167 44.0382 35.1782C41.6684 39.2397 38.1538 42.5282 34.1434 44.4459C30.133 46.3636 25.3642 47.0345 20.7122 46.3345C16.0674 45.6345 11.7069 43.5855 8.44028 40.5667C5.17361 37.548 2.78923 33.3699 1.71736 28.7907C0.652776 24.2115 0.944443 19.399 2.54132 15.2501C4.47361 10.2188 7.92257 6.25945 12.509 3.80216C16.7747 1.51258 21.908 0.637578 26.9538 1.33758C31.008 1.89904 34.9236 3.45216 38.2851 5.83654C38.533 6.01154 38.8757 5.9532 39.0507 5.70528C39.2257 5.45737 39.1674 5.11466 38.9194 4.93966C35.4194 2.4532 31.3361 0.834453 27.1069 0.243828C21.8278 -0.485339 16.4611 0.433411 11.9913 2.83237C7.16423 5.42091 3.54757 9.57716 1.52048 14.849C-0.149307 19.2022 -0.455557 24.2334 0.660068 29.024C1.77569 33.8147 4.27673 38.1897 7.70382 41.3542C11.1309 44.5188 15.6955 46.6626 20.5517 47.399C21.8059 47.5886 23.0746 47.6834 24.3288 47.6834C27.9382 47.6834 31.4965 46.9105 34.6174 45.4157C38.8247 43.4032 42.5069 39.9542 44.9861 35.7105C47.4653 31.4667 48.6611 26.574 48.3476 21.922L48.3403 21.7542C49.9882 21.572 51.5632 20.6459 52.5403 19.2897ZM47.8372 20.7115C47.8153 20.7115 47.7934 20.7115 47.7788 20.7115C47.7715 20.7115 47.7715 20.7115 47.7642 20.7115H47.7569C46.2767 20.7407 44.8257 20.0407 43.9434 18.8886C42.6965 17.248 42.6747 13.872 42.7111 12.0272C43.5934 11.9834 44.4247 11.9542 45.2267 11.9251C45.2267 11.9251 45.2267 11.9251 45.234 11.9251H45.2413C45.2486 11.9251 45.2559 11.9251 45.2632 11.9251C47.8444 11.8376 50.1267 11.8303 52.6497 11.8449C53.0799 14.8126 52.4892 17.4886 51.6507 18.6553C50.7757 19.873 49.3101 20.6605 47.8372 20.7115ZM30.2278 27.7626C33.3267 26.8292 35.3247 25.0792 36.7028 22.0751C38.0882 19.0636 37.4757 15.4542 35.1497 12.8803C33.2611 10.7949 31.008 10.5542 28.4778 10.474C23.308 10.3063 19.283 10.7292 15.0247 11.8886C14.784 11.9542 14.6163 12.1803 14.6236 12.4282C14.7038 16.4678 14.784 20.8938 14.8569 25.1667C14.9299 29.4397 15.0101 33.8657 15.0903 37.9053C15.0976 38.2042 15.3382 38.4376 15.6299 38.4376C15.8778 38.4376 16.1403 38.4376 16.4174 38.4376C17.1174 38.4376 17.8757 38.4303 18.6122 38.423C19.633 38.4157 20.6903 38.4084 21.5799 38.4157C21.8861 38.423 22.1267 38.1751 22.134 37.8761C22.1486 36.6001 22.1267 34.8865 22.1122 33.224C22.0976 31.7803 22.0757 30.2928 22.083 29.097C25.7215 28.7907 27.734 28.5136 30.2278 27.7626ZM21.4778 28.0542C21.1934 28.0761 20.9819 28.3094 20.9747 28.5938C20.9601 29.8699 20.9819 31.5834 20.9965 33.2459C21.0111 34.6751 21.0257 36.1407 21.0257 37.3292C20.2601 37.3292 19.4142 37.3365 18.5903 37.3438C17.7663 37.3511 16.9205 37.3584 16.1622 37.3584C16.0819 33.4647 16.009 29.2428 15.9361 25.1522C15.8632 21.0251 15.7903 16.7667 15.7101 12.8365C19.7059 11.7865 23.5413 11.4074 28.434 11.5678C30.7892 11.648 32.7215 11.8449 34.333 13.6167C36.3674 15.8626 36.9069 19.0053 35.7038 21.623C34.4496 24.3501 32.7215 25.874 29.9069 26.7199C27.6247 27.4053 25.809 27.6897 21.4778 28.0542ZM30.0601 17.2626C29.2799 15.7605 28.1132 15.4907 27.0778 15.4178C25.1382 15.2865 23.5267 15.2938 21.0403 15.7167C20.7705 15.7605 20.5736 16.0011 20.5809 16.2709C20.6174 17.4084 20.6611 18.5022 20.6976 19.6032C20.734 20.697 20.7778 21.7907 20.8142 22.9282C20.8215 23.074 20.8872 23.2126 20.9965 23.3147C21.0986 23.4022 21.2299 23.4532 21.3611 23.4532C21.3757 23.4532 21.383 23.4532 21.3976 23.4532C21.7038 23.4313 22.0684 23.4167 22.4549 23.4022C25.0799 23.2928 29.0465 23.1251 30.1111 20.8063C30.534 19.9022 30.5049 18.1157 30.0601 17.2626ZM29.1267 20.3542C28.3392 22.0678 24.6351 22.2209 22.4184 22.3157C22.2361 22.323 22.0611 22.3303 21.9007 22.3376C21.8715 21.3969 21.8351 20.4782 21.8059 19.5667C21.7694 18.6261 21.7403 17.6855 21.7038 16.723C23.8257 16.3949 25.284 16.4022 27.0194 16.5115C27.9309 16.5699 28.6017 16.8032 29.0976 17.7657C29.3747 18.3126 29.3892 19.7636 29.1267 20.3542Z" fill="#2D5632"/>
<path d="M42.1782 11.5022C42.1125 13.8064 42.1052 17.3793 43.5052 19.2168C44.5115 20.5439 46.1886 21.3168 47.8511 21.2584C49.5136 21.2001 51.1177 20.3178 52.0948 18.9689C53.4365 17.1095 53.5167 13.5512 53.1157 11.298C49.4844 11.2689 46.3271 11.298 42.1782 11.5022Z" fill="#6CBE46"/>
<path d="M28.4568 11.0209C23.7828 10.8678 19.6776 11.1886 15.1641 12.4136C15.3318 20.5001 15.4703 29.8043 15.6307 37.8907C17.4172 37.9053 19.787 37.8616 21.5807 37.8761C21.6099 35.3386 21.5078 31.1386 21.5297 28.6011C25.6495 28.2511 27.6255 27.9741 30.0755 27.2376C33.0505 26.3407 34.9172 24.6709 36.2078 21.8491C37.5057 19.0272 36.9224 15.6584 34.7422 13.2522C33.0286 11.3636 31.0016 11.1011 28.4568 11.0209ZM29.6234 20.5803C28.5516 22.9209 23.637 22.7605 21.3693 22.9136C21.2891 20.6386 21.2089 18.5314 21.1359 16.2564C23.4911 15.8626 25.0516 15.8334 27.0495 15.9647C28.1432 16.0376 28.9818 16.3584 29.5797 17.5105C29.9443 18.2251 29.9589 19.8439 29.6234 20.5803Z" fill="#2D5632"/>
<path d="M45.1465 5.98962H45.1392C44.8402 5.99692 44.5996 6.24483 44.5996 6.54379L44.6944 11.3782C44.7017 11.6771 44.9423 11.9177 45.2413 11.9177H45.2486C45.5475 11.9105 45.7882 11.6625 45.7882 11.3636L45.6934 6.52921C45.6861 6.23025 45.4454 5.98962 45.1465 5.98962Z" fill="#2D5632"/>
<path d="M50.0032 5.68339C49.7042 5.69068 49.4636 5.9386 49.4709 6.24485C49.4927 7.09068 49.5073 7.92922 49.5292 8.77505C49.5511 9.62089 49.5657 10.4594 49.5875 11.3053C49.5948 11.6042 49.8355 11.8376 50.1344 11.8376C50.1417 11.8376 50.1417 11.8376 50.149 11.8376C50.448 11.8303 50.6886 11.5823 50.6813 11.2761C50.6594 10.4303 50.6448 9.59172 50.623 8.74589C50.6011 7.90006 50.5865 7.06151 50.5646 6.21568C50.5573 5.91672 50.3021 5.6761 50.0032 5.68339Z" fill="#2D5632"/>
<path d="M44.9861 35.7251C47.4653 31.4813 48.6611 26.5886 48.3476 21.9365L48.3257 21.2438C48.3184 20.9449 48.0632 20.7042 47.7642 20.7115C47.4653 20.7188 47.2247 20.974 47.2319 21.273L47.2538 21.973C47.2538 21.9803 47.2538 21.9876 47.2538 21.9949C47.5528 26.4282 46.408 31.1094 44.0382 35.1709C41.6684 39.2324 38.1538 42.5209 34.1434 44.4386C30.133 46.3563 25.3642 47.0272 20.7122 46.3272C16.0674 45.6272 11.7069 43.5782 8.44028 40.5595C5.17361 37.5407 2.78923 33.3626 1.71736 28.7834C0.652776 24.2115 0.944443 19.399 2.54132 15.2501C4.47361 10.2188 7.92257 6.25945 12.509 3.80216C16.7747 1.51258 21.908 0.637578 26.9538 1.33758C31.008 1.89904 34.9236 3.45216 38.2851 5.83654C38.533 6.01154 38.8757 5.9532 39.0507 5.70529C39.2257 5.45737 39.1674 5.11466 38.9194 4.93966C35.4194 2.4532 31.3361 0.834453 27.1069 0.243828C21.8278 -0.485339 16.4611 0.433411 11.9913 2.83237C7.16423 5.42091 3.54757 9.57716 1.52048 14.849C-0.149307 19.2022 -0.455557 24.2334 0.660068 29.024C1.77569 33.8147 4.27673 38.1897 7.70382 41.3542C11.1309 44.5188 15.6955 46.6626 20.5517 47.399C21.8059 47.5886 23.0746 47.6834 24.3288 47.6834C27.9382 47.6834 31.4965 46.9105 34.6174 45.4157C38.8246 43.4178 42.5069 39.9688 44.9861 35.7251Z" fill="#181818"/>
</svg>
