<svg width="21" height="21" viewBox="0 0 21 21" fill="none" xmlns="http://www.w3.org/2000/svg">
<path d="M1.57905 14.0407L6.28187 11.9333L6.29485 11.9274C6.53899 11.8229 6.80532 11.781 7.06973 11.8054C7.33415 11.8298 7.5883 11.9198 7.80921 12.0671C7.83524 12.0843 7.86024 12.1029 7.88408 12.123L10.3139 14.1944C11.8532 13.4467 13.4424 11.8695 14.1901 10.3501L12.1157 7.88339C12.0958 7.85843 12.0768 7.83348 12.0588 7.80652C11.9146 7.58621 11.8272 7.33367 11.8042 7.07137C11.7812 6.80908 11.8234 6.54517 11.9271 6.30314V6.29116L14.0404 1.58035C14.1774 1.26416 14.413 1.00077 14.712 0.829494C15.011 0.658215 15.3574 0.588236 15.6995 0.630002C17.0522 0.807999 18.2938 1.47231 19.1925 2.49885C20.0912 3.52539 20.5854 4.84397 20.583 6.2083C20.583 14.1345 14.1342 20.5833 6.208 20.5833C4.84366 20.5858 3.52509 20.0915 2.49855 19.1928C1.472 18.2941 0.807697 17.0525 0.6297 15.6998C0.587858 15.3579 0.65769 15.0115 0.828781 14.7125C0.999872 14.4135 1.26305 14.1779 1.57905 14.0407ZM6.208 18.9861C9.59574 18.9824 12.8437 17.635 15.2392 15.2395C17.6347 12.844 18.9821 9.59605 18.9858 6.2083C18.9895 5.23349 18.6383 4.29063 17.9978 3.55582C17.3572 2.82101 16.471 2.34449 15.5048 2.21525C15.5052 2.21923 15.5052 2.22324 15.5048 2.22722L13.4085 6.91907L15.4719 9.38877C15.4929 9.41284 15.5119 9.43854 15.5288 9.46564C15.679 9.69616 15.7671 9.96157 15.7846 10.2362C15.8021 10.5107 15.7484 10.7852 15.6286 11.0329C14.7242 12.8827 12.8604 14.7325 10.9907 15.6359C10.7412 15.7546 10.4651 15.8064 10.1895 15.7865C9.91395 15.7665 9.64826 15.6754 9.41842 15.5221C9.39273 15.5049 9.36806 15.4863 9.34454 15.4662L6.91776 13.3958L2.22592 15.4972H2.21494C2.34261 16.4647 2.81842 17.3527 3.55336 17.9948C4.28831 18.637 5.23204 18.9894 6.208 18.9861Z" fill="#F4F6F8"/>
</svg>
