<svg width="53" height="36" viewBox="0 0 53 36" fill="none" xmlns="http://www.w3.org/2000/svg">
<path d="M21.9629 2.91797L6.52075 15.0732C6.7287 22.7272 6.722 27.9595 6.92995 35.6135C16.6098 35.3117 27.2288 35.5934 36.9087 35.2915C37.0429 28.3754 36.6337 21.9758 36.7142 14.617L21.9629 2.91797ZM27.0209 26.4904C25.4579 27.9461 23.2911 28.7108 21.1647 28.5968C20.789 28.5767 20.4133 28.5297 20.0444 28.4559C19.5346 29.1066 18.8772 29.6366 18.1795 30.133C17.9112 30.2671 17.6429 30.0659 17.6429 29.7976C17.5892 29.1133 17.7033 28.3888 18.0118 27.7516C16.6501 27.0673 15.4896 26.0007 14.745 24.6725C11.9477 19.6548 15.9256 14.2145 20.9433 13.5705C21.5537 12.5241 22.0367 11.1288 23.0027 11.3568C23.6601 11.5178 23.3784 12.6582 23.2576 13.6175C23.5528 13.6711 23.8412 13.7382 24.1364 13.8254C27.1282 14.7109 29.3822 17.6625 29.4492 20.7885C29.4962 22.9083 28.5772 25.0348 27.0209 26.4904Z" fill="#2D5632"/>
<path d="M46.736 5.90976C46.7024 7.10381 46.7024 8.94184 47.4202 9.8944C47.9434 10.5786 48.8088 10.9811 49.6674 10.9476C50.5261 10.914 51.3579 10.4646 51.861 9.76695C52.5519 8.80768 52.5922 6.96964 52.3909 5.80913C50.5059 5.78901 48.8759 5.80243 46.736 5.90976Z" fill="#6CBE46"/>
<path d="M21.936 1.15368C25.1358 3.9644 28.6374 6.63424 32.0251 9.22359C35.5133 11.8867 39.1156 14.6371 42.369 17.5216C42.577 17.7027 42.8923 17.6893 43.0801 17.4813C43.2612 17.2734 43.2478 16.9581 43.0398 16.7703C39.7596 13.8589 36.1372 11.1019 32.6422 8.42532C29.1607 5.76219 25.5517 3.01184 22.2982 0.127332C22.1171 -0.0336638 21.8555 -0.0403715 21.6609 0.1005C17.9379 2.90451 14.3692 5.75548 10.9212 8.51253C7.4799 11.2629 3.91787 14.1071 0.20155 16.9044C-0.0198194 17.0721 -0.0667765 17.3874 0.100927 17.6088C0.20155 17.743 0.349129 17.81 0.503417 17.81C0.610748 17.81 0.718078 17.7765 0.805284 17.7094C4.52831 14.9054 8.09705 12.0544 11.545 9.29738C14.8857 6.62754 18.3404 3.87048 21.936 1.15368Z" fill="#2D5632"/>
<path d="M40.511 25.1422C40.4975 25.7258 40.4774 26.2557 40.464 26.7722C40.3701 29.5897 40.3164 31.2935 40.9805 32.8633C41.7587 34.6879 43.4827 35.8618 45.3073 35.8618C45.4951 35.8618 45.6762 35.8484 45.8641 35.8283C47.5679 35.6002 48.9565 34.4665 49.5871 32.7962C50.1774 31.2265 50.1774 29.5092 50.1774 27.9931V25.5245C50.1774 20.5739 50.1774 15.8916 50.1707 10.9544C50.1707 10.6794 49.9426 10.4513 49.6676 10.4513C49.3926 10.4513 49.1645 10.6794 49.1645 10.9544C49.1645 15.8916 49.1645 20.5739 49.1712 25.5245V27.9931C49.1712 29.4958 49.1712 31.0453 48.648 32.4406C48.1516 33.7621 47.0648 34.6543 45.7366 34.8287C44.1602 35.0367 42.5905 34.0707 41.9063 32.4675C41.3294 31.1057 41.3763 29.489 41.4702 26.8058C41.4904 26.2893 41.5038 25.7593 41.5172 25.169C41.5239 24.9879 41.5306 24.8068 41.5373 24.6323C41.591 23.2505 41.6513 21.8216 40.3634 20.802C39.3706 20.0171 38.5052 19.7555 36.9355 19.7689C36.6605 19.7689 36.4324 19.997 36.4391 20.2787C36.4391 20.5538 36.6672 20.7751 36.9422 20.7751H36.9489C38.2839 20.7617 38.9413 20.9496 39.7395 21.5868C40.625 22.2912 40.5847 23.3041 40.5378 24.5921C40.5244 24.7665 40.5177 24.9543 40.511 25.1422Z" fill="#2D5632"/>
<path d="M47.8094 5.85611C47.8161 6.13114 48.0375 6.35251 48.3125 6.35251H48.3192C48.5943 6.3458 48.8156 6.11772 48.8156 5.84269L48.7687 3.34726C48.762 3.07222 48.5339 2.84414 48.2589 2.85085C47.9838 2.85756 47.7625 3.08564 47.7625 3.36067L47.8094 5.85611Z" fill="#2D5632"/>
<path d="M50.7676 2.68325C50.4925 2.68996 50.2712 2.91804 50.2779 3.19978L50.3382 5.80926C50.3449 6.08429 50.5663 6.29895 50.8413 6.29895C50.8481 6.29895 50.8481 6.29895 50.8548 6.29895C51.1298 6.29224 51.3512 6.06417 51.3445 5.78242L51.2841 3.17295C51.2774 2.89792 51.0493 2.67655 50.7676 2.68325Z" fill="#2D5632"/>
<path d="M17.1261 29.2542C16.9249 29.764 17.106 30.3208 17.5689 30.6092C17.7567 30.7232 17.958 30.7836 18.1592 30.7836C18.4611 30.7836 18.7562 30.6562 18.9776 30.4147C22.2042 26.8795 24.4515 24.2566 27.9867 20.0506C28.2684 19.7152 28.3288 19.259 28.1409 18.8565C27.9531 18.4607 27.5707 18.2192 27.1347 18.2192C27.128 18.2192 27.1213 18.2192 27.1213 18.2192C26.5914 18.2259 26.1352 18.2394 25.7394 18.2461C24.7533 18.2662 24.0087 18.2863 22.8549 18.2327C22.9488 17.5686 23.2239 15.9251 23.9819 11.8666C24.0825 11.3434 23.8008 10.8336 23.3111 10.6323C22.8147 10.4311 22.2646 10.5988 21.9694 11.0415C20.2253 13.6376 17.0456 18.3668 15.3082 20.8086C15.0667 21.1507 15.0332 21.5934 15.2277 21.9691C15.4223 22.3448 15.8046 22.5728 16.2273 22.5661C16.6767 22.5594 17.0926 22.546 17.4884 22.5393C18.1995 22.5192 18.877 22.499 19.7557 22.5125C19.2996 23.5925 18.8166 24.8536 18.3135 26.1818C17.9311 27.1746 17.5421 28.201 17.1261 29.2542ZM20.9632 22.2441C21.0303 22.0899 21.0169 21.9154 20.9297 21.7746C20.8425 21.6337 20.6882 21.5465 20.5205 21.5398C20.0174 21.5197 19.5679 21.5129 19.1587 21.5129C18.5214 21.5129 17.9848 21.5264 17.4481 21.5465C17.0524 21.5599 16.6432 21.5666 16.2004 21.5733C16.1602 21.5733 16.1266 21.5532 16.1065 21.5197C16.0864 21.4794 16.0864 21.4459 16.1132 21.4123C17.864 18.9571 21.0504 14.2279 22.7945 11.6251C22.808 11.605 22.8415 11.5513 22.922 11.5849C23.0025 11.6184 22.9891 11.6788 22.9891 11.6989C22.647 13.5437 22.3652 15.0664 22.1707 16.2068C21.7212 18.7894 21.7414 18.8163 21.9091 19.0309C21.9963 19.145 22.1371 19.2188 22.278 19.2255C23.7806 19.306 24.6125 19.2858 25.7595 19.259C26.1553 19.2523 26.6048 19.2389 27.1347 19.2322C27.1817 19.2322 27.2152 19.2523 27.2286 19.2925C27.2488 19.3328 27.242 19.373 27.2152 19.4066C23.6934 23.5992 21.4529 26.2154 18.233 29.7439C18.2129 29.764 18.1726 29.8109 18.0988 29.764C18.025 29.717 18.0452 29.6634 18.0586 29.6365C18.4812 28.5766 18.8703 27.5503 19.2459 26.5575C19.8564 24.9408 20.4333 23.4248 20.9632 22.2441Z" fill="#2D5632"/>
</svg>
