<svg width="26" height="24" viewBox="0 0 26 24" fill="none" xmlns="http://www.w3.org/2000/svg">
<g clip-path="url(#clip0_394_27314)">
<path d="M15.1361 15.5369H11.807C11.9317 13.8998 12.4634 12.8054 13.1097 12.0285C13.8633 11.1226 14.8203 10.588 15.6863 10.1515C16.3555 9.84173 16.912 9.50842 17.3125 9.13873C17.8988 8.59749 18.0751 7.93546 18.0751 7.38462C18.0751 6.87457 17.9268 6.43123 17.7961 6.18034C17.1902 4.89219 15.8077 3.69187 13.4353 3.69187C11.5054 3.69187 10.284 4.51424 9.5666 5.47326C9.1751 5.99665 8.93952 6.55219 8.80978 7.0159L5.50361 6.60898C6.1216 4.249 8.40049 0.75 13.4353 0.75C16.8811 0.75 19.79 2.54595 20.9321 5.04637C21.9332 7.29336 21.4924 9.60567 19.8239 11.1458C19.2461 11.6792 18.587 12.0322 17.8991 12.4007C17.7385 12.4867 17.5763 12.5736 17.4132 12.6638C16.6459 13.0585 16.0355 13.5016 15.6336 14.1199C15.354 14.55 15.2035 15.021 15.1361 15.5369Z" stroke="white" stroke-width="1.5"/>
<path d="M15.8936 20.7288C15.8936 21.8953 14.8514 22.94 13.4356 22.94C12.0197 22.94 10.9775 21.8953 10.9775 20.7288C10.9775 19.5623 12.0197 18.5175 13.4356 18.5175C14.8514 18.5175 15.8936 19.5623 15.8936 20.7288Z" stroke="white" stroke-width="1.5"/>
</g>
<defs>
<clipPath id="clip0_394_27314">
<rect width="25.6642" height="23.69" fill="white" transform="matrix(-1 0 0 1 26 0)"/>
</clipPath>
</defs>
</svg>
