<svg width="301" height="525" viewBox="0 0 301 525" fill="none" xmlns="http://www.w3.org/2000/svg">
<g opacity="0.13">
<path d="M38.5633 183.672C29.3913 212.997 25.3238 243.947 27.8315 277.087C29.8945 282.674 35.3376 287.167 41.5741 286.489L113.64 278.654C119.184 278.051 123.527 273.221 125.013 267.975C124.844 266.541 125.452 265.748 125.283 264.314L124.944 261.445C124.526 192.486 174.391 133.314 242.299 125.932C315.751 117.946 381.931 173.219 390.818 248.521C399.79 324.541 347.391 391.978 274.632 399.888C228.898 404.86 186.607 385.487 158.815 352.191L157.175 350.19C156.397 349.548 155.535 348.189 154.757 347.547C150.092 343.696 144.379 342.864 139.174 346.336L123.644 357.467L117.608 347.954L89.0654 367.763L95.101 377.276L78.8777 388.483C73.6727 391.954 71.832 400.144 74.4187 404.221C92.8798 429.816 116.461 451.222 142.915 467.232C184.497 492.493 234.427 505.224 285.704 499.649C412.513 485.863 502.542 368.574 487.053 237.333C471.563 106.092 356.481 11.1008 229.672 24.8865C138.203 34.8304 65.8095 99.357 38.5633 183.672Z" stroke="#383838" stroke-miterlimit="10"/>
<path d="M70.3479 248.645L68.9629 236.905L102.229 260.838L81.2008 254.239L80.4678 254.009L80.5575 254.77L81.7349 264.75L53.1081 256.693L50.9054 238.023L69.5977 249.127L70.4657 249.643L70.3479 248.645Z" stroke="#383838"/>
</g>
</svg>
