<svg width="151" height="45" viewBox="0 0 151 45" fill="none" xmlns="http://www.w3.org/2000/svg">
<path d="M150.5 38.9183C150.5 42.2765 147.532 45 143.871 45H7.13125C3.46981 45.0003 0.500488 42.2768 0.500488 38.9183V6.08119C0.500488 2.72322 3.46981 0 7.13125 0H143.871C147.532 0 150.5 2.72322 150.5 6.08119V38.9183H150.5Z" fill="black"/>
<mask id="mask0_394_27124" style="mask-type:luminance" maskUnits="userSpaceOnUse" x="1" y="3" width="29" height="39">
<path d="M22.2931 17.3794L15.5295 12.8238C15.5295 12.8238 3.2076 4.52301 2.48321 4.03511C1.75884 3.54721 1.03711 3.84283 1.03711 4.86242V40.6682C1.03711 41.4325 1.55294 41.762 2.18229 41.3385C2.81135 40.9142 15.5295 32.3472 15.5295 32.3472L22.2928 27.7919C22.2928 27.7919 28.0314 23.9267 28.7942 23.4131C29.557 22.8989 29.4837 22.1941 28.84 21.7897C28.1965 21.3849 22.2931 17.3794 22.2931 17.3794Z" fill="white"/>
</mask>
<g mask="url(#mask0_394_27124)">
<path d="M1.03711 3.20239V41.9684L17.7926 22.5856L1.03711 3.20239Z" fill="url(#paint0_linear_394_27124)"/>
</g>
<mask id="mask1_394_27124" style="mask-type:luminance" maskUnits="userSpaceOnUse" x="1" y="3" width="29" height="39">
<path d="M22.2931 17.3794L15.5295 12.8238C15.5295 12.8238 3.2076 4.52301 2.48321 4.03511C1.75884 3.54721 1.03711 3.84283 1.03711 4.86242V40.6682C1.03711 41.4325 1.55294 41.762 2.18229 41.3385C2.81135 40.9142 15.5295 32.3472 15.5295 32.3472L22.2928 27.7919C22.2928 27.7919 28.0314 23.9267 28.7942 23.4131C29.557 22.8989 29.4837 22.1941 28.84 21.7897C28.1965 21.3849 22.2931 17.3794 22.2931 17.3794Z" fill="white"/>
</mask>
<g mask="url(#mask1_394_27124)">
<path d="M22.2928 17.3797L15.5292 12.8241L1.03711 3.06201V3.20298L17.7926 22.5861L22.2928 17.3797Z" fill="url(#paint1_linear_394_27124)"/>
</g>
<mask id="mask2_394_27124" style="mask-type:luminance" maskUnits="userSpaceOnUse" x="1" y="3" width="29" height="39">
<path d="M22.2931 17.3794L15.5295 12.8238C15.5295 12.8238 3.2076 4.52301 2.48321 4.03511C1.75884 3.54721 1.03711 3.84283 1.03711 4.86242V40.6682C1.03711 41.4325 1.55294 41.762 2.18229 41.3385C2.81135 40.9142 15.5295 32.3472 15.5295 32.3472L22.2928 27.7919C22.2928 27.7919 28.0314 23.9267 28.7942 23.4131C29.557 22.8989 29.4837 22.1941 28.84 21.7897C28.1965 21.3849 22.2931 17.3794 22.2931 17.3794Z" fill="white"/>
</mask>
<g mask="url(#mask2_394_27124)">
<path d="M1.03711 41.9688V42.1097L15.5292 32.3473L22.2925 27.7917L17.7926 22.5859L1.03711 41.9688Z" fill="url(#paint2_linear_394_27124)"/>
</g>
<mask id="mask3_394_27124" style="mask-type:luminance" maskUnits="userSpaceOnUse" x="1" y="3" width="29" height="39">
<path d="M22.2931 17.3794L15.5295 12.8238C15.5295 12.8238 3.2076 4.52301 2.48321 4.03511C1.75884 3.54721 1.03711 3.84283 1.03711 4.86242V40.6682C1.03711 41.4325 1.55294 41.762 2.18229 41.3385C2.81135 40.9142 15.5295 32.3472 15.5295 32.3472L22.2928 27.7919C22.2928 27.7919 28.0314 23.9267 28.7942 23.4131C29.557 22.8989 29.4837 22.1941 28.84 21.7897C28.1965 21.3849 22.2931 17.3794 22.2931 17.3794Z" fill="white"/>
</mask>
<g mask="url(#mask3_394_27124)">
<path d="M22.2931 17.3794L17.793 22.5858L22.2928 27.7915L30.0225 22.5855L22.2931 17.3794Z" fill="url(#paint3_linear_394_27124)"/>
</g>
<path d="M106.523 31.2346C105.893 31.2346 105.319 31.0991 104.799 30.8285C104.279 30.5575 103.842 30.1408 103.489 29.579H103.384C103.454 30.2372 103.489 30.8613 103.489 31.4508V36.09H102.027V19.755H103.217L103.419 21.298H103.489C103.866 20.6805 104.304 20.2353 104.804 19.9609C105.303 19.6865 105.876 19.5493 106.522 19.5493C107.804 19.5493 108.793 20.0605 109.489 21.0821C110.186 22.1038 110.534 23.5374 110.534 25.3815C110.534 27.2332 110.18 28.6712 109.472 29.6973C108.764 30.7224 107.781 31.2346 106.523 31.2346ZM106.311 20.9997C105.324 20.9997 104.609 21.3189 104.169 21.9563C103.728 22.5941 103.501 23.6093 103.489 25.0014V25.3816C103.489 26.966 103.716 28.0992 104.169 28.7818C104.621 29.4644 105.348 29.8048 106.346 29.8048C107.181 29.8048 107.835 29.411 108.309 28.6223C108.781 27.834 109.018 26.7471 109.018 25.361C109.018 23.9558 108.781 22.8767 108.309 22.126C107.836 21.3747 107.169 20.9997 106.311 20.9997ZM113.923 31.0286H112.46V15.0231H113.923V31.0286ZM122.338 31.0286L122.047 29.424H121.976C121.494 30.1308 121.014 30.6095 120.535 30.8589C120.056 31.1097 119.458 31.2346 118.741 31.2346C117.783 31.2346 117.032 30.9465 116.488 30.3707C115.944 29.7949 115.672 28.9758 115.672 27.9124C115.672 25.6361 117.233 24.4427 120.354 24.3325L121.995 24.2706V23.5712C121.995 22.6865 121.831 22.033 121.505 21.6118C121.179 21.1895 120.656 20.9788 119.94 20.9788C119.134 20.9788 118.223 21.2669 117.207 21.8427L116.757 20.5364C117.233 20.2347 117.755 19.9983 118.322 19.8268C118.889 19.6554 119.458 19.5696 120.028 19.5696C121.18 19.5696 122.034 19.8676 122.59 20.4643C123.145 21.061 123.423 22.0176 123.423 23.3345V31.0283H122.338L122.338 31.0286ZM119.032 29.8256C119.942 29.8256 120.658 29.5341 121.178 28.9515C121.698 28.3688 121.959 27.5524 121.959 26.5027V25.4845L120.495 25.556C119.331 25.6049 118.492 25.815 117.977 26.1897C117.463 26.5633 117.206 27.1446 117.206 27.9332C117.206 28.5501 117.366 29.0202 117.687 29.3418C118.007 29.6645 118.455 29.8256 119.032 29.8256ZM124.272 19.755H125.841L127.957 26.1842C128.422 27.652 128.71 28.7113 128.822 29.363H128.892C128.969 29.0127 129.129 28.415 129.373 27.5671C129.617 26.72 130.415 24.1166 131.766 19.755H133.336L129.183 32.5926C128.772 33.8612 128.291 34.7614 127.741 35.2938C127.192 35.8248 126.517 36.09 125.718 36.09C125.272 36.09 124.831 36.0318 124.395 35.9155V34.5475C124.718 34.6297 125.08 34.6711 125.48 34.6711C126.485 34.6711 127.202 34.0128 127.631 32.6959L128.169 31.0915L124.272 19.755ZM79.4105 20.8026C79.875 21.2511 80.8452 22.1934 80.8452 23.9866C80.8452 25.7305 79.9962 26.5575 79.1472 27.3345C78.8844 27.6407 78.5812 27.9719 78.5812 28.4912C78.5812 29.0089 78.8841 29.2922 79.1073 29.5047L79.8352 30.1637C80.7243 31.0365 81.532 31.8388 81.532 33.4664C81.532 35.6828 79.6926 37.9221 76.2168 37.9221C73.2857 37.9221 71.8715 36.2956 71.8715 34.5496C71.8715 33.7011 72.2337 32.4991 73.4279 31.6728C74.6801 30.7768 76.379 30.6601 77.2881 30.5876C77.0043 30.1637 76.6817 29.7155 76.6817 28.9857C76.6817 28.5854 76.7832 28.3493 76.8838 28.065C76.6606 28.0889 76.4386 28.1125 76.2362 28.1125C74.0945 28.1125 72.8819 26.2495 72.8819 24.4112C72.8819 23.3263 73.3068 22.1229 74.1749 21.2515C75.3274 20.1433 76.7016 19.9541 77.7941 19.9541H81.9567L80.6631 20.803H79.4105L79.4105 20.8026ZM77.9749 31.2729C77.8134 31.2483 77.7119 31.2483 77.5107 31.2483C77.3289 31.2483 76.2359 31.2965 75.3881 31.6274C74.9435 31.8145 73.6496 32.3804 73.6496 34.0556C73.6496 35.729 75.0449 36.9334 77.2078 36.9334C79.1469 36.9334 80.1788 35.8464 80.1788 34.3857C80.1789 33.1807 79.5117 32.5467 77.9749 31.2729ZM78.5615 26.7918C79.0257 26.2489 79.0656 25.4951 79.0656 25.0702C79.0656 23.3728 78.197 20.7318 76.5198 20.7318C75.9936 20.7318 75.4282 21.038 75.1048 21.5102C74.7616 22.0052 74.6596 22.6413 74.6596 23.2551C74.6596 24.8348 75.4479 27.4525 77.1869 27.4525C77.6923 27.4525 78.2369 27.1696 78.5615 26.7918ZM66.686 30.8955C63.4779 30.8955 61.7626 27.976 61.7626 25.3388C61.7626 22.2543 63.9214 19.6188 66.9898 19.6188C69.9547 19.6188 71.8114 22.3252 71.8114 25.1745C71.8117 27.9514 69.9761 30.8955 66.686 30.8955ZM69.2081 28.9888C69.6931 28.2347 69.8142 27.2934 69.8142 26.3745C69.8142 24.3021 68.9667 20.3476 66.4643 20.3476C65.7986 20.3476 65.1329 20.6541 64.6487 21.1496C63.8615 21.9724 63.7196 23.0088 63.7196 24.0222C63.7196 26.3512 64.7085 30.1876 67.1508 30.1876C67.9376 30.1876 68.745 29.7411 69.2081 28.9888ZM55.7486 30.8955C52.5399 30.8955 50.8244 27.976 50.8244 25.3388C50.8244 22.2543 52.9839 19.6188 56.0515 19.6188C59.0173 19.6188 60.8737 22.3252 60.8737 25.1745C60.874 27.9514 59.0382 30.8955 55.7486 30.8955ZM58.2713 28.9888C58.7555 28.2347 58.8769 27.2934 58.8769 26.3745C58.8769 24.3021 58.0287 20.3476 55.5263 20.3476C54.8609 20.3476 54.1946 20.6541 53.7107 21.1496C52.9235 21.9724 52.7825 23.0088 52.7825 24.0222C52.7825 26.3512 53.7708 30.1876 56.2134 30.1876C57.0005 30.1876 57.8074 29.7411 58.2713 28.9888ZM49.2829 30.5264L46.3813 31.3075C45.2042 31.521 44.1496 31.7088 43.0343 31.7088C37.4341 31.7088 35.3047 26.9037 35.3047 23.1401C35.3047 18.5489 38.3271 14.2896 43.5012 14.2896C44.5971 14.2896 45.6512 14.4784 46.6045 14.7863C48.126 15.2835 48.836 15.8983 49.2827 16.2538L47.5981 18.1236L46.8884 18.3121L47.3955 17.3651C46.706 16.5847 45.447 15.1411 43.054 15.1411C39.8483 15.1411 37.4335 17.9827 37.4335 22.1243C37.4335 26.5729 40.1932 30.7624 44.615 30.7624C45.9148 30.7624 46.5829 30.4552 47.192 30.1705V26.3607L44.1291 26.5499L45.7514 25.5311H50.0528L49.5258 26.1226C49.3827 26.2653 49.363 26.3132 49.3226 26.5007C49.3014 26.7142 49.2824 27.4012 49.2824 27.6377V30.5264H49.2829V30.5264Z" fill="#F9F9F9"/>
<path d="M85.8229 29.8446C85.1531 29.7734 85.0129 29.6321 85.0129 28.708V15.3117C85.017 15.2607 85.0196 15.2084 85.0237 15.1591C85.1056 14.3311 85.3082 14.1891 85.9378 13.7625H83.0357L81.5137 14.6147H83.0648V14.6253L83.0636 14.6168V29.2294C83.0636 29.7019 82.9835 29.7738 82.5163 30.483H86.1077L86.8584 29.9637C86.5138 29.9147 86.1684 29.8918 85.8229 29.8446ZM94.0783 30.0622C93.8575 30.2035 93.6358 30.3688 93.415 30.4854C92.749 30.8378 92.0642 30.9323 91.4586 30.9323C90.8154 30.9323 89.8072 30.8837 88.7787 30.015C87.3494 28.8387 86.7247 26.8173 86.7247 25.0549C86.7247 21.4121 89.2632 19.6258 91.3383 19.6258C92.0639 19.6258 92.8103 19.8369 93.4147 20.2844C94.4212 21.0587 94.683 22.0694 94.8232 22.6103L90.0896 24.8442L88.538 24.9851C89.0409 27.9703 90.7736 29.7084 92.6883 29.7084C93.7156 29.7084 94.4614 29.2862 95.1461 28.8873L94.0783 30.0622ZM92.185 23.0565C92.5672 22.8926 92.7686 22.7509 92.7686 22.4221C92.7686 21.4826 91.8624 20.4007 90.7735 20.4007C89.9667 20.4007 88.4567 21.1298 88.4567 23.6679C88.4567 24.0675 88.4972 24.4904 88.518 24.915L92.185 23.0565ZM96.023 19.7866V21.3375H95.8614V19.7866H95.4215V19.6258H96.4626V19.7866H96.023ZM97.8354 21.3375V19.7722H97.8281L97.4187 21.3375H97.2923L96.8793 19.7722H96.8741V21.3375H96.7274V19.6258H96.9787L97.3524 21.0094H97.3576L97.7257 19.6258H97.9806V21.3375H97.8354Z" fill="#F9F9F9"/>
<path d="M39.3347 9.68083H38.3265C38.3265 9.519 38.2309 9.06086 38.0397 8.30609H36.5842C36.3868 9.04855 36.288 9.50665 36.288 9.68083H35.3398C35.3398 9.58534 35.585 8.80115 36.0754 7.32859C36.5657 5.856 36.8109 5.04475 36.8109 4.8956H38.0018C38.0018 5.03519 38.2238 5.83444 38.6681 7.29369C39.1124 8.75293 39.3347 9.54842 39.3347 9.68083ZM37.8792 7.60401C37.52 6.33976 37.3405 5.65619 37.3405 5.55317H37.2901C37.2901 5.64866 37.1041 6.33223 36.7326 7.60401H37.8792ZM43.397 9.68083H42.619C42.619 9.58024 42.3302 9.04992 41.7527 8.08952C41.148 7.07745 40.8034 6.38564 40.7195 6.01307H40.6691C40.7216 6.54953 40.748 7.03469 40.748 7.46855C40.748 8.07381 40.7627 8.81147 40.792 9.6812H40.0169C40.0483 8.92164 40.0641 8.08749 40.0641 7.17841C40.0641 6.28408 40.0483 5.52312 40.0169 4.89597H40.9524C40.9524 5.02598 41.2116 5.54433 41.7304 6.45067C42.2827 7.41347 42.6 8.06662 42.6818 8.40979H42.729C42.6786 7.86339 42.6534 7.37341 42.6534 6.9396C42.6534 6.27587 42.6387 5.59429 42.6094 4.89597H43.3971C43.3675 5.50362 43.3531 6.26455 43.3531 7.17841C43.3528 8.0991 43.3674 8.93324 43.397 9.68083ZM47.9629 7.12264C47.9629 7.81854 47.7717 8.42621 47.3896 8.94559C47.0072 9.46531 46.4716 9.72465 45.7828 9.72465C45.4719 9.72465 45.0434 9.70991 44.4974 9.68049C44.5246 8.94046 44.5384 8.10594 44.5384 7.17773C44.5384 6.2861 44.5247 5.52517 44.4974 4.89526H45.0488C45.1391 4.89526 45.2734 4.89149 45.452 4.88431C45.6303 4.87712 45.747 4.87336 45.8015 4.87336C46.5597 4.87336 47.1092 5.09404 47.4509 5.53507C47.7922 5.97609 47.9629 6.50505 47.9629 7.12264ZM47.103 7.28066C47.103 6.81021 46.9854 6.41401 46.7502 6.09137C46.515 5.76941 46.1558 5.60829 45.6728 5.60829C45.5825 5.60829 45.4587 5.61923 45.3009 5.64147C45.3217 6.13174 45.3323 6.64359 45.3323 7.1777C45.3323 7.76345 45.3428 8.34407 45.3636 8.9199C45.4984 8.95158 45.6356 8.96763 45.773 8.9678C46.2247 8.9678 46.559 8.80394 46.7763 8.47682C46.9937 8.14973 47.103 7.75111 47.103 7.28066ZM52.1733 9.68083H51.2408C50.9971 8.81349 50.8103 8.27804 50.6801 8.0748C50.5498 7.87123 50.3399 7.76961 50.0501 7.76961C49.9281 7.76961 49.8117 7.77098 49.7005 7.77337C49.7005 8.40329 49.7099 9.03897 49.729 9.68083H48.8533C48.8805 8.94077 48.8944 8.10628 48.8944 7.17804C48.8944 6.28644 48.8806 5.52549 48.8533 4.8956H49.3982C49.4612 4.8956 49.5929 4.89184 49.7935 4.88465C49.9941 4.87747 50.1795 4.87367 50.3495 4.87367C51.3135 4.87367 51.7956 5.25824 51.7956 6.02775C51.7956 6.6378 51.5206 7.06274 50.9704 7.30327V7.35835C51.1824 7.42678 51.3684 7.62009 51.5279 7.93692C51.6871 8.25409 51.9024 8.83539 52.1733 9.68083ZM50.9921 6.29939C50.9921 5.81183 50.7231 5.56791 50.1856 5.56791C49.9882 5.56791 49.8137 5.58502 49.6627 5.61923C49.6859 5.99901 49.6973 6.4941 49.6973 7.10414C49.8129 7.10927 49.9105 7.11133 49.9903 7.11133C50.658 7.11167 50.9921 6.84103 50.9921 6.29939ZM56.689 7.19991C56.689 7.95197 56.4917 8.57567 56.0967 9.07076C55.7016 9.56553 55.2133 9.81321 54.6318 9.81321C54.0773 9.81321 53.613 9.58603 53.2394 9.13132C52.8655 8.67695 52.6786 8.0991 52.6786 7.3987C52.6786 6.64667 52.876 6.02294 53.271 5.52785C53.6658 5.03311 54.1541 4.7854 54.7359 4.7854C55.2905 4.7854 55.7544 5.0119 56.1283 5.46524C56.5023 5.91861 56.689 6.49649 56.689 7.19991ZM55.8198 7.30635C55.8198 6.79416 55.7075 6.3788 55.4829 6.06026C55.2579 5.74172 54.9808 5.58263 54.6512 5.58263C54.3444 5.58263 54.084 5.74309 53.8699 6.06402C53.6558 6.38495 53.5482 6.79042 53.5482 7.28069C53.5482 7.79014 53.6611 8.20482 53.8869 8.52475C54.1127 8.84466 54.3893 9.00444 54.7171 9.00444C55.0236 9.00444 55.2843 8.84329 55.4984 8.52096C55.7125 8.199 55.8198 7.79387 55.8198 7.30635ZM58.4704 9.68083H57.5788C57.6061 8.92127 57.6199 8.08712 57.6199 7.17804C57.6199 6.28368 57.6061 5.52275 57.5788 4.8956H58.4704C58.4431 5.51317 58.4293 6.27376 58.4293 7.17804C58.4293 8.10149 58.4431 8.93598 58.4704 9.68083ZM63.0365 7.12264C63.0365 7.81854 62.8453 8.42621 62.4632 8.94559C62.0808 9.46531 61.5453 9.72465 60.8564 9.72465C60.5455 9.72465 60.1171 9.70991 59.571 9.68049C59.5983 8.94046 59.6121 8.10594 59.6121 7.17773C59.6121 6.2861 59.5983 5.52517 59.571 4.89526H60.1223C60.2127 4.89526 60.347 4.89149 60.5256 4.88431C60.7039 4.87712 60.8206 4.87336 60.8752 4.87336C61.6333 4.87336 62.1829 5.09404 62.5245 5.53507C62.8658 5.97609 63.0365 6.50505 63.0365 7.12264ZM62.1767 7.28066C62.1767 6.81021 62.0591 6.41401 61.8238 6.09137C61.5886 5.76941 61.2294 5.60829 60.7464 5.60829C60.6561 5.60829 60.5323 5.61923 60.3745 5.64147C60.3953 6.13174 60.4059 6.64359 60.4059 7.1777C60.4059 7.76345 60.4165 8.34407 60.4373 8.9199C60.572 8.95158 60.7092 8.96762 60.8467 8.9678C61.2983 8.9678 61.6326 8.80394 61.8499 8.47682C62.0673 8.14973 62.1767 7.75111 62.1767 7.28066ZM69.0942 9.68083H68.086C68.086 9.519 67.9904 9.06086 67.7989 8.30609H66.3434C66.146 9.04855 66.0472 9.50665 66.0472 9.68083H65.0994C65.0994 9.58534 65.3445 8.80115 65.8349 7.32859C66.3252 5.856 66.5704 5.04475 66.5704 4.8956H67.7613C67.7613 5.03519 67.9836 5.83444 68.4276 7.29369C68.8717 8.75293 69.0942 9.54842 69.0942 9.68083ZM67.6388 7.60401C67.2795 6.33976 67.0997 5.65619 67.0997 5.55317H67.0493C67.0493 5.64866 66.8636 6.33223 66.4921 7.60401H67.6388ZM72.7689 6.14853C72.7689 6.73428 72.5823 7.16675 72.2096 7.44594C71.8368 7.72513 71.3796 7.86504 70.8377 7.86504C70.7389 7.86504 70.6688 7.86265 70.6265 7.85786C70.6265 8.31872 70.6379 8.92606 70.6611 9.68083H69.7757C69.803 8.97293 69.8168 8.13841 69.8168 7.17804C69.8168 6.296 69.803 5.53507 69.7757 4.8956H70.3239C70.4016 4.8956 70.5505 4.89184 70.7711 4.88465C70.9917 4.87747 71.1826 4.87367 71.3444 4.87367C71.7433 4.87367 72.0805 4.97905 72.3556 5.18981C72.6307 5.4006 72.7689 5.71982 72.7689 6.14853ZM71.9562 6.35074C71.9562 5.82655 71.658 5.56415 71.0615 5.56415C70.9122 5.56415 70.7547 5.5826 70.589 5.61923C70.6122 6.0825 70.6236 6.60666 70.6236 7.19241C70.6761 7.19755 70.7371 7.1996 70.8063 7.1996C71.5729 7.19991 71.9562 6.91699 71.9562 6.35074ZM76.5473 6.14853C76.5473 6.73428 76.3608 7.16675 75.9883 7.44594C75.6156 7.72513 75.1581 7.86504 74.6162 7.86504C74.5173 7.86504 74.4473 7.86265 74.405 7.85786C74.405 8.31872 74.4165 8.92606 74.4396 9.68083H73.5542C73.5815 8.97293 73.5953 8.13841 73.5953 7.17804C73.5953 6.296 73.5815 5.53507 73.5542 4.8956H74.1024C74.1801 4.8956 74.329 4.89184 74.5496 4.88465C74.7701 4.87747 74.961 4.87367 75.1229 4.87367C75.5217 4.87367 75.859 4.97905 76.1341 5.18981C76.4092 5.4006 76.5473 5.71982 76.5473 6.14853ZM75.7347 6.35074C75.7347 5.82655 75.4364 5.56415 74.8399 5.56415C74.6907 5.56415 74.5332 5.5826 74.3675 5.61923C74.3906 6.0825 74.4021 6.60666 74.4021 7.19241C74.4546 7.19755 74.5156 7.1996 74.5848 7.1996C75.3514 7.19991 75.7347 6.91699 75.7347 6.35074ZM82.725 7.19991C82.725 7.95197 82.5276 8.57567 82.1326 9.07076C81.7376 9.56584 81.2493 9.81321 80.6677 9.81321C80.1132 9.81321 79.6489 9.58603 79.2753 9.13132C78.9017 8.67695 78.7146 8.0991 78.7146 7.3987C78.7146 6.64667 78.9119 6.02294 79.307 5.52785C79.702 5.03277 80.1903 4.7854 80.7718 4.7854C81.3264 4.7854 81.7906 5.0119 82.1643 5.46524C82.5379 5.91861 82.725 6.49649 82.725 7.19991ZM81.8554 7.30635C81.8554 6.79416 81.7431 6.3788 81.5185 6.06026C81.2939 5.74172 81.0164 5.58263 80.6868 5.58263C80.38 5.58263 80.1196 5.74309 79.9055 6.06402C79.6914 6.38495 79.5841 6.79042 79.5841 7.28069C79.5841 7.79014 79.697 8.20482 79.9228 8.52475C80.1486 8.84466 80.4252 9.00444 80.7528 9.00444C81.0595 9.00444 81.3199 8.84329 81.534 8.52099C81.7484 8.199 81.8554 7.79387 81.8554 7.30635ZM86.9949 9.68083H86.2169C86.2169 9.58024 85.9283 9.04992 85.3506 8.08952C84.7459 7.07745 84.4013 6.38564 84.3174 6.01307H84.267C84.3195 6.54953 84.3459 7.03469 84.3459 7.46855C84.3459 8.07381 84.3606 8.81147 84.3899 9.6812H83.6148C83.6462 8.92164 83.662 8.08749 83.662 7.17841C83.662 6.28408 83.6462 5.52312 83.6148 4.89597H84.5503C84.5503 5.02598 84.8098 5.54433 85.3283 6.45067C85.8808 7.41347 86.1979 8.06662 86.2797 8.40979H86.3269C86.2765 7.86339 86.2513 7.37341 86.2513 6.9396C86.2513 6.27587 86.2366 5.59429 86.2073 4.89597H86.995C86.9653 5.50362 86.951 6.26455 86.951 7.17841C86.951 8.0991 86.9656 8.93324 86.9949 9.68083Z" fill="#F9F9FA"/>
<path d="M150 38.9183V38.9728C149.968 41.991 147.277 44.5 143.871 44.5H7.13125C3.70441 44.5003 1.00049 41.9608 1.00049 38.9183V6.08119C1.00049 3.03921 3.70435 0.5 7.13125 0.5H143.871C147.297 0.5 150 3.03908 150 6.08119V38.9183Z" stroke="#6B6B6B"/>
<defs>
<linearGradient id="paint0_linear_394_27124" x1="9.41483" y1="3.20245" x2="9.41483" y2="41.9684" gradientUnits="userSpaceOnUse">
<stop stop-color="#257CB0"/>
<stop offset="0.286" stop-color="#4A93B5"/>
<stop offset="0.767" stop-color="#78BCBB"/>
<stop offset="1" stop-color="#89CFBD"/>
</linearGradient>
<linearGradient id="paint1_linear_394_27124" x1="1.03738" y1="12.8238" x2="22.293" y2="12.8238" gradientUnits="userSpaceOnUse">
<stop stop-color="#52C1AD"/>
<stop offset="1" stop-color="#DEE89A"/>
</linearGradient>
<linearGradient id="paint2_linear_394_27124" x1="11.6648" y1="22.586" x2="11.6648" y2="42.1098" gradientUnits="userSpaceOnUse">
<stop stop-color="#EC413D"/>
<stop offset="0.167" stop-color="#DA4452"/>
<stop offset="0.575" stop-color="#B0487A"/>
<stop offset="0.862" stop-color="#954A92"/>
<stop offset="1" stop-color="#8A4A9D"/>
</linearGradient>
<linearGradient id="paint3_linear_394_27124" x1="23.9078" y1="17.3795" x2="23.9078" y2="27.7912" gradientUnits="userSpaceOnUse">
<stop stop-color="#F58879"/>
<stop offset="0.119" stop-color="#F69079"/>
<stop offset="0.713" stop-color="#FCB877"/>
<stop offset="1" stop-color="#FEC874"/>
</linearGradient>
</defs>
</svg>
