<svg width="355" height="597" viewBox="0 0 355 597" fill="none" xmlns="http://www.w3.org/2000/svg">
<g clip-path="url(#clip0_409_988)">
<g opacity="0.13">
<path d="M99.4383 262.395C100.776 293.092 107.466 323.582 121.085 353.899C124.923 358.452 131.569 360.828 137.204 358.072L202.321 326.217C207.33 323.767 209.773 317.748 209.389 312.309C208.742 311.018 209.045 310.066 208.399 308.774L207.105 306.191C183.281 241.477 210.075 168.882 271.435 138.865C337.804 106.398 418.826 135.897 452.771 203.699C487.038 272.147 460.67 353.377 394.927 385.538C353.603 405.753 307.246 401.902 269.794 380.03L267.572 378.705C266.622 378.365 265.35 377.38 264.4 377.041C258.704 375.004 253.048 376.163 249.332 381.196L238.508 396.942L229.599 390.046L209.485 418.375L218.394 425.271L206.944 441.323C203.228 446.356 204.279 454.685 208.097 457.64C234.157 475.44 263.609 487.56 293.928 493.629C341.619 503.258 392.904 498.267 439.237 475.601C553.818 419.55 598.639 278.649 539.479 160.479C480.318 42.3084 339.807 -7.92956 225.226 48.1223C142.578 88.5532 96.4156 173.838 99.4383 262.395Z" stroke="#383838" stroke-miterlimit="10"/>
<path d="M151.408 312.703L146.117 302.132L185.536 313.338L163.516 314.277L162.748 314.31L163.091 314.994L167.59 323.981L137.928 326.13L129.513 309.319L150.866 313.412L151.858 313.602L151.408 312.703Z" stroke="#383838"/>
</g>
</g>
<defs>
<clipPath id="clip0_409_988">
<rect width="301" height="525" fill="white" transform="translate(0.762695 102.753) rotate(-19.8631)"/>
</clipPath>
</defs>
</svg>
