<svg width="179" height="540" viewBox="0 0 179 540" fill="none" xmlns="http://www.w3.org/2000/svg">
<g clip-path="url(#clip0_409_1375)">
<g opacity="0.13">
<path d="M130.788 342.804C138.517 313.066 141.069 281.954 136.946 248.976C134.613 243.497 128.957 239.275 122.761 240.257L51.1634 251.6C45.6559 252.473 41.5541 257.509 40.3256 262.822C40.5648 264.246 39.9959 265.067 40.235 266.491L40.7132 269.34C44.4978 338.197 -2.41916 399.732 -69.8863 410.421C-142.861 421.983 -211.66 370.007 -224.213 295.228C-236.885 219.738 -187.841 149.823 -115.555 138.37C-70.1179 131.171 -26.9316 148.456 2.45291 180.357L4.18848 182.275C4.99647 182.878 5.924 184.193 6.73199 184.796C11.5799 188.415 17.3266 188.967 22.3559 185.246L37.3243 173.37L43.8171 182.577L71.3588 161.397L64.866 152.19L80.5228 140.205C85.5522 136.484 86.9909 128.214 84.2082 124.268C64.5196 99.6049 39.9211 79.3751 12.7174 64.676C-30.0485 41.4757 -80.5396 31.1973 -131.484 39.2686C-257.469 59.2285 -341.664 180.773 -319.787 311.101C-297.909 441.43 -178.326 530.689 -52.3411 510.729C38.5331 496.332 107.69 428.348 130.788 342.804Z" stroke="#383838" stroke-miterlimit="10"/>
<path d="M95.8691 279.46L97.8255 291.118L63.4303 268.838L84.7559 274.402L85.4993 274.596L85.3726 273.841L83.7094 263.93L112.695 270.579L115.807 289.12L96.5948 278.941L95.7027 278.469L95.8691 279.46Z" stroke="#383838"/>
</g>
</g>
<defs>
<clipPath id="clip0_409_1375">
<rect width="301" height="525" fill="white" transform="translate(178.271 524.374) rotate(177.202)"/>
</clipPath>
</defs>
</svg>
