<svg width="97" height="29" viewBox="0 0 97 29" fill="none" xmlns="http://www.w3.org/2000/svg">
<path d="M96.6952 25.0807C96.6952 27.2449 94.7824 29 92.423 29H4.30172C1.94213 29.0002 0.0285645 27.245 0.0285645 25.0807V3.91899C0.0285645 1.75497 1.94213 0 4.30172 0H92.4228C94.7822 0 96.695 1.75497 96.695 3.91899V25.0807H96.6952Z" fill="black"/>
<mask id="mask0_631_220" style="mask-type:luminance" maskUnits="userSpaceOnUse" x="0" y="2" width="19" height="25">
<path d="M14.0726 11.1998L9.71385 8.26398C9.71385 8.26398 1.77309 2.9146 1.30626 2.60017C0.839443 2.28575 0.374329 2.47626 0.374329 3.13332V26.2082C0.374329 26.7007 0.706753 26.9131 1.11233 26.6401C1.51773 26.3667 9.71385 20.8458 9.71385 20.8458L14.0724 17.9101C14.0724 17.9101 17.7707 15.4192 18.2622 15.0882C18.7538 14.7568 18.7066 14.3026 18.2917 14.042C17.8771 13.7812 14.0726 11.1998 14.0726 11.1998Z" fill="white"/>
</mask>
<g mask="url(#mask0_631_220)">
<path d="M0.374512 2.06348V27.046L11.1725 14.5548L0.374512 2.06348Z" fill="url(#paint0_linear_631_220)"/>
</g>
<mask id="mask1_631_220" style="mask-type:luminance" maskUnits="userSpaceOnUse" x="0" y="2" width="19" height="25">
<path d="M14.0726 11.1998L9.71385 8.26398C9.71385 8.26398 1.77309 2.9146 1.30626 2.60017C0.839443 2.28575 0.374329 2.47626 0.374329 3.13332V26.2082C0.374329 26.7007 0.706753 26.9131 1.11233 26.6401C1.51773 26.3667 9.71385 20.8458 9.71385 20.8458L14.0724 17.9101C14.0724 17.9101 17.7707 15.4192 18.2622 15.0882C18.7538 14.7568 18.7066 14.3026 18.2917 14.042C17.8771 13.7812 14.0726 11.1998 14.0726 11.1998Z" fill="white"/>
</mask>
<g mask="url(#mask1_631_220)">
<path d="M14.0726 11.2001L9.71384 8.26425L0.374512 1.97314V2.06399L11.1725 14.5554L14.0726 11.2001Z" fill="url(#paint1_linear_631_220)"/>
</g>
<mask id="mask2_631_220" style="mask-type:luminance" maskUnits="userSpaceOnUse" x="0" y="2" width="19" height="25">
<path d="M14.0726 11.1998L9.71385 8.26398C9.71385 8.26398 1.77309 2.9146 1.30626 2.60017C0.839443 2.28575 0.374329 2.47626 0.374329 3.13332V26.2082C0.374329 26.7007 0.706753 26.9131 1.11233 26.6401C1.51773 26.3667 9.71385 20.8458 9.71385 20.8458L14.0724 17.9101C14.0724 17.9101 17.7707 15.4192 18.2622 15.0882C18.7538 14.7568 18.7066 14.3026 18.2917 14.042C17.8771 13.7812 14.0726 11.1998 14.0726 11.1998Z" fill="white"/>
</mask>
<g mask="url(#mask2_631_220)">
<path d="M0.374512 27.0463V27.1372L9.71384 20.8458L14.0724 17.91L11.1725 14.5552L0.374512 27.0463Z" fill="url(#paint2_linear_631_220)"/>
</g>
<mask id="mask3_631_220" style="mask-type:luminance" maskUnits="userSpaceOnUse" x="0" y="2" width="19" height="25">
<path d="M14.0726 11.1998L9.71385 8.26398C9.71385 8.26398 1.77309 2.9146 1.30626 2.60017C0.839443 2.28575 0.374329 2.47626 0.374329 3.13332V26.2082C0.374329 26.7007 0.706753 26.9131 1.11233 26.6401C1.51773 26.3667 9.71385 20.8458 9.71385 20.8458L14.0724 17.9101C14.0724 17.9101 17.7707 15.4192 18.2622 15.0882C18.7538 14.7568 18.7066 14.3026 18.2917 14.042C17.8771 13.7812 14.0726 11.1998 14.0726 11.1998Z" fill="white"/>
</mask>
<g mask="url(#mask3_631_220)">
<path d="M14.0726 11.1997L11.1725 14.5549L14.0724 17.9097L19.0537 14.5547L14.0726 11.1997Z" fill="url(#paint3_linear_631_220)"/>
</g>
<path d="M68.3544 20.1286C67.9488 20.1286 67.5787 20.0413 67.2437 19.8669C66.9086 19.6923 66.627 19.4237 66.3996 19.0617H66.3316C66.3769 19.4859 66.3996 19.8881 66.3996 20.268V23.2577H65.4569V12.7307H66.2238L66.3543 13.7251H66.3996C66.6423 13.3271 66.9246 13.0402 67.2465 12.8634C67.5683 12.6866 67.9378 12.5981 68.3542 12.5981C69.1801 12.5981 69.8175 12.9276 70.2662 13.5859C70.7151 14.2443 70.9396 15.1682 70.9396 16.3567C70.9396 17.55 70.7113 18.4767 70.2553 19.138C69.7989 19.7985 69.1654 20.1286 68.3544 20.1286ZM68.2179 13.5328C67.5816 13.5328 67.1214 13.7385 66.8373 14.1493C66.5533 14.5603 66.4074 15.2145 66.3996 16.1117V16.3567C66.3996 17.3778 66.5455 18.108 66.8373 18.5479C67.1291 18.9878 67.5971 19.2072 68.2406 19.2072C68.7789 19.2072 69.2003 18.9534 69.5054 18.4452C69.81 17.9372 69.9625 17.2367 69.9625 16.3434C69.9625 15.4379 69.81 14.7424 69.5054 14.2587C69.2005 13.7745 68.7711 13.5328 68.2179 13.5328ZM73.1236 19.9959H72.1805V9.68123H73.1236V19.9959ZM78.5464 19.9959L78.3588 18.9618H78.3134C78.0027 19.4173 77.6931 19.7258 77.3843 19.8865C77.0757 20.0482 76.6901 20.1287 76.2282 20.1287C75.6108 20.1287 75.127 19.943 74.7764 19.5719C74.4258 19.2008 74.2508 18.6729 74.2508 17.9876C74.2508 16.5207 75.2566 15.7516 77.2679 15.6806L78.3251 15.6407V15.19C78.3251 14.6198 78.2198 14.1987 78.0095 13.9273C77.7995 13.6552 77.4627 13.5194 77.001 13.5194C76.4819 13.5194 75.8947 13.705 75.2396 14.0761L74.9497 13.2343C75.2568 13.0398 75.5927 12.8874 75.9585 12.777C76.3241 12.6665 76.6903 12.6112 77.0579 12.6112C77.8003 12.6112 78.3505 12.8032 78.7086 13.1878C79.0664 13.5723 79.2454 14.1888 79.2454 15.0375V19.9957H78.5465L78.5464 19.9959ZM76.4157 19.2206C77.0025 19.2206 77.4637 19.0328 77.7992 18.6573C78.1341 18.2818 78.3021 17.7557 78.3021 17.0792V16.423L77.3584 16.4691C76.6085 16.5006 76.0682 16.636 75.7363 16.8775C75.405 17.1182 75.2392 17.4929 75.2392 18.0011C75.2392 18.3986 75.3422 18.7016 75.549 18.9088C75.7556 19.1168 76.0442 19.2206 76.4157 19.2206ZM79.7929 12.7307H80.804L82.1678 16.8739C82.467 17.8198 82.6527 18.5025 82.7249 18.9225H82.7703C82.8196 18.6967 82.923 18.3115 83.0798 17.7652C83.2371 17.2192 83.7515 15.5415 84.6224 12.7307H85.6343L82.9578 21.0038C82.6928 21.8214 82.383 22.4015 82.0285 22.7445C81.6745 23.0867 81.2396 23.2577 80.725 23.2577C80.437 23.2577 80.1529 23.2202 79.8722 23.1452V22.2636C80.0805 22.3166 80.3137 22.3432 80.5713 22.3432C81.2192 22.3432 81.6809 21.919 81.9578 21.0704L82.3042 20.0364L79.7929 12.7307ZM50.8821 13.4058C51.1814 13.6948 51.8066 14.3021 51.8066 15.4577C51.8066 16.5816 51.2595 17.1145 50.7124 17.6152C50.543 17.8126 50.3476 18.026 50.3476 18.3607C50.3476 18.6943 50.5428 18.8769 50.6866 19.0138L51.1557 19.4385C51.7288 20.0009 52.2493 20.518 52.2493 21.5669C52.2493 22.9952 51.0639 24.4384 48.8239 24.4384C46.9349 24.4384 46.0236 23.3901 46.0236 22.265C46.0236 21.7181 46.257 20.9436 47.0266 20.4111C47.8336 19.8336 48.9285 19.7584 49.5143 19.7117C49.3314 19.4385 49.1235 19.1496 49.1235 18.6793C49.1235 18.4214 49.1889 18.2692 49.2537 18.086C49.1099 18.1014 48.9668 18.1166 48.8364 18.1166C47.4562 18.1166 46.6747 16.916 46.6747 15.7313C46.6747 15.0322 46.9486 14.2567 47.508 13.6951C48.2507 12.9809 49.1363 12.859 49.8404 12.859H52.5229L51.6893 13.406H50.8821L50.8821 13.4058ZM49.9569 20.1533C49.8528 20.1375 49.7874 20.1375 49.6577 20.1375C49.5406 20.1375 48.8362 20.1685 48.2898 20.3818C48.0033 20.5024 47.1695 20.8671 47.1695 21.9466C47.1695 23.025 48.0687 23.8012 49.4625 23.8012C50.7122 23.8012 51.3772 23.1007 51.3772 22.1594C51.3772 21.3828 50.9473 20.9742 49.9569 20.1533ZM50.3349 17.2655C50.6341 16.9156 50.6598 16.4299 50.6598 16.156C50.6598 15.0621 50.1 13.3602 49.0192 13.3602C48.6801 13.3602 48.3157 13.5575 48.1073 13.8618C47.8861 14.1808 47.8204 14.5907 47.8204 14.9863C47.8204 16.0043 48.3284 17.6913 49.4491 17.6913C49.7748 17.6913 50.1257 17.509 50.3349 17.2655ZM42.6818 19.9101C40.6144 19.9101 39.509 18.0287 39.509 16.3291C39.509 14.3413 40.9002 12.6429 42.8776 12.6429C44.7883 12.6429 45.9849 14.387 45.9849 16.2232C45.985 18.0128 44.8021 19.9101 42.6818 19.9101ZM44.3072 18.6813C44.6198 18.1953 44.6978 17.5888 44.6978 16.9965C44.6978 15.661 44.1516 13.1126 42.5389 13.1126C42.1099 13.1126 41.6809 13.3101 41.3689 13.6294C40.8616 14.1597 40.7701 14.8276 40.7701 15.4807C40.7701 16.9816 41.4074 19.4539 42.9814 19.4539C43.4884 19.4539 44.0087 19.1662 44.3072 18.6813ZM35.6333 19.9101C33.5655 19.9101 32.4599 18.0287 32.4599 16.3291C32.4599 14.3413 33.8516 12.6429 35.8285 12.6429C37.7398 12.6429 38.9361 14.387 38.9361 16.2232C38.9363 18.0128 37.7532 19.9101 35.6333 19.9101ZM37.259 18.6813C37.571 18.1953 37.6493 17.5888 37.6493 16.9965C37.6493 15.661 37.1027 13.1126 35.49 13.1126C35.0612 13.1126 34.6318 13.3101 34.3199 13.6294C33.8127 14.1597 33.7218 14.8276 33.7218 15.4807C33.7218 16.9816 34.3587 19.4539 35.9328 19.4539C36.4401 19.4539 36.96 19.1662 37.259 18.6813ZM31.4665 19.6722L29.5966 20.1756C28.838 20.3132 28.1584 20.4342 27.4396 20.4342C23.8306 20.4342 22.4583 17.3376 22.4583 14.9122C22.4583 11.9534 24.4061 9.2085 27.7405 9.2085C28.4468 9.2085 29.126 9.33021 29.7404 9.52865C30.7209 9.84905 31.1785 10.2453 31.4663 10.4744L30.3808 11.6793L29.9234 11.8008L30.2502 11.1905C29.8058 10.6876 28.9945 9.7573 27.4523 9.7573C25.3864 9.7573 23.8302 11.5885 23.8302 14.2576C23.8302 17.1244 25.6087 19.8244 28.4583 19.8244C29.2959 19.8244 29.7265 19.6264 30.119 19.4429V16.9877L28.1451 17.1096L29.1907 16.453H31.9626L31.623 16.8343C31.5308 16.9262 31.5181 16.9571 31.4921 17.0779C31.4784 17.2155 31.4662 17.6582 31.4662 17.8106V19.6722H31.4665V19.6722Z" fill="#F9F9F9"/>
<path d="M55.0144 19.2332C54.5827 19.1873 54.4924 19.0963 54.4924 18.5007V9.86753C54.495 9.83468 54.4967 9.80094 54.4993 9.76918C54.5521 9.23558 54.6827 9.14408 55.0884 8.86914H53.2182L52.2373 9.41839H53.2369V9.42522L53.2361 9.41971V18.8367C53.2361 19.1412 53.1845 19.1876 52.8835 19.6446H55.1979L55.6817 19.3099C55.4596 19.2784 55.237 19.2636 55.0144 19.2332ZM60.3345 19.3734C60.1922 19.4645 60.0494 19.571 59.907 19.6462C59.4778 19.8733 59.0365 19.9341 58.6462 19.9341C58.2318 19.9341 57.582 19.9028 56.9192 19.343C55.9981 18.5849 55.5955 17.2823 55.5955 16.1465C55.5955 13.7989 57.2314 12.6477 58.5688 12.6477C59.0363 12.6477 59.5173 12.7838 59.9068 13.0722C60.5555 13.5712 60.7242 14.2225 60.8146 14.5711L57.764 16.0107L56.7641 16.1015C57.0882 18.0253 58.2048 19.1454 59.4387 19.1454C60.1008 19.1454 60.5814 18.8733 61.0227 18.6163L60.3345 19.3734ZM59.1144 14.8586C59.3607 14.753 59.4905 14.6617 59.4905 14.4498C59.4905 13.8443 58.9065 13.1471 58.2048 13.1471C57.6848 13.1471 56.7117 13.617 56.7117 15.2527C56.7117 15.5102 56.7378 15.7827 56.7512 16.0563L59.1144 14.8586ZM61.5878 12.7514V13.7509H61.4836V12.7514H61.2001V12.6477H61.8711V12.7514H61.5878ZM62.7558 13.7509V12.7421H62.751L62.4872 13.7509H62.4057L62.1396 12.7421H62.1362V13.7509H62.0417V12.6477H62.2037L62.4445 13.5394H62.4479L62.685 12.6477H62.8493V13.7509H62.7558Z" fill="#F9F9F9"/>
<path d="M25.0551 6.23882H24.4053C24.4053 6.13452 24.3437 5.83928 24.2205 5.35288H23.2825C23.1553 5.83135 23.0916 6.12657 23.0916 6.23882H22.4806C22.4806 6.17728 22.6386 5.67191 22.9546 4.72293C23.2706 3.77393 23.4286 3.25112 23.4286 3.155H24.1961C24.1961 3.24496 24.3392 3.76003 24.6255 4.70044C24.9118 5.64084 25.0551 6.15349 25.0551 6.23882ZM24.1171 4.90042C23.8856 4.08568 23.7699 3.64516 23.7699 3.57877H23.7374C23.7374 3.64031 23.6176 4.08083 23.3781 4.90042H24.1171ZM27.673 6.23882H27.1716C27.1716 6.17399 26.9855 5.83223 26.6133 5.2133C26.2236 4.56109 26.0015 4.11525 25.9475 3.87515H25.915C25.9488 4.22086 25.9659 4.53352 25.9659 4.81313C25.9659 5.20318 25.9753 5.67856 25.9942 6.23906H25.4947C25.5149 5.74956 25.5251 5.212 25.5251 4.62615C25.5251 4.0498 25.5149 3.5594 25.4947 3.15524H26.0976C26.0976 3.23903 26.2646 3.57307 26.599 4.15716C26.9549 4.77763 27.1593 5.19855 27.2121 5.4197H27.2425C27.21 5.06758 27.1938 4.75181 27.1938 4.47225C27.1938 4.04451 27.1843 3.60527 27.1654 3.15524H27.673C27.6539 3.54684 27.6447 4.03721 27.6447 4.62615C27.6445 5.21948 27.6539 5.75704 27.673 6.23882ZM30.6155 4.59021C30.6155 5.03867 30.4923 5.43029 30.246 5.76499C29.9995 6.09992 29.6544 6.26706 29.2105 6.26706C29.0101 6.26706 28.734 6.25756 28.3821 6.2386C28.3997 5.76169 28.4086 5.22389 28.4086 4.62571C28.4086 4.0511 28.3997 3.56073 28.3821 3.15478H28.7374C28.7956 3.15478 28.8822 3.15236 28.9973 3.14773C29.1122 3.14309 29.1874 3.14067 29.2226 3.14067C29.7111 3.14067 30.0653 3.28289 30.2855 3.5671C30.5055 3.85132 30.6155 4.1922 30.6155 4.59021ZM30.0613 4.69204C30.0613 4.38886 29.9855 4.13353 29.834 3.92561C29.6824 3.71812 29.4509 3.61429 29.1396 3.61429C29.0814 3.61429 29.0016 3.62134 28.8999 3.63568C28.9134 3.95162 28.9202 4.28148 28.9202 4.62569C28.9202 5.00317 28.927 5.37735 28.9404 5.74844C29.0272 5.76886 29.1156 5.7792 29.2042 5.77931C29.4953 5.77931 29.7107 5.67371 29.8508 5.4629C29.9908 5.25211 30.0613 4.99522 30.0613 4.69204ZM33.3288 6.23882H32.7278C32.5708 5.67987 32.4504 5.3348 32.3665 5.20382C32.2826 5.07263 32.1473 5.00714 31.9605 5.00714C31.8819 5.00714 31.8069 5.00802 31.7353 5.00957C31.7353 5.41551 31.7413 5.82517 31.7536 6.23882H31.1893C31.2068 5.76189 31.2157 5.22411 31.2157 4.62591C31.2157 4.05132 31.2068 3.56093 31.1893 3.155H31.5404C31.581 3.155 31.6659 3.15258 31.7952 3.14795C31.9244 3.14332 32.0439 3.14087 32.1535 3.14087C32.7747 3.14087 33.0854 3.38871 33.0854 3.88461C33.0854 4.27775 32.9082 4.5516 32.5536 4.70661V4.74211C32.6903 4.78621 32.8101 4.91079 32.9129 5.11496C33.0155 5.31936 33.1542 5.69398 33.3288 6.23882ZM32.5676 4.05967C32.5676 3.74546 32.3943 3.58827 32.0478 3.58827C31.9207 3.58827 31.8082 3.59929 31.7109 3.62134C31.7258 3.86609 31.7332 4.18514 31.7332 4.57828C31.8076 4.58159 31.8706 4.58291 31.922 4.58291C32.3523 4.58313 32.5676 4.40872 32.5676 4.05967ZM36.239 4.64C36.239 5.12467 36.1118 5.52661 35.8572 5.84566C35.6026 6.16451 35.288 6.32413 34.9132 6.32413C34.5558 6.32413 34.2566 6.17772 34.0158 5.88469C33.7749 5.59187 33.6545 5.21948 33.6545 4.76811C33.6545 4.28347 33.7817 3.88151 34.0363 3.56245C34.2906 3.24362 34.6053 3.08398 34.9803 3.08398C35.3376 3.08398 35.6367 3.22995 35.8776 3.5221C36.1186 3.81428 36.239 4.18669 36.239 4.64ZM35.6788 4.70859C35.6788 4.37852 35.6064 4.11084 35.4616 3.90556C35.3167 3.70028 35.1381 3.59775 34.9257 3.59775C34.728 3.59775 34.5601 3.70116 34.4222 3.90799C34.2842 4.11481 34.2148 4.37611 34.2148 4.69206C34.2148 5.02037 34.2876 5.28761 34.4331 5.49379C34.5786 5.69995 34.7569 5.80292 34.9682 5.80292C35.1657 5.80292 35.3337 5.69907 35.4717 5.49135C35.6096 5.28386 35.6788 5.02278 35.6788 4.70859ZM37.3869 6.23882H36.8124C36.83 5.74932 36.8388 5.21176 36.8388 4.62591C36.8388 4.04954 36.83 3.55916 36.8124 3.155H37.3869C37.3694 3.55299 37.3605 4.04315 37.3605 4.62591C37.3605 5.22102 37.3694 5.7588 37.3869 6.23882ZM40.3296 4.59021C40.3296 5.03867 40.2063 5.43029 39.9601 5.76499C39.7136 6.09992 39.3685 6.26706 38.9246 6.26706C38.7242 6.26706 38.4481 6.25756 38.0962 6.2386C38.1138 5.76169 38.1227 5.22389 38.1227 4.62571C38.1227 4.0511 38.1138 3.56073 38.0962 3.15478H38.4515C38.5097 3.15478 38.5963 3.15236 38.7114 3.14773C38.8263 3.14309 38.9015 3.14067 38.9367 3.14067C39.4252 3.14067 39.7794 3.28289 39.9996 3.5671C40.2196 3.85132 40.3296 4.1922 40.3296 4.59021ZM39.7754 4.69204C39.7754 4.38886 39.6996 4.13353 39.5481 3.92561C39.3965 3.71812 39.165 3.61429 38.8537 3.61429C38.7955 3.61429 38.7157 3.62134 38.614 3.63568C38.6275 3.95162 38.6343 4.28148 38.6343 4.62569C38.6343 5.00317 38.6411 5.37735 38.6545 5.74844C38.7413 5.76886 38.8297 5.7792 38.9183 5.77931C39.2093 5.77931 39.4248 5.67371 39.5649 5.4629C39.7049 5.25211 39.7754 4.99522 39.7754 4.69204ZM44.2334 6.23882H43.5837C43.5837 6.13452 43.5221 5.83928 43.3986 5.35288H42.4607C42.3335 5.83135 42.2698 6.12657 42.2698 6.23882H41.6589C41.6589 6.17728 41.8169 5.67191 42.1329 4.72293C42.4489 3.77393 42.6069 3.25112 42.6069 3.155H43.3744C43.3744 3.24496 43.5177 3.76003 43.8038 4.70044C44.09 5.64084 44.2334 6.15349 44.2334 6.23882ZM43.2954 4.90042C43.0639 4.08568 42.9481 3.64516 42.9481 3.57877H42.9156C42.9156 3.64031 42.7959 4.08083 42.5565 4.90042H43.2954ZM46.6015 3.96245C46.6015 4.33993 46.4813 4.61863 46.2411 4.79856C46.0009 4.97848 45.7062 5.06864 45.357 5.06864C45.2933 5.06864 45.2481 5.0671 45.2209 5.06401C45.2209 5.36102 45.2283 5.75241 45.2432 6.23882H44.6726C44.6902 5.78262 44.6991 5.24482 44.6991 4.62591C44.6991 4.05748 44.6902 3.5671 44.6726 3.155H45.0258C45.0759 3.155 45.1719 3.15258 45.3141 3.14795C45.4562 3.14332 45.5792 3.14087 45.6835 3.14087C45.9406 3.14087 46.1579 3.20878 46.3352 3.34461C46.5125 3.48045 46.6015 3.68617 46.6015 3.96245ZM46.0778 4.09276C46.0778 3.75494 45.8856 3.58584 45.5012 3.58584C45.405 3.58584 45.3035 3.59773 45.1967 3.62134C45.2117 3.91989 45.219 4.25769 45.219 4.63517C45.2528 4.63848 45.2922 4.6398 45.3368 4.6398C45.8308 4.64 46.0778 4.45767 46.0778 4.09276ZM49.0365 3.96245C49.0365 4.33993 48.9163 4.61863 48.6763 4.79856C48.4361 4.97848 48.1413 5.06864 47.792 5.06864C47.7283 5.06864 47.6831 5.0671 47.6559 5.06401C47.6559 5.36102 47.6633 5.75241 47.6782 6.23882H47.1076C47.1252 5.78262 47.1341 5.24482 47.1341 4.62591C47.1341 4.05748 47.1252 3.5671 47.1076 3.155H47.4609C47.511 3.155 47.607 3.15258 47.7491 3.14795C47.8912 3.14332 48.0142 3.14087 48.1186 3.14087C48.3756 3.14087 48.593 3.20878 48.7702 3.34461C48.9475 3.48045 49.0365 3.68617 49.0365 3.96245ZM48.5128 4.09276C48.5128 3.75494 48.3206 3.58584 47.9362 3.58584C47.84 3.58584 47.7385 3.59773 47.6317 3.62134C47.6467 3.91989 47.654 4.25769 47.654 4.63517C47.6879 4.63848 47.7272 4.6398 47.7718 4.6398C48.2658 4.64 48.5128 4.45767 48.5128 4.09276ZM53.0177 4.64C53.0177 5.12467 52.8905 5.52661 52.6359 5.84566C52.3814 6.16471 52.0667 6.32413 51.6919 6.32413C51.3345 6.32413 51.0353 6.17772 50.7946 5.88469C50.5538 5.59187 50.4332 5.21948 50.4332 4.76811C50.4332 4.28347 50.5604 3.88151 50.815 3.56245C51.0695 3.2434 51.3842 3.08398 51.759 3.08398C52.1164 3.08398 52.4155 3.22995 52.6563 3.5221C52.8971 3.81428 53.0177 4.18669 53.0177 4.64ZM52.4573 4.70859C52.4573 4.37852 52.3849 4.11084 52.2402 3.90556C52.0954 3.70028 51.9166 3.59775 51.7042 3.59775C51.5065 3.59775 51.3387 3.70116 51.2007 3.90799C51.0627 4.11481 50.9936 4.37611 50.9936 4.69206C50.9936 5.02037 51.0663 5.28761 51.2118 5.49379C51.3573 5.69995 51.5356 5.80292 51.7467 5.80292C51.9444 5.80292 52.1122 5.69907 52.2502 5.49136C52.3883 5.28386 52.4573 5.02278 52.4573 4.70859ZM55.7694 6.23882H55.268C55.268 6.17399 55.082 5.83223 54.7097 5.2133C54.32 4.56109 54.0979 4.11525 54.0439 3.87515H54.0114C54.0452 4.22086 54.0623 4.53352 54.0623 4.81313C54.0623 5.20318 54.0717 5.67856 54.0906 6.23906H53.5911C53.6113 5.74956 53.6215 5.212 53.6215 4.62615C53.6215 4.0498 53.6114 3.5594 53.5911 3.15524H54.194C54.194 3.23903 54.3612 3.57307 54.6954 4.15716C55.0515 4.77763 55.2558 5.19855 55.3085 5.4197H55.3389C55.3064 5.06758 55.2902 4.75181 55.2902 4.47225C55.2902 4.04451 55.2807 3.60527 55.2618 3.15524H55.7694C55.7504 3.54684 55.7411 4.03721 55.7411 4.62615C55.7411 5.21948 55.7505 5.75704 55.7694 6.23882Z" fill="#F9F9FA"/>
<path d="M96.195 25.1151C96.1747 26.9485 94.5345 28.5 92.423 28.5H4.30172H4.30168C2.17673 28.5002 0.528564 26.9291 0.528564 25.0807V3.91899C0.528564 2.07095 2.17667 0.5 4.30172 0.5H92.4228C94.5475 0.5 96.195 2.07083 96.195 3.91899V25.0807V25.1151Z" stroke="#6B6B6B"/>
<defs>
<linearGradient id="paint0_linear_631_220" x1="5.77349" y1="2.06351" x2="5.77349" y2="27.046" gradientUnits="userSpaceOnUse">
<stop stop-color="#257CB0"/>
<stop offset="0.286" stop-color="#4A93B5"/>
<stop offset="0.767" stop-color="#78BCBB"/>
<stop offset="1" stop-color="#89CFBD"/>
</linearGradient>
<linearGradient id="paint1_linear_631_220" x1="0.374685" y1="8.26407" x2="14.0728" y2="8.26407" gradientUnits="userSpaceOnUse">
<stop stop-color="#52C1AD"/>
<stop offset="1" stop-color="#DEE89A"/>
</linearGradient>
<linearGradient id="paint2_linear_631_220" x1="7.22345" y1="14.5552" x2="7.22345" y2="27.1372" gradientUnits="userSpaceOnUse">
<stop stop-color="#EC413D"/>
<stop offset="0.167" stop-color="#DA4452"/>
<stop offset="0.575" stop-color="#B0487A"/>
<stop offset="0.862" stop-color="#954A92"/>
<stop offset="1" stop-color="#8A4A9D"/>
</linearGradient>
<linearGradient id="paint3_linear_631_220" x1="15.1132" y1="11.1997" x2="15.1132" y2="17.9096" gradientUnits="userSpaceOnUse">
<stop stop-color="#F58879"/>
<stop offset="0.119" stop-color="#F69079"/>
<stop offset="0.713" stop-color="#FCB877"/>
<stop offset="1" stop-color="#FEC874"/>
</linearGradient>
</defs>
</svg>
