<svg width="24" height="16" viewBox="0 0 24 16" fill="none" xmlns="http://www.w3.org/2000/svg">
<path d="M21.4566 0.441895H2.2085C1.78309 0.441895 1.37511 0.597888 1.0743 0.87556C0.773486 1.15323 0.604492 1.52983 0.604492 1.92252V13.7675C0.604492 14.1602 0.773486 14.5368 1.0743 14.8145C1.37511 15.0922 1.78309 15.2481 2.2085 15.2481H21.4566C21.882 15.2481 22.29 15.0922 22.5908 14.8145C22.8916 14.5368 23.0606 14.1602 23.0606 13.7675V1.92252C23.0606 1.52983 22.8916 1.15323 22.5908 0.87556C22.29 0.597888 21.882 0.441895 21.4566 0.441895ZM19.6922 1.92252L11.8326 6.94184L3.97291 1.92252H19.6922ZM2.2085 13.7675V2.5962L11.3754 8.45208C11.5097 8.53805 11.6692 8.58412 11.8326 8.58412C11.996 8.58412 12.1555 8.53805 12.2897 8.45208L21.4566 2.5962V13.7675H2.2085Z" fill="white"/>
</svg>
