<svg width="25" height="26" viewBox="0 0 25 26" fill="none" xmlns="http://www.w3.org/2000/svg">
<path d="M12.5 25.5C15.8387 25.5 18.9777 24.1996 21.3383 21.8387C23.6996 19.4777 25 16.3387 25 13C25 9.66133 23.6996 6.52227 21.3387 4.16172C18.9777 1.80039 15.8387 0.5 12.5 0.5C9.16133 0.5 6.02227 1.80039 3.66172 4.16133C1.30039 6.52227 0 9.66133 0 13C0 16.3387 1.30039 19.4777 3.66133 21.8383C6.02227 24.1996 9.16133 25.5 12.5 25.5ZM4.76641 5.26641C6.83203 3.20039 9.57852 2.0625 12.5 2.0625C15.4215 2.0625 18.168 3.20039 20.2336 5.26641C22.2996 7.33203 23.4375 10.0785 23.4375 13C23.4375 15.9215 22.2996 18.668 20.2336 20.7336C18.168 22.7996 15.4215 23.9375 12.5 23.9375C9.57852 23.9375 6.83203 22.7996 4.76641 20.7336C2.70039 18.668 1.5625 15.9215 1.5625 13C1.5625 10.0785 2.70039 7.33203 4.76641 5.26641Z" fill="#2D5632"/>
<path d="M10.4151 18.625C10.4225 18.625 10.43 18.625 10.4374 18.625C10.6297 18.625 10.8142 18.5468 10.9481 18.4076L19.8022 9.19926C20.0732 8.91734 20.0647 8.46897 19.7824 8.19768C19.5001 7.92639 19.0521 7.9356 18.7808 8.21751L10.471 16.8599L7.08238 12.855C6.8295 12.556 6.38255 12.5189 6.08398 12.7717C5.78542 13.0243 5.74824 13.4716 6.00076 13.7701L9.89658 18.3743C10.0262 18.5276 10.2146 18.625 10.4151 18.625Z" fill="#2D5632"/>
</svg>
