<svg width="45" height="45" viewBox="0 0 45 45" fill="none" xmlns="http://www.w3.org/2000/svg">
<path d="M43.5437 43.5906H41.242V41.2889C41.242 40.8998 40.9266 40.5843 40.5374 40.5843C40.1482 40.5843 39.8328 40.8997 39.8328 41.2889V43.5906H36.7326V42.6597C38.0252 42.3427 38.9873 41.1748 38.9873 39.7857C38.9873 39.0087 38.6927 37.6077 38.2869 36.4544C37.6632 34.6819 36.9243 33.8202 36.0279 33.8202C35.1315 33.8202 34.3927 34.6819 33.769 36.4544C33.3631 37.6077 33.0686 39.0087 33.0686 39.7857C33.0686 41.1748 34.0307 42.3426 35.3232 42.6597V43.5906H30.7199V42.6597C32.0125 42.3427 32.9745 41.1748 32.9745 39.7857C32.9745 39.0087 32.68 37.6077 32.2741 36.4544C31.8219 35.1694 31.3092 34.3634 30.7198 34.0172V17.192H39.8325V37.5311C39.8325 37.9202 40.1479 38.2357 40.5371 38.2357C40.9263 38.2357 41.2417 37.9203 41.2417 37.5311V16.4874C41.2417 16.0983 40.9264 15.7828 40.5371 15.7828H30.7201V11.2265C30.7201 10.8374 30.4048 10.5219 30.0155 10.5219H28.4654V8.22019C28.4654 7.8311 28.1501 7.51557 27.7608 7.51557H24.7076V5.21399C24.7076 4.8249 24.3922 4.50938 24.003 4.50938H22.8287V0.704615C22.8288 0.315438 22.5133 0 22.1241 0C21.735 0 21.4195 0.315438 21.4195 0.704615V4.50938H20.2452C19.856 4.50938 19.5406 4.82482 19.5406 5.21399V7.51566H16.4874C16.0982 7.51566 15.7828 7.8311 15.7828 8.22027V10.5219H14.2327C13.8435 10.5219 13.528 10.8374 13.528 11.2266V19.5407H3.7109C3.32172 19.5407 3.00628 19.8561 3.00628 20.2453V23.2516C3.00628 23.6407 3.32163 23.9562 3.7109 23.9562C4.10007 23.9562 4.41551 23.6408 4.41551 23.2516V20.9499H13.5282V34.0173C12.9389 34.3636 12.4261 35.1696 11.9739 36.4546C11.568 37.6079 11.2735 39.0089 11.2735 39.7859C11.2735 41.1749 12.2356 42.3427 13.5281 42.6598V43.5908H8.9248V42.6598C10.2174 42.3429 11.1794 41.1749 11.1794 39.7859C11.1794 39.0089 10.8849 37.6079 10.479 36.4546C9.85538 34.6821 9.11649 33.8204 8.2201 33.8204C7.32371 33.8204 6.5849 34.6821 5.96115 36.4546C5.55527 37.6079 5.26075 39.0089 5.26075 39.7859C5.26075 41.1749 6.22288 42.3427 7.5154 42.6598V43.5908H4.41551V27.0094C4.41551 26.6203 4.10016 26.3048 3.7109 26.3048C3.32172 26.3048 3.00628 26.6202 3.00628 27.0094V43.5908H0.704615C0.315438 43.5908 0 43.9062 0 44.2954C0 44.6845 0.31535 45 0.704615 45H43.5436C43.9328 45 44.2482 44.6846 44.2482 44.2954C44.2482 43.906 43.9328 43.5906 43.5437 43.5906ZM6.67016 39.7857C6.67016 39.2925 6.87898 38.1544 7.22843 37.1037C7.66507 35.7907 8.07367 35.3278 8.22019 35.2394C8.3667 35.3278 8.77521 35.7907 9.21194 37.1037C9.56139 38.1544 9.77022 39.2925 9.77022 39.7857C9.77022 40.6405 9.07483 41.3359 8.2201 41.3359C7.36537 41.3359 6.67016 40.6405 6.67016 39.7857ZM20.9498 5.91852H23.2984V7.51557H20.9498V5.91852ZM17.192 8.9248H27.0563V10.5219H17.192V8.9248ZM12.6826 39.7857C12.6826 39.2925 12.8915 38.1544 13.2409 37.1037C13.6775 35.7907 14.0861 35.3278 14.2327 35.2394C14.3792 35.3278 14.7877 35.7907 15.2244 37.1037C15.5739 38.1544 15.7827 39.2925 15.7827 39.7857C15.7827 40.6405 15.0873 41.3359 14.2326 41.3359C13.3778 41.3359 12.6826 40.6405 12.6826 39.7857ZM29.3109 43.5906H25.4593V35.2765C25.4593 34.8874 25.144 34.5718 24.7547 34.5718C24.3655 34.5718 24.0501 34.8873 24.0501 35.2765V43.5906H22.8288V35.2765C22.8288 34.8874 22.5134 34.5718 22.1241 34.5718C21.735 34.5718 21.4195 34.8873 21.4195 35.2765V43.5906H20.1985V35.2765C20.1985 34.8874 19.8831 34.5718 19.4939 34.5718C19.1047 34.5718 18.7892 34.8873 18.7892 35.2765V43.5906H14.9374V42.6597C16.23 42.3427 17.192 41.1748 17.192 39.7857C17.192 39.0087 16.8975 37.6077 16.4916 36.4544C16.0394 35.1694 15.5267 34.3634 14.9373 34.0172V11.931H29.3109V34.0172C28.7216 34.3634 28.2088 35.1694 27.7566 36.4544C27.3507 37.6077 27.0562 39.0087 27.0562 39.7857C27.0562 41.1748 28.0183 42.3426 29.3108 42.6597L29.3109 43.5906ZM28.4654 39.7857C28.4654 39.2925 28.6742 38.1544 29.0237 37.1037C29.4603 35.7907 29.8689 35.3278 30.0154 35.2394C30.162 35.3278 30.5705 35.7907 31.0072 37.1037C31.3566 38.1544 31.5655 39.2925 31.5655 39.7857C31.5655 40.6405 30.8701 41.3359 30.0154 41.3359C29.1606 41.3359 28.4654 40.6405 28.4654 39.7857ZM34.478 39.7857C34.478 39.2925 34.6868 38.1544 35.0363 37.1037C35.4729 35.7907 35.8815 35.3278 36.028 35.2394C36.1745 35.3278 36.583 35.7907 37.0198 37.1037C37.3692 38.1544 37.578 39.2925 37.578 39.7857C37.578 40.6405 36.8826 41.3359 36.0279 41.3359C35.1733 41.3359 34.478 40.6405 34.478 39.7857Z" fill="#2D5632"/>
<path d="M5.96548 21.7952C5.5763 21.7952 5.26086 22.1106 5.26086 22.4998V27.0092C5.26086 27.3982 5.57621 27.7138 5.96548 27.7138C6.35466 27.7138 6.67009 27.3983 6.67009 27.0092V22.4998C6.67009 22.1107 6.35474 21.7952 5.96548 21.7952Z" fill="#2D5632"/>
<path d="M8.97183 21.7952C8.58265 21.7952 8.26721 22.1106 8.26721 22.4998V27.0092C8.26721 27.3982 8.58256 27.7138 8.97183 27.7138C9.36109 27.7138 9.67644 27.3983 9.67644 27.0092V22.4998C9.67644 22.1107 9.361 21.7952 8.97183 21.7952Z" fill="#2D5632"/>
<path d="M11.9781 21.7952C11.5889 21.7952 11.2734 22.1106 11.2734 22.4998V27.0092C11.2734 27.3982 11.5888 27.7138 11.9781 27.7138C12.3673 27.7138 12.6827 27.3983 12.6827 27.0092V22.4998C12.6826 22.1107 12.3672 21.7952 11.9781 21.7952Z" fill="#2D5632"/>
<path d="M5.96548 29.3109C5.5763 29.3109 5.26086 29.6264 5.26086 30.0155V32.2702C5.26086 32.6593 5.57621 32.9748 5.96548 32.9748C6.35466 32.9748 6.67009 32.6594 6.67009 32.2702V30.0155C6.67009 29.6264 6.35474 29.3109 5.96548 29.3109Z" fill="#2D5632"/>
<path d="M8.97183 29.3109C8.58265 29.3109 8.26721 29.6264 8.26721 30.0155V32.2702C8.26721 32.6593 8.58256 32.9748 8.97183 32.9748C9.36109 32.9748 9.67644 32.6594 9.67644 32.2702V30.0155C9.67644 29.6264 9.361 29.3109 8.97183 29.3109Z" fill="#2D5632"/>
<path d="M11.9781 29.3109C11.5889 29.3109 11.2734 29.6264 11.2734 30.0155V32.2702C11.2734 32.6593 11.5888 32.9748 11.9781 32.9748C12.3673 32.9748 12.6827 32.6594 12.6827 32.2702V30.0155C12.6826 29.6264 12.3672 29.3109 11.9781 29.3109Z" fill="#2D5632"/>
<path d="M32.2702 29.3109C31.881 29.3109 31.5656 29.6264 31.5656 30.0155V32.2702C31.5656 32.6593 31.8809 32.9748 32.2702 32.9748C32.6593 32.9748 32.9748 32.6594 32.9748 32.2702V30.0155C32.9748 29.6264 32.6594 29.3109 32.2702 29.3109Z" fill="#2D5632"/>
<path d="M35.2764 29.3109C34.8872 29.3109 34.5718 29.6264 34.5718 30.0155V32.2702C34.5718 32.6593 34.8871 32.9748 35.2764 32.9748C35.6656 32.9748 35.981 32.6594 35.981 32.2702V30.0155C35.981 29.6264 35.6657 29.3109 35.2764 29.3109Z" fill="#2D5632"/>
<path d="M38.2827 29.3109C37.8936 29.3109 37.5781 29.6264 37.5781 30.0155V32.2702C37.5781 32.6593 37.8935 32.9748 38.2827 32.9748C38.6719 32.9748 38.9874 32.6594 38.9874 32.2702V30.0155C38.9873 29.6264 38.6719 29.3109 38.2827 29.3109Z" fill="#2D5632"/>
<path d="M32.2702 18.0375C31.881 18.0375 31.5656 18.3529 31.5656 18.7421V19.4936C31.5656 19.8827 31.8809 20.1983 32.2702 20.1983C32.6593 20.1983 32.9748 19.8828 32.9748 19.4936V18.7421C32.9748 18.3529 32.6594 18.0375 32.2702 18.0375Z" fill="#2D5632"/>
<path d="M35.2764 18.0375C34.8872 18.0375 34.5718 18.3529 34.5718 18.7421V19.4936C34.5718 19.8827 34.8871 20.1983 35.2764 20.1983C35.6656 20.1983 35.981 19.8828 35.981 19.4936V18.7421C35.981 18.3529 35.6657 18.0375 35.2764 18.0375Z" fill="#2D5632"/>
<path d="M38.2827 18.0375C37.8936 18.0375 37.5781 18.3529 37.5781 18.7421V19.4936C37.5781 19.8827 37.8935 20.1983 38.2827 20.1983C38.6719 20.1983 38.9874 19.8828 38.9874 19.4936V18.7421C38.9873 18.3529 38.6719 18.0375 38.2827 18.0375Z" fill="#2D5632"/>
<path d="M32.2702 21.7952C31.881 21.7952 31.5656 22.1106 31.5656 22.4998V23.2513C31.5656 23.6404 31.8809 23.9559 32.2702 23.9559C32.6593 23.9559 32.9748 23.6405 32.9748 23.2513V22.4998C32.9748 22.1107 32.6594 21.7952 32.2702 21.7952Z" fill="#2D5632"/>
<path d="M35.2764 21.7952C34.8872 21.7952 34.5718 22.1106 34.5718 22.4998V23.2513C34.5718 23.6404 34.8871 23.9559 35.2764 23.9559C35.6656 23.9559 35.981 23.6405 35.981 23.2513V22.4998C35.981 22.1107 35.6657 21.7952 35.2764 21.7952Z" fill="#2D5632"/>
<path d="M38.2827 21.7952C37.8936 21.7952 37.5781 22.1106 37.5781 22.4998V23.2513C37.5781 23.6404 37.8935 23.9559 38.2827 23.9559C38.6719 23.9559 38.9874 23.6405 38.9874 23.2513V22.4998C38.9873 22.1107 38.6719 21.7952 38.2827 21.7952Z" fill="#2D5632"/>
<path d="M32.2702 25.5531C31.881 25.5531 31.5656 25.8685 31.5656 26.2577V27.0093C31.5656 27.3984 31.8809 27.7139 32.2702 27.7139C32.6593 27.7139 32.9748 27.3984 32.9748 27.0093V26.2577C32.9748 25.8685 32.6594 25.5531 32.2702 25.5531Z" fill="#2D5632"/>
<path d="M35.2764 25.5531C34.8872 25.5531 34.5718 25.8685 34.5718 26.2577V27.0093C34.5718 27.3984 34.8871 27.7139 35.2764 27.7139C35.6656 27.7139 35.981 27.3984 35.981 27.0093V26.2577C35.981 25.8685 35.6657 25.5531 35.2764 25.5531Z" fill="#2D5632"/>
<path d="M38.2827 25.5531C37.8936 25.5531 37.5781 25.8685 37.5781 26.2577V27.0093C37.5781 27.3984 37.8935 27.7139 38.2827 27.7139C38.6719 27.7139 38.9874 27.3984 38.9874 27.0093V26.2577C38.9873 25.8685 38.6719 25.5531 38.2827 25.5531Z" fill="#2D5632"/>
<path d="M22.124 30.8141C21.7349 30.8141 21.4194 31.1295 21.4194 31.5187V32.2703C21.4194 32.6593 21.7348 32.9749 22.124 32.9749C22.5132 32.9749 22.8287 32.6594 22.8287 32.2703V31.5187C22.8287 31.1295 22.5132 30.8141 22.124 30.8141Z" fill="#2D5632"/>
<path d="M19.4938 30.8141C19.1046 30.8141 18.7892 31.1295 18.7892 31.5187V32.2703C18.7892 32.6593 19.1045 32.9749 19.4938 32.9749C19.8831 32.9749 20.1984 32.6594 20.1984 32.2703V31.5187C20.1984 31.1295 19.883 30.8141 19.4938 30.8141Z" fill="#2D5632"/>
<path d="M24.7547 30.8141C24.3655 30.8141 24.05 31.1295 24.05 31.5187V32.2703C24.05 32.6593 24.3654 32.9749 24.7547 32.9749C25.1438 32.9749 25.4593 32.6594 25.4593 32.2703V31.5187C25.4593 31.1295 25.1438 30.8141 24.7547 30.8141Z" fill="#2D5632"/>
<path d="M16.4875 30.8141C16.0983 30.8141 15.7828 31.1295 15.7828 31.5187V32.2703C15.7828 32.6593 16.0982 32.9749 16.4875 32.9749C16.8767 32.9749 17.1921 32.6594 17.1921 32.2703V31.5187C17.1921 31.1295 16.8767 30.8141 16.4875 30.8141Z" fill="#2D5632"/>
<path d="M27.7609 30.8141C27.3717 30.8141 27.0563 31.1295 27.0563 31.5187V32.2703C27.0563 32.6593 27.3716 32.9749 27.7609 32.9749C28.1501 32.9749 28.4655 32.6594 28.4655 32.2703V31.5187C28.4654 31.1295 28.1501 30.8141 27.7609 30.8141Z" fill="#2D5632"/>
<path d="M22.1243 13.0427C21.7351 13.0427 21.4197 13.3582 21.4197 13.7473V16.0959C21.4197 16.485 21.735 16.8006 22.1243 16.8006C22.5135 16.8006 22.8289 16.4851 22.8289 16.0959V13.7473C22.8289 13.3582 22.5136 13.0427 22.1243 13.0427Z" fill="#2D5632"/>
<path d="M19.4938 13.0427C19.1046 13.0427 18.7892 13.3582 18.7892 13.7473V16.0959C18.7892 16.485 19.1045 16.8006 19.4938 16.8006C19.883 16.8006 20.1984 16.4851 20.1984 16.0959V13.7473C20.1984 13.3582 19.883 13.0427 19.4938 13.0427Z" fill="#2D5632"/>
<path d="M24.7547 13.0427C24.3655 13.0427 24.05 13.3582 24.05 13.7473V16.0959C24.05 16.485 24.3654 16.8006 24.7547 16.8006C25.1438 16.8006 25.4593 16.4851 25.4593 16.0959V13.7473C25.4593 13.3582 25.1439 13.0427 24.7547 13.0427Z" fill="#2D5632"/>
<path d="M16.4875 13.0427C16.0983 13.0427 15.7828 13.3582 15.7828 13.7473V16.0959C15.7828 16.485 16.0982 16.8006 16.4875 16.8006C16.8766 16.8006 17.1921 16.4851 17.1921 16.0959V13.7473C17.1921 13.3582 16.8767 13.0427 16.4875 13.0427Z" fill="#2D5632"/>
<path d="M27.7609 13.0427C27.3717 13.0427 27.0563 13.3582 27.0563 13.7473V16.0959C27.0563 16.485 27.3716 16.8006 27.7609 16.8006C28.1501 16.8006 28.4655 16.4851 28.4655 16.0959V13.7473C28.4654 13.3582 28.1501 13.0427 27.7609 13.0427Z" fill="#2D5632"/>
<path d="M22.124 18.0375C21.7349 18.0375 21.4194 18.3529 21.4194 18.7421V19.4936C21.4194 19.8827 21.7348 20.1983 22.124 20.1983C22.5132 20.1983 22.8287 19.8828 22.8287 19.4936V18.7421C22.8287 18.3529 22.5132 18.0375 22.124 18.0375Z" fill="#2D5632"/>
<path d="M19.4938 18.0375C19.1046 18.0375 18.7892 18.3529 18.7892 18.7421V19.4936C18.7892 19.8827 19.1045 20.1983 19.4938 20.1983C19.8831 20.1983 20.1984 19.8828 20.1984 19.4936V18.7421C20.1984 18.3529 19.883 18.0375 19.4938 18.0375Z" fill="#2D5632"/>
<path d="M24.7547 18.0375C24.3655 18.0375 24.05 18.3529 24.05 18.7421V19.4936C24.05 19.8827 24.3654 20.1983 24.7547 20.1983C25.1438 20.1983 25.4593 19.8828 25.4593 19.4936V18.7421C25.4593 18.3529 25.1438 18.0375 24.7547 18.0375Z" fill="#2D5632"/>
<path d="M16.4875 18.0375C16.0983 18.0375 15.7828 18.3529 15.7828 18.7421V19.4936C15.7828 19.8827 16.0982 20.1983 16.4875 20.1983C16.8767 20.1983 17.1921 19.8828 17.1921 19.4936V18.7421C17.1921 18.3529 16.8767 18.0375 16.4875 18.0375Z" fill="#2D5632"/>
<path d="M27.7609 18.0375C27.3717 18.0375 27.0563 18.3529 27.0563 18.7421V19.4936C27.0563 19.8827 27.3716 20.1983 27.7609 20.1983C28.1501 20.1983 28.4655 19.8828 28.4655 19.4936V18.7421C28.4654 18.3529 28.1501 18.0375 27.7609 18.0375Z" fill="#2D5632"/>
<path d="M22.1243 21.7952C21.7351 21.7952 21.4197 22.1106 21.4197 22.4998V28.5119C21.4197 28.901 21.735 29.2165 22.1243 29.2165C22.5135 29.2165 22.8289 28.9011 22.8289 28.5119V22.4998C22.8289 22.1107 22.5136 21.7952 22.1243 21.7952Z" fill="#2D5632"/>
<path d="M19.4938 21.7952C19.1046 21.7952 18.7892 22.1106 18.7892 22.4998V28.5119C18.7892 28.901 19.1045 29.2165 19.4938 29.2165C19.8831 29.2165 20.1984 28.9011 20.1984 28.5119V22.4998C20.1984 22.1107 19.8831 21.7952 19.4938 21.7952Z" fill="#2D5632"/>
<path d="M24.7549 21.7952C24.3657 21.7952 24.0503 22.1106 24.0503 22.4998V28.5119C24.0503 28.901 24.3656 29.2165 24.7549 29.2165C25.1441 29.2165 25.4595 28.9011 25.4595 28.5119V22.4998C25.4595 22.1107 25.1442 21.7952 24.7549 21.7952Z" fill="#2D5632"/>
<path d="M16.4877 21.7952C16.0985 21.7952 15.7831 22.1106 15.7831 22.4998V28.5119C15.7831 28.901 16.0984 29.2165 16.4877 29.2165C16.877 29.2165 17.1923 28.9011 17.1923 28.5119V22.4998C17.1922 22.1107 16.8769 21.7952 16.4877 21.7952Z" fill="#2D5632"/>
<path d="M27.7611 21.7952C27.372 21.7952 27.0565 22.1106 27.0565 22.4998V28.5119C27.0565 28.901 27.3719 29.2165 27.7611 29.2165C28.1503 29.2165 28.4658 28.9011 28.4658 28.5119V22.4998C28.4657 22.1107 28.1503 21.7952 27.7611 21.7952Z" fill="#2D5632"/>
</svg>
