<svg width="97" height="29" viewBox="0 0 97 29" fill="none" xmlns="http://www.w3.org/2000/svg">
<path d="M96.051 25.5754C96.051 25.9404 95.9799 26.3018 95.8418 26.639C95.7037 26.9762 95.5013 27.2825 95.2461 27.5405C94.9909 27.7984 94.688 28.0029 94.3547 28.1423C94.0214 28.2818 93.6641 28.3533 93.3035 28.3529H3.38895C2.66019 28.3537 1.96096 28.0615 1.44505 27.5407C0.929129 27.0198 0.638767 26.3129 0.637817 25.5754V3.42567C0.638767 2.68786 0.929013 1.98058 1.44483 1.45914C1.96064 0.937704 2.65986 0.644723 3.38895 0.644531H93.3027C93.6636 0.644531 94.021 0.716473 94.3544 0.856247C94.6878 0.996021 94.9907 1.20089 95.2458 1.45915C95.501 1.71741 95.7033 2.02401 95.8414 2.36143C95.9794 2.69885 96.0504 3.06048 96.0503 3.42567L96.051 25.5754Z" fill="white"/>
<path d="M93.3034 29H3.38893C2.49118 28.9998 1.63017 28.6392 0.994828 27.9974C0.359486 27.3555 0.00170817 26.4848 0 25.5763L0 3.42729C0.00132809 2.51835 0.35887 1.64706 0.994192 1.00455C1.62951 0.362033 2.49074 0.000767178 3.38893 0L93.3027 0C94.2008 0.00114998 95.0618 0.362539 95.6971 1.00497C96.3323 1.6474 96.6899 2.51847 96.6917 3.42729V25.5763C96.6931 27.4648 95.1703 29 93.3034 29Z" fill="#6B6B6B"/>
<path d="M96.051 25.5754C96.051 25.9404 95.9799 26.3018 95.8418 26.639C95.7037 26.9762 95.5013 27.2825 95.2461 27.5405C94.9909 27.7984 94.688 28.0029 94.3547 28.1423C94.0214 28.2818 93.6641 28.3533 93.3035 28.3529H3.38895C2.66019 28.3537 1.96096 28.0615 1.44505 27.5407C0.929129 27.0198 0.638767 26.3129 0.637817 25.5754V3.42567C0.638767 2.68786 0.929013 1.98058 1.44483 1.45914C1.96064 0.937704 2.65986 0.644723 3.38895 0.644531H93.3027C93.6636 0.644531 94.021 0.716473 94.3544 0.856247C94.6878 0.996021 94.9907 1.20089 95.2458 1.45915C95.501 1.71741 95.7033 2.02401 95.8414 2.36143C95.9794 2.69885 96.0504 3.06048 96.0503 3.42567L96.051 25.5754Z" fill="black"/>
<path d="M21.5906 14.349C21.5698 12.0117 23.4817 10.8746 23.5692 10.8217C22.4864 9.22405 20.808 9.00576 20.2182 8.98836C18.8086 8.83824 17.4413 9.84192 16.7232 9.84192C15.9908 9.84192 14.8851 9.00286 13.6933 9.02752C12.1598 9.05145 10.7251 9.94997 9.93821 11.3453C8.31434 14.1902 9.52544 18.371 11.0812 20.6706C11.8595 21.7976 12.7689 23.0543 13.9592 23.0101C15.1237 22.9622 15.5587 22.2595 16.964 22.2595C18.3564 22.2595 18.7649 23.0101 19.9789 22.9818C21.2287 22.9622 22.0155 21.8505 22.7666 20.7141C23.6659 19.424 24.0271 18.152 24.0414 18.0867C24.0128 18.0766 21.6149 17.1498 21.5906 14.349ZM19.2974 7.47559C19.9237 6.68295 20.3522 5.60458 20.2333 4.51025C19.3267 4.55087 18.193 5.1448 17.5402 5.92004C16.9626 6.60318 16.4466 7.72289 16.5799 8.77588C17.5982 8.85275 18.6438 8.25591 19.2974 7.47559Z" fill="white"/>
<path d="M93.3034 0H45.1425L64.0063 29H93.3034C94.2014 28.9992 95.0624 28.6382 95.6977 27.996C96.333 27.3538 96.6907 26.4828 96.6924 25.5742V3.42729C96.6909 2.51841 96.3333 1.64723 95.698 1.00476C95.0627 0.362286 94.2016 0.000958653 93.3034 0Z" fill="url(#paint0_linear_631_210)"/>
<path d="M38.4579 22.8461H36.8304L35.9389 20.0113H32.8402L31.991 22.8461H30.4066L33.4773 13.1951H35.3735L38.4579 22.8461ZM35.6702 18.8219L34.864 16.3019C34.7787 16.0444 34.6182 15.4382 34.3831 14.4838H34.3545C34.2599 14.8943 34.1086 15.5005 33.9015 16.3019L33.109 18.8219H35.6702ZM46.3393 19.281C46.3393 20.4645 46.0219 21.4 45.3862 22.0868C44.8172 22.6981 44.1099 23.0034 43.2664 23.0034C42.3556 23.0034 41.7006 22.6749 41.3029 22.0164V25.6678H39.775V18.1743C39.775 17.431 39.7557 16.6688 39.7184 15.8871H41.0621L41.1474 16.9901H41.176C41.6855 16.159 42.4588 15.7435 43.4965 15.7435C44.3077 15.7435 44.9849 16.0676 45.5267 16.7167C46.0677 17.3672 46.3393 18.2215 46.3393 19.281ZM44.7828 19.3375C44.7828 18.6602 44.6323 18.1018 44.3299 17.6616C43.9995 17.204 43.5559 16.9748 42.9998 16.9748C42.6229 16.9748 42.2803 17.1025 41.9743 17.3541C41.6676 17.6079 41.467 17.9394 41.3731 18.3498C41.3312 18.5033 41.3074 18.6613 41.3022 18.8205V19.9815C41.3022 20.487 41.4555 20.9141 41.7622 21.2637C42.0689 21.6118 42.4674 21.7865 42.9576 21.7865C43.533 21.7865 43.9809 21.561 44.3012 21.1136C44.6223 20.6647 44.7828 20.0729 44.7828 19.3375ZM54.2487 19.281C54.2487 20.4645 53.9313 21.4 53.2956 22.0868C52.7259 22.6981 52.0193 23.0034 51.1751 23.0034C50.2643 23.0034 49.6093 22.6749 49.2116 22.0164V25.6678H47.6837V18.1743C47.6837 17.431 47.6644 16.6688 47.6271 15.8871H48.9708L49.0561 16.9901H49.0847C49.5935 16.159 50.3668 15.7435 51.4052 15.7435C52.2157 15.7435 52.8929 16.0676 53.4361 16.7167C53.9764 17.3672 54.2487 18.2215 54.2487 19.281ZM52.6915 19.3375C52.6915 18.6602 52.5403 18.1018 52.2379 17.6616C51.9075 17.204 51.4654 16.9748 50.9093 16.9748C50.5323 16.9748 50.1898 17.1025 49.8823 17.3541C49.5756 17.6079 49.3757 17.9394 49.2818 18.3498C49.2352 18.5413 49.2101 18.6972 49.2101 18.8205V19.9815C49.2101 20.487 49.3642 20.9141 49.6695 21.2637C49.9762 21.611 50.3747 21.7865 50.8663 21.7865C51.4424 21.7865 51.8903 21.561 52.2099 21.1136C52.531 20.6647 52.6915 20.0729 52.6915 19.3375ZM63.0919 20.1389C63.0919 20.9605 62.8081 21.6285 62.2441 22.1441C61.6235 22.7068 60.7571 22.9889 59.6464 22.9889C58.6202 22.9889 57.7975 22.7888 57.1769 22.3877L57.5302 21.0991C58.2002 21.5008 58.9362 21.701 59.7374 21.701C60.3136 21.701 60.7614 21.569 61.0811 21.3072C61.4014 21.0447 61.5633 20.6937 61.5633 20.2556C61.5633 19.8633 61.4293 19.5348 61.1663 19.2672C60.9019 19.0003 60.4648 18.7516 59.8506 18.5231C58.1809 17.893 57.3453 16.9712 57.3453 15.7587C57.3453 14.9668 57.6405 14.3184 58.2296 13.8115C58.8187 13.3053 59.5998 13.0522 60.5715 13.0522C61.4394 13.0522 62.1624 13.2053 62.7365 13.5106L62.3531 14.771C61.8127 14.4751 61.2029 14.3271 60.5207 14.3271C59.9818 14.3271 59.5589 14.4613 59.2565 14.7282C59.0021 14.9668 58.8731 15.2576 58.8731 15.6028C58.8731 15.9835 59.02 16.2997 59.3124 16.5477C59.5661 16.7761 60.029 17.0249 60.6984 17.2918C61.5196 17.6268 62.123 18.017 62.5093 18.4651C62.8984 18.9133 63.0919 19.4724 63.0919 20.1389ZM68.1563 17.0474H66.4722V20.4261C66.4722 21.2854 66.7689 21.714 67.3637 21.714C67.6368 21.714 67.8632 21.6908 68.0424 21.6422L68.0847 22.8163C67.7837 22.9302 67.3874 22.9875 66.8965 22.9875C66.2931 22.9875 65.8215 22.8011 65.4812 22.4283C65.1422 22.0556 64.9716 21.4312 64.9716 20.5523V17.0445H63.9683V15.8841H64.9716V14.61L66.4722 14.1516V15.8841H68.1563V17.0474ZM75.7397 19.3093C75.7397 20.3789 75.4373 21.2571 74.8339 21.9439C74.2025 22.651 73.3626 23.0034 72.3156 23.0034C71.3052 23.0034 70.5018 22.6648 69.9027 21.9881C69.3036 21.3101 69.0041 20.4558 69.0041 19.4253C69.0041 18.3469 69.3137 17.4636 69.9307 16.7769C70.5491 16.0894 71.3819 15.7456 72.4288 15.7456C73.4379 15.7456 74.2484 16.085 74.8618 16.7624C75.448 17.4194 75.7397 18.2679 75.7397 19.3093ZM74.1559 19.3448C74.1559 18.7073 74.0198 18.1605 73.7467 17.7029C73.4264 17.1503 72.9678 16.874 72.3737 16.874C71.7617 16.874 71.2923 17.1503 70.9727 17.7029C70.6989 18.1605 70.5627 18.7168 70.5627 19.3738C70.5627 20.012 70.6989 20.5602 70.9727 21.0164C71.303 21.569 71.7638 21.8453 72.3608 21.8453C72.9448 21.8453 73.4027 21.5632 73.7338 21.0026C74.0147 20.5341 74.1559 19.9837 74.1559 19.3448ZM80.708 17.2468C80.5491 17.2178 80.3879 17.2034 80.2265 17.204C79.689 17.204 79.2734 17.4085 78.981 17.8204C78.7273 18.183 78.5997 18.6414 78.5997 19.1947V22.8461H77.0719V18.0786C77.0732 17.3481 77.0584 16.6176 77.0274 15.8878H78.3582L78.4141 17.2192H78.4564C78.6184 16.7616 78.872 16.3925 79.2203 16.1162C79.5391 15.8748 79.9265 15.744 80.3246 15.7435C80.4658 15.7435 80.5934 15.7536 80.7066 15.7717L80.708 17.2468ZM87.5411 19.0373C87.545 19.2724 87.5262 19.5072 87.4852 19.7386H82.9016C82.9188 20.4261 83.141 20.9526 83.5667 21.3152C83.9529 21.6386 84.4524 21.801 85.0659 21.801C85.7445 21.801 86.3637 21.6923 86.9205 21.4725L87.1598 22.5451C86.5091 22.8323 85.7409 22.9751 84.8544 22.9751C83.7881 22.9751 82.9511 22.6575 82.342 22.0237C81.7343 21.3891 81.4297 20.5363 81.4297 19.4681C81.4297 18.4194 81.7128 17.5456 82.2796 16.8487C82.873 16.1046 83.6749 15.7326 84.6839 15.7326C85.675 15.7326 86.4253 16.1046 86.9348 16.8487C87.3383 17.4383 87.5411 18.1693 87.5411 19.0373ZM86.0842 18.6363C86.0949 18.1772 85.9946 17.782 85.7875 17.4477C85.5231 17.0169 85.116 16.8023 84.5707 16.8023C84.0712 16.8023 83.6641 17.0118 83.3545 17.4324C83.1001 17.7668 82.9489 18.1685 82.9024 18.6348L86.0842 18.6363Z" fill="white"/>
<path d="M32.3994 9.78192C31.9745 9.78192 31.6068 9.76089 31.3008 9.72536V5.05942C31.7288 4.99252 32.1613 4.95954 32.5944 4.9608C34.3465 4.9608 35.1534 5.83321 35.1534 7.25533C35.1534 8.89573 34.2003 9.78192 32.3994 9.78192ZM32.656 5.55909C32.4195 5.55909 32.2181 5.57359 32.0511 5.6084V9.15535C32.1414 9.16985 32.3149 9.17638 32.5585 9.17638C33.7066 9.17638 34.3601 8.515 34.3601 7.27636C34.3601 6.17188 33.7689 5.55909 32.656 5.55909ZM37.6681 9.81746C36.6806 9.81746 36.0406 9.07123 36.0406 8.05812C36.0406 7.00223 36.6942 6.24948 37.724 6.24948C38.6971 6.24948 39.3514 6.96017 39.3514 8.00228C39.3514 9.07123 38.6771 9.81746 37.6681 9.81746ZM37.6967 6.80498C37.1543 6.80498 36.8067 7.31842 36.8067 8.03637C36.8067 8.74053 37.1614 9.25398 37.6896 9.25398C38.2177 9.25398 38.5725 8.705 38.5725 8.02186C38.5725 7.32567 38.2249 6.80498 37.6967 6.80498ZM44.9827 6.31982L43.9257 9.73986H43.237L42.7991 8.25465C42.6903 7.89136 42.5996 7.52273 42.5275 7.15017H42.5132C42.458 7.52293 42.3534 7.8964 42.2423 8.25465L41.7765 9.73986H41.0807L40.086 6.31982H40.8578L41.2405 7.94572C41.3308 8.33297 41.4067 8.69847 41.4698 9.04367H41.4841C41.5393 8.75576 41.6296 8.39606 41.7622 7.95297L42.2423 6.32055H42.8543L43.3137 7.91816C43.4247 8.30541 43.515 8.68542 43.5853 9.04439H43.6053C43.6541 8.69267 43.7307 8.31919 43.8347 7.91816L44.2453 6.32055L44.9827 6.31982ZM48.874 9.73986H48.1229V7.77602C48.1229 7.1712 47.8936 6.86807 47.4414 6.86807C46.9964 6.86807 46.6904 7.25533 46.6904 7.70568V9.73986H45.9394V7.29739C45.9394 6.99498 45.9322 6.67082 45.9114 6.31909H46.5722L46.6073 6.84704H46.6281C46.8302 6.48154 47.2401 6.24948 47.6994 6.24948C48.4089 6.24948 48.8747 6.79845 48.8747 7.6919L48.874 9.73986ZM50.945 9.73986H50.1933V4.75049H50.945V9.73986ZM53.6833 9.81746C52.6965 9.81746 52.0558 9.07123 52.0558 8.05812C52.0558 7.00223 52.7094 6.24948 53.7384 6.24948C54.7123 6.24948 55.3659 6.96017 55.3659 8.00228C55.3666 9.07123 54.6916 9.81746 53.6833 9.81746ZM53.7112 6.80498C53.1687 6.80498 52.8212 7.31842 52.8212 8.03637C52.8212 8.74053 53.1766 9.25398 53.7033 9.25398C54.2322 9.25398 54.5862 8.705 54.5862 8.02186C54.5869 7.32567 54.2401 6.80498 53.7112 6.80498ZM58.327 9.73986L58.2725 9.34608H58.2525C58.0232 9.66299 57.6885 9.81746 57.2642 9.81746C56.6587 9.81746 56.2287 9.38814 56.2287 8.81088C56.2287 7.96675 56.9518 7.53018 58.2037 7.53018V7.46708C58.2037 7.01674 57.968 6.7912 57.5022 6.7912C57.1689 6.7912 56.8766 6.87605 56.6193 7.04502L56.4666 6.54536C56.7791 6.3481 57.1689 6.24948 57.6269 6.24948C58.5097 6.24948 58.9555 6.72085 58.9555 7.66434V8.92401C58.9555 9.2692 58.9705 9.5368 59.0042 9.74058L58.327 9.73986ZM58.2238 8.03637C57.3897 8.03637 56.9711 8.24087 56.9711 8.72603C56.9711 9.085 57.1868 9.2605 57.4864 9.2605C57.8684 9.2605 58.2238 8.96535 58.2238 8.56431V8.03637ZM62.6024 9.73986L62.5673 9.19088H62.5465C62.3308 9.6057 61.9682 9.81746 61.4615 9.81746C60.6467 9.81746 60.0433 9.09226 60.0433 8.0719C60.0433 7.00223 60.6689 6.24875 61.5232 6.24875C61.9753 6.24875 62.2957 6.40322 62.4763 6.7136H62.4913V4.75049H63.2431V8.81813C63.2431 9.14882 63.2509 9.45848 63.271 9.73986H62.6024ZM62.4913 7.72743C62.4913 7.2488 62.1782 6.84051 61.7002 6.84051C61.1433 6.84051 60.8029 7.34017 60.8029 8.04362C60.8029 8.73328 61.1562 9.20539 61.6851 9.20539C62.1574 9.20539 62.4913 8.78985 62.4913 8.29744V7.72743ZM68.0094 9.81746C67.0226 9.81746 66.3826 9.07123 66.3826 8.05812C66.3826 7.00223 67.0362 6.24948 68.0653 6.24948C69.0391 6.24948 69.6927 6.96017 69.6927 8.00228C69.6934 9.07123 69.0191 9.81746 68.0094 9.81746ZM68.0373 6.80498C67.4955 6.80498 67.148 7.31842 67.148 8.03637C67.148 8.74053 67.5027 9.25398 68.0301 9.25398C68.559 9.25398 68.913 8.705 68.913 8.02186C68.9145 7.32567 68.5669 6.80498 68.0373 6.80498ZM73.7316 9.73986H72.9799V7.77602C72.9799 7.1712 72.7506 6.86807 72.2984 6.86807C71.8533 6.86807 71.5481 7.25533 71.5481 7.70568V9.73986H70.7963V7.29739C70.7963 6.99498 70.7891 6.67082 70.7684 6.31909H71.4291L71.4642 6.84704H71.485C71.6864 6.48154 72.097 6.24875 72.5556 6.24875C73.2651 6.24875 73.7316 6.79773 73.7316 7.69117V9.73986ZM78.7846 6.88983H77.9583V8.55053C77.9583 8.97332 78.103 9.18436 78.3954 9.18436C78.528 9.18436 78.6391 9.16985 78.7287 9.14882L78.7494 9.72608C78.604 9.78265 78.409 9.81093 78.1668 9.81093C77.5749 9.81093 77.2209 9.48024 77.2209 8.61435V6.88983H76.7278V6.31982H77.2209V5.69325L77.9583 5.46771V6.31909H78.7846V6.88983ZM82.7604 9.73986H82.0101V7.79052C82.0101 7.17846 81.7815 6.8688 81.3286 6.8688C80.9395 6.8688 80.5768 7.13639 80.5768 7.67812V9.73986H79.8265V4.75049H80.5768V6.80498H80.5919C80.8284 6.43223 81.1709 6.24875 81.6081 6.24875C82.3233 6.24875 82.7604 6.8115 82.7604 7.70568V9.73986ZM86.8337 8.21259H84.5799C84.5943 8.86019 85.0178 9.22569 85.6448 9.22569C85.9781 9.22569 86.2848 9.16913 86.5557 9.06397L86.6725 9.59192C86.3529 9.73261 85.9766 9.80295 85.5388 9.80295C84.4817 9.80295 83.8561 9.12707 83.8561 8.07915C83.8561 7.03051 84.4968 6.24222 85.4542 6.24222C86.3177 6.24222 86.8595 6.88983 86.8595 7.86812C86.8644 7.98357 86.8557 8.0992 86.8337 8.21259ZM86.145 7.67087C86.145 7.14292 85.882 6.77017 85.4019 6.77017C84.9705 6.77017 84.6294 7.15017 84.5806 7.67087H86.145Z" fill="white"/>
<defs>
<linearGradient id="paint0_linear_631_210" x1="70.9166" y1="29.077" x2="70.9166" y2="-75.511" gradientUnits="userSpaceOnUse">
<stop stop-color="#1A1A1A" stop-opacity="0.1"/>
<stop offset="0.123" stop-color="#212121" stop-opacity="0.151"/>
<stop offset="0.308" stop-color="#353535" stop-opacity="0.227"/>
<stop offset="0.532" stop-color="#575757" stop-opacity="0.318"/>
<stop offset="0.783" stop-color="#858585" stop-opacity="0.421"/>
<stop offset="1" stop-color="#B3B3B3" stop-opacity="0.51"/>
</linearGradient>
</defs>
</svg>
