<svg width="56" height="28" viewBox="0 0 56 28" fill="none" xmlns="http://www.w3.org/2000/svg">
<path d="M32.9897 21.6699C32.4764 21.2443 31.7942 21.0879 31.162 21.2568C30.58 21.4071 30.1168 21.8202 29.904 22.3897C29.6286 23.1095 29.8289 23.9795 30.3984 24.499C30.7552 24.8308 31.2372 25.006 31.7254 25.006C32.007 25.006 32.2887 24.9497 32.5453 24.8245C33.24 24.4928 33.6907 23.7229 33.6406 22.953C33.5968 22.4461 33.3652 21.9766 32.9897 21.6699ZM32.1322 23.9733C31.7817 24.1423 31.3185 24.0734 31.0306 23.8043C30.7427 23.5414 30.6363 23.0845 30.7802 22.7215C30.8866 22.4398 31.112 22.2395 31.3999 22.1644C31.4875 22.1394 31.5814 22.1269 31.669 22.1269C31.9256 22.1269 32.1823 22.2207 32.3888 22.3897C32.5641 22.5337 32.6767 22.7653 32.6955 23.0094C32.7205 23.4037 32.4827 23.8043 32.1322 23.9733ZM46.6344 21.1817C45.9521 20.7436 45.1259 20.7561 44.4813 21.213C43.9179 21.6074 43.5925 22.2959 43.63 22.9969C43.6613 23.5602 43.9179 24.0985 44.3436 24.4615C44.7066 24.7807 45.1948 24.9559 45.6705 24.9559C45.7518 24.9559 45.8332 24.9497 45.9146 24.9434C46.7408 24.837 47.4543 24.161 47.6045 23.3411C47.7547 22.5212 47.3667 21.6512 46.6344 21.1817ZM46.6782 23.1721C46.6031 23.5977 46.2213 23.9608 45.7894 24.0108C45.4952 24.0484 45.1823 23.9545 44.9507 23.7542C44.7254 23.5539 44.5751 23.2535 44.5626 22.9468C44.5438 22.5712 44.7191 22.1894 45.0195 21.9766C45.5015 21.6387 45.9521 21.8577 46.1274 21.9641C46.4716 22.1957 46.7783 22.6526 46.6782 23.1721ZM55.5347 17.5327C55.5347 17.5202 55.5285 17.5077 55.5285 17.5014C55.2405 16.2371 54.7649 15.2294 54.1077 14.4908C52.6869 12.8948 51.4976 11.8996 47.4355 11.8307C47.4606 10.4475 47.3604 9.07678 47.1539 7.92511C46.9724 6.93619 46.6406 5.67186 45.6705 4.6266C43.1293 1.89767 35.5371 1.47205 31.8881 3.85048C31.162 4.32617 30.6363 4.7956 30.2294 5.34013C29.4784 6.34158 28.9902 7.61216 28.8587 8.9203C28.7586 9.95304 28.7398 10.9983 28.8149 12.1124C26.3989 12.3502 24.6151 13.2828 23.2131 15.0479C22.7937 14.6786 22.2492 14.4533 21.6921 14.447C21.6859 14.447 21.6796 14.447 21.6734 14.447C20.8534 14.447 20.0648 14.9102 19.6579 15.6237C19.32 16.2183 19.2824 16.9068 19.2887 17.564C19.2887 17.6266 19.2887 17.6829 19.2887 17.7393C19.2949 18.2337 19.3012 18.6656 19.1572 19.085C19.0133 19.4981 18.6315 19.8361 18.281 19.8486C17.8616 19.8673 17.6112 19.5231 17.5048 19.3165C17.3233 18.966 17.2232 18.5217 17.1981 17.9583C17.123 15.9993 17.123 15.2169 17.123 13.9275C17.123 13.214 17.123 12.3252 17.1043 10.992C17.1043 10.8606 17.1043 10.7104 17.1043 10.5539C17.1168 9.79657 17.1293 8.85771 16.7538 8.18799C16.397 7.54957 15.865 7.19281 15.1389 7.11144L15.1577 5.69064C15.1827 4.18221 15.1264 2.73638 14.2439 1.61601C13.0421 0.0950644 10.9516 -0.0551508 8.86111 0.0136985C6.61412 0.0825479 4.36713 0.382981 3.1654 2.06666C2.29539 3.28717 2.27661 4.90826 2.27035 6.09122L2.13891 22.9218C1.78841 23.0407 1.45042 23.2034 1.13121 23.4287C-0.0767828 24.2862 -0.0267108 25.5505 0.0171024 26.7711C0.0296205 27.0214 0.22991 27.2217 0.480271 27.2217C0.918403 27.2217 1.36279 27.228 1.81344 27.228C4.01662 27.228 6.33872 27.1967 8.59198 27.1654C11.3021 27.1278 14.1124 27.0903 16.6849 27.109C16.8101 27.109 16.929 27.059 17.0166 26.9713C17.1043 26.8837 17.1543 26.7648 17.1543 26.6396V26.3267C17.1543 24.5804 17.1543 23.6165 15.8525 22.928C15.5458 22.7653 15.2265 22.6714 14.9011 22.6088L15.1139 8.06281C15.5458 8.13166 15.7586 8.35073 15.9213 8.65116C16.1717 9.10181 16.1591 9.90297 16.1529 10.5476C16.1529 10.7104 16.1466 10.8606 16.1529 11.0046C16.1654 12.3315 16.1654 13.2203 16.1717 13.9275C16.1717 15.2294 16.1717 16.018 16.2468 17.9959C16.2718 18.7032 16.4095 19.2727 16.6599 19.7547C17.0041 20.4056 17.5925 20.7937 18.2371 20.7937C18.2622 20.7937 18.281 20.7937 18.306 20.7937C19.1384 20.7624 19.8082 20.0614 20.0335 19.3979C20.2275 18.8221 20.2213 18.2713 20.215 17.733C20.215 17.6767 20.215 17.6204 20.215 17.5578C20.2087 17.0696 20.2275 16.5125 20.4654 16.0869C20.7032 15.6675 21.1789 15.3859 21.6608 15.3859C21.6671 15.3859 21.6671 15.3859 21.6734 15.3859C22.0364 15.3921 22.3931 15.5549 22.6498 15.8178C22.6122 15.8741 22.5809 15.9242 22.5434 15.9805C21.5419 17.564 21.1977 19.5481 21.4793 22.033C21.4793 22.0517 21.4793 22.0705 21.4856 22.083C21.5106 22.2896 21.5357 22.4961 21.5669 22.7089C21.6608 23.3036 22.1741 23.7479 22.7749 23.7479C22.7875 23.7479 22.7937 23.7479 22.8062 23.7479C24.2145 23.7104 25.6854 23.6791 27.2752 23.6541C27.3753 24.2424 27.5944 24.8057 27.9449 25.3064C28.7461 26.4581 30.1669 27.1716 31.6127 27.1716C31.6878 27.1716 31.7629 27.1716 31.838 27.1654C33.3026 27.0903 34.6671 26.2954 35.4057 25.0874C35.6936 24.618 35.8751 24.0859 35.9502 23.5477C36.9266 23.5414 37.8968 23.5289 38.8732 23.5226C39.6305 23.5164 40.3879 23.5101 41.1389 23.5038C41.3079 24.6931 41.9526 25.8259 42.9603 26.5395C43.7302 27.084 44.6753 27.3531 45.6267 27.3531C46.6031 27.3531 47.5857 27.0652 48.3932 26.5019C49.4009 25.7947 50.033 24.6305 50.1582 23.3912C51.5039 23.3661 53.4442 23.3223 54.552 23.2973C55.1905 23.2848 55.71 22.7903 55.7663 22.1519C55.8852 20.6685 55.8351 19.2352 55.6098 18.0084C55.5973 17.8394 55.566 17.6892 55.5347 17.5327ZM3.22173 6.10374C3.23425 4.73301 3.29684 3.51875 3.94152 2.61745C4.95548 1.19665 7.03348 1.01514 8.90493 0.958811C10.7451 0.902479 12.579 1.00888 13.5178 2.20436C14.2063 3.08062 14.2501 4.35121 14.2314 5.68438L13.9873 22.5212C13.7557 22.5149 13.5366 22.5212 13.3301 22.5274C11.9218 22.5587 10.4822 22.5525 9.0927 22.5525C7.69693 22.5525 6.25736 22.5525 4.83656 22.5775C4.29828 22.59 3.69741 22.6025 3.09029 22.6964L3.22173 6.10374ZM15.4331 23.7542C16.1842 24.1485 16.2343 24.5303 16.2343 26.1577C13.7807 26.1452 11.1457 26.1827 8.59198 26.2203C6.03829 26.2578 3.39698 26.2954 0.949698 26.2829C0.930921 25.2877 1.01855 24.6618 1.682 24.1923C2.50194 23.6102 3.60353 23.5414 4.84908 23.5164C6.25736 23.4851 7.69693 23.4913 9.08644 23.4913C10.4822 23.4913 11.9218 23.4913 13.3426 23.4663C13.6806 23.46 14.0373 23.4538 14.3878 23.4851C14.7634 23.5164 15.1201 23.5915 15.4331 23.7542ZM52.6681 15.5611C52.7369 15.3108 52.931 15.0792 53.2064 14.9039C53.2689 14.9728 53.3315 15.0416 53.3941 15.1105C53.851 15.6237 54.2078 16.3247 54.4644 17.1697C53.9074 17.1509 53.4192 16.9945 53.0937 16.7128C52.7369 16.4186 52.5617 15.9429 52.6681 15.5611ZM39.1298 3.26214C41.721 3.40609 43.9618 4.17595 44.9757 5.26503C45.6141 5.95352 45.9834 6.79849 46.2275 8.09411C46.4278 9.18944 46.5217 10.5038 46.4967 11.8307C44.2184 11.862 41.3017 11.8996 38.4726 11.9372C38.4601 11.9372 38.4413 11.9372 38.4288 11.9372C38.4163 10.8105 38.4037 9.67764 38.3975 8.57605C38.385 6.82978 38.3662 5.02092 38.3286 3.2371C38.5915 3.2371 38.8544 3.24962 39.1298 3.26214ZM29.7976 9.00793C29.9102 7.86878 30.3296 6.76719 30.9805 5.90345C31.3185 5.4528 31.7754 5.05222 32.4076 4.63912C33.6093 3.85048 35.3994 3.36854 37.3898 3.26214C37.4273 5.0397 37.4398 6.8423 37.4586 8.58231C37.4711 9.6839 37.4774 10.823 37.4899 11.9497C34.7923 11.981 32.0884 12.0185 30.0104 12.0498C29.9228 12.0498 29.8414 12.0498 29.76 12.0561C29.6849 10.992 29.6974 9.99059 29.7976 9.00793ZM22.3806 21.501C22.2617 20.1177 22.3681 18.9222 22.6936 17.8895C22.7749 17.9396 22.8438 17.9959 22.9001 18.0647C23.1129 18.3339 23.1317 18.7532 23.1317 19.2352C23.1317 19.617 23.1317 19.9988 23.138 20.3743C23.138 20.6372 23.138 20.9063 23.0441 21.0941C22.9439 21.2944 22.6936 21.4509 22.3869 21.501H22.3806ZM34.617 24.5867C34.0412 25.5318 32.9646 26.1577 31.8005 26.214C30.5925 26.2766 29.3845 25.7008 28.7273 24.7556C28.0513 23.7855 27.9887 22.4273 28.5708 21.4571C29.084 20.5934 30.2294 20.0489 31.5626 20.0426C31.5751 20.0426 31.5939 20.0426 31.6064 20.0426C32.9521 20.0426 34.11 20.5746 34.6421 21.4384C35.2179 22.3522 35.2054 23.6228 34.617 24.5867ZM47.8674 25.7258C46.5906 26.6271 44.7567 26.6459 43.5174 25.7634C42.2656 24.8746 41.7085 23.0907 42.2656 21.695C42.8915 20.1177 44.5939 19.642 45.8582 19.7109C47.1038 19.786 48.7124 20.4432 49.1442 22.058C49.2193 22.3397 49.2569 22.6276 49.2569 22.9155C49.2569 22.9218 49.2569 22.928 49.2569 22.928C49.2569 22.9343 49.2569 22.9343 49.2569 22.9405C49.2569 24.0421 48.7499 25.1062 47.8674 25.7258ZM54.8462 22.0705C54.8337 22.227 54.7023 22.3522 54.5458 22.3522C53.4442 22.3772 51.5102 22.421 50.1645 22.4461C50.1394 22.2333 50.1019 22.0267 50.0455 21.8202C49.5824 20.0927 47.9613 18.8972 45.9083 18.7783C43.8303 18.6594 42.0528 19.6671 41.383 21.3507C41.2328 21.7388 41.1389 22.1456 41.1139 22.5525C40.3691 22.5587 39.618 22.565 38.8732 22.5712C37.9093 22.5775 36.9454 22.59 35.9815 22.5963C35.9314 22.0079 35.7499 21.4321 35.4432 20.9376C34.7297 19.786 33.2463 19.085 31.5501 19.0975C29.8915 19.11 28.4394 19.8298 27.7571 20.9752C27.4442 21.501 27.2752 22.0956 27.2376 22.7027C25.6541 22.7277 24.1957 22.759 22.7937 22.7966H22.7875C22.6498 22.7966 22.5308 22.6964 22.5058 22.5525C22.4995 22.5087 22.4933 22.4711 22.487 22.4273C22.5058 22.4273 22.5308 22.421 22.5496 22.4148C23.1442 22.3084 23.6387 21.9704 23.8765 21.5072C24.0768 21.1192 24.0768 20.6998 24.0768 20.3556C24.0768 19.9738 24.0768 19.5982 24.0706 19.2164C24.0706 18.7345 24.0643 18.0084 23.6324 17.4639C23.476 17.2698 23.2757 17.1134 23.0441 16.9945C23.138 16.8129 23.2318 16.6314 23.3445 16.4562C24.8717 14.0339 26.8621 12.9949 30.0104 12.9699C32.345 12.9323 35.462 12.8948 38.4726 12.8572C41.4894 12.8197 44.6127 12.7821 46.9473 12.7446C50.0894 12.7446 51.3912 13.2015 52.5304 14.2092C52.1486 14.4908 51.8794 14.8664 51.7605 15.2857C51.554 16.018 51.8419 16.8755 52.4866 17.4138C53.1312 17.9583 53.9324 18.0835 54.4957 18.0898C54.5207 18.0898 54.5395 18.0898 54.5646 18.0898C54.6084 18.0898 54.6459 18.0898 54.6897 18.0898C54.9088 19.2602 54.9651 20.5997 54.8462 22.0705ZM41.1264 14.6598C41.1389 14.9165 40.9386 15.1418 40.682 15.1543L39.4866 15.2106C39.4803 15.2106 39.4678 15.2106 39.4615 15.2106C39.2112 15.2106 39.0046 15.0166 38.9921 14.7662C38.9796 14.5096 39.1799 14.2843 39.4365 14.2718L40.632 14.2154C40.8948 14.2029 41.1139 14.4032 41.1264 14.6598ZM33.6281 14.7662C33.6469 15.0229 33.4528 15.2482 33.19 15.267L31.8005 15.3608C31.7879 15.3608 31.7817 15.3608 31.7692 15.3608C31.5251 15.3608 31.3185 15.1731 31.2997 14.9227C31.281 14.6661 31.475 14.4408 31.7379 14.422L33.1274 14.3281C33.384 14.3093 33.6093 14.5096 33.6281 14.7662ZM6.45139 19.2665C7.11484 19.7797 7.94104 20.0363 8.74845 20.0363C9.57464 20.0363 10.3883 19.7672 10.9954 19.2289C12.1408 18.215 12.3787 16.6189 12.4663 15.0479C12.6165 12.319 12.5915 9.5462 12.4037 6.81727C12.3224 5.68438 12.1847 4.50142 11.4899 3.55631C10.9016 2.76141 9.96896 2.25443 8.98629 2.18558C8.00363 2.12299 7.00844 2.50479 6.32621 3.21206C5.22462 4.35121 5.09944 6.01611 5.06188 7.61842C5.03685 8.58231 5.00555 9.44606 4.97426 10.3661C4.93044 11.5679 4.88663 12.8134 4.85533 14.4032C4.81152 16.2872 4.91166 18.0773 6.45139 19.2665ZM5.78793 14.422C5.81922 12.8385 5.86304 11.5992 5.90685 10.4037C5.93815 9.48361 5.96944 8.61987 5.99448 7.64346C6.02577 6.16633 6.13218 4.7643 6.99592 3.863C7.49039 3.34976 8.21017 3.07436 8.9237 3.11818C9.63723 3.16199 10.3132 3.53753 10.7388 4.10711C11.2896 4.85193 11.4023 5.87841 11.4711 6.8736C11.6589 9.56498 11.6839 12.2939 11.5337 14.9853C11.4586 16.356 11.2646 17.7268 10.3821 18.5154C9.52457 19.279 8.0224 19.279 7.03348 18.5154C5.82548 17.5953 5.75663 16.1182 5.78793 14.422ZM7.47787 12.1562C7.57801 12.1562 7.6719 12.15 7.77204 12.15C7.6719 12.4066 7.56549 12.6757 7.45909 12.9574C7.33391 13.2828 7.20873 13.6208 7.07103 13.9713C6.95211 14.278 7.05851 14.616 7.34017 14.7913C7.45283 14.8601 7.57801 14.8977 7.69693 14.8977C7.87845 14.8977 8.05996 14.8226 8.1914 14.6786C9.26795 13.5019 10.019 12.6256 11.1957 11.2236C11.3647 11.0171 11.4023 10.7417 11.2896 10.5038C11.177 10.266 10.9454 10.122 10.6825 10.122H10.6762C10.501 10.122 10.3508 10.1283 10.2131 10.1283C10.0003 10.1346 9.81875 10.1346 9.6122 10.1346C9.66853 9.81534 9.76241 9.27707 9.93141 8.36951C9.98774 8.05029 9.825 7.7436 9.52457 7.62468C9.22414 7.50576 8.89241 7.6059 8.7109 7.87504C8.13507 8.73879 7.07729 10.3035 6.50146 11.111C6.35124 11.3175 6.33247 11.5866 6.45139 11.812C6.57031 12.0373 6.80189 12.175 7.05225 12.175C7.20247 12.1625 7.34017 12.1562 7.47787 12.1562ZM8.76723 9.45858C8.54816 10.6728 8.5732 10.7104 8.70464 10.8731C8.78601 10.9795 8.91745 11.0421 9.04888 11.0546C9.49953 11.0797 9.76867 11.0797 10.0941 11.0671C9.48702 11.7869 8.98629 12.369 8.46054 12.9636C8.61701 12.5568 8.76097 12.1813 8.89867 11.8746C8.96126 11.7306 8.94874 11.5679 8.86737 11.4364C8.78601 11.305 8.64205 11.2236 8.48557 11.2174C8.31032 11.2111 8.1601 11.2111 8.0224 11.2111C7.85341 11.2111 7.70319 11.2174 7.56549 11.2174C7.916 10.7104 8.34787 10.0782 8.76723 9.45858ZM38.072 21.9641C37.8154 21.9641 37.6088 21.7638 37.6026 21.5072C37.5337 18.4403 37.4649 17.4075 37.4774 14.1591C37.4774 13.9025 37.6902 13.6897 37.9468 13.6897C38.2034 13.6897 38.4163 13.9025 38.4163 14.1591C38.4037 17.4013 38.4726 18.4215 38.5414 21.4822C38.5477 21.7388 38.3412 21.9579 38.0845 21.9641C38.0783 21.9641 38.072 21.9641 38.072 21.9641Z" fill="#181818"/>
<path d="M47.3165 12.5006C42.6034 12.5695 34.9236 12.6508 30.2106 12.7259C26.8244 12.751 24.6713 13.9527 23.0878 16.4688C21.7108 18.6532 21.9236 21.3071 22.174 22.9344C22.2303 23.3162 22.562 23.5916 22.9438 23.5791C24.5837 23.5353 26.2298 23.504 27.8822 23.479L50.1205 23.2349C51.485 23.2098 53.8384 23.1597 54.9963 23.1284C55.3969 23.1159 55.7286 22.8092 55.7599 22.4087C55.979 19.7423 55.666 16.7004 54.1826 15.0355C52.6805 13.3456 51.5163 12.5006 47.3165 12.5006Z" fill="#2D5632"/>
<path d="M32.0507 27.0277C33.34 26.9588 34.5981 26.2578 35.2741 25.1562C35.95 24.0547 35.9813 22.5713 35.3054 21.4759C33.9534 19.2978 29.6722 19.2915 28.3578 21.5072C27.6631 22.6714 27.7632 24.2424 28.5393 25.3565C29.3092 26.4644 30.6925 27.0965 32.0507 27.0277Z" fill="#1A1D3F"/>
<path d="M42.1465 21.8138C41.5018 23.4474 42.1464 25.469 43.5798 26.483C45.0131 27.497 47.0848 27.4531 48.5181 26.4454C49.8263 25.5191 50.4021 23.7854 49.989 22.2331C49.0752 18.8094 43.4421 18.5403 42.1465 21.8138Z" fill="#1A1D3F"/>
<path d="M8.88606 0.489466C6.93324 0.552057 4.69251 0.758605 3.55336 2.3484C2.79602 3.40618 2.75847 4.80194 2.74595 6.10382C2.69587 11.8246 2.65206 17.5516 2.60199 23.2723L14.4378 23.0157C14.5192 17.2386 14.6068 11.4678 14.6882 5.69072C14.707 4.37633 14.6882 2.94301 13.8745 1.91653C12.7729 0.495726 10.6887 0.433135 8.88606 0.489466ZM11.9968 15.0167C11.9217 16.4124 11.7277 17.9459 10.6887 18.8722C9.61837 19.8174 7.8721 19.761 6.73921 18.891C5.33093 17.8082 5.28711 16.0619 5.31841 14.4096C5.36848 11.618 5.46863 9.87175 5.52496 7.63102C5.55625 6.17893 5.65014 4.58287 6.65784 3.53762C7.24619 2.93049 8.10994 2.59876 8.95491 2.64883C9.79988 2.70516 10.6136 3.14956 11.1143 3.82553C11.7402 4.67676 11.8654 5.78461 11.9405 6.84238C12.122 9.56506 12.147 12.294 11.9968 15.0167Z" fill="#6CBE46"/>
<path d="M23.4071 18.021C23.1943 17.7581 22.8813 17.6017 22.5433 17.5391C22.0864 18.0335 21.7985 20.9815 22.0864 22.2897C22.2617 22.2959 22.4307 22.2897 22.6059 22.2584C23.0128 22.1833 23.4196 21.9642 23.6074 21.5949C23.7513 21.307 23.7576 20.9753 23.7576 20.6498C23.7576 20.268 23.7576 19.8799 23.7513 19.4981C23.7451 18.9849 23.7263 18.4278 23.4071 18.021Z" fill="#DDEDE7"/>
<path d="M32.9204 22.3269C32.1443 21.6823 30.9238 21.8763 30.5482 22.859C30.3354 23.4035 30.4919 24.0732 30.9238 24.4738C31.3556 24.8744 32.0316 24.9745 32.5636 24.7241C33.0956 24.4738 33.4399 23.8792 33.4023 23.2908C33.371 22.9215 33.202 22.5585 32.9204 22.3269Z" fill="#DDEDE7"/>
<path d="M45.1009 21.8953C44.6628 22.202 44.4124 22.7528 44.4374 23.2848C44.4625 23.7229 44.6628 24.1485 44.9945 24.4302C45.3262 24.7181 45.7769 24.8558 46.2088 24.7995C46.8409 24.7181 47.3917 24.1924 47.5106 23.5664C47.7547 22.2521 46.2588 21.0754 45.1009 21.8953Z" fill="#DDEDE7"/>
<path d="M53.7695 14.5786C53.0122 14.9792 52.743 15.2859 52.6366 15.6677C52.4676 16.2623 52.743 16.9257 53.2187 17.3263C53.6944 17.7269 54.3266 17.8896 54.9462 17.9022C55.0589 17.9022 55.1715 17.9022 55.497 17.802C55.2404 16.7192 54.821 15.7491 54.1826 15.0355C54.0449 14.8728 53.9072 14.7226 53.7695 14.5786Z" fill="#6CBE46"/>
<path d="M10.6764 10.5851C10.0067 10.5914 9.74383 10.6164 9.07412 10.5789C9.04282 10.5789 9.28692 9.23943 9.46843 8.27554C9.50599 8.05648 9.22433 7.94381 9.09915 8.12533C8.46699 9.06418 7.45303 10.5726 6.88345 11.3738C6.78957 11.5115 6.88345 11.693 7.05245 11.693C7.52813 11.6867 7.85986 11.6617 8.47951 11.6805C8.19785 12.3126 7.8849 13.1951 7.50936 14.1403C7.42799 14.3468 7.69713 14.5158 7.84734 14.3531C8.91764 13.1764 9.6562 12.3189 10.8392 10.9106C10.9456 10.7854 10.8454 10.5789 10.6764 10.5851Z" fill="#6CBE46"/>
<path d="M55.4723 17.4078C55.2908 17.4266 55.1218 17.4328 54.959 17.4328C54.3769 17.4266 53.87 17.2576 53.5257 16.9697C53.1627 16.663 52.9874 16.181 53.0938 15.793C53.1877 15.4612 53.4944 15.1608 53.9138 14.9918C54.1516 14.8917 54.2705 14.6163 54.1704 14.3784C54.0703 14.1406 53.7949 14.0217 53.557 14.1218C52.8623 14.4097 52.3615 14.923 52.1925 15.5364C51.986 16.2749 52.2802 17.1387 52.9248 17.6832C53.5758 18.234 54.3832 18.3592 54.9528 18.3654C54.9778 18.3654 55.0028 18.3654 55.0216 18.3654C55.2031 18.3654 55.3846 18.3529 55.5787 18.3341C55.8353 18.3091 56.0231 18.0775 55.998 17.8209C55.9605 17.5643 55.7289 17.3765 55.4723 17.4078Z" fill="#1A1D3F"/>
<path d="M39.7371 14.5032C39.4804 14.5157 39.2802 14.7348 39.2927 14.9977C39.3052 15.248 39.5117 15.4421 39.7621 15.4421C39.7684 15.4421 39.7746 15.4421 39.7871 15.4421L40.9951 15.3795C41.2517 15.367 41.452 15.1479 41.4395 14.885C41.427 14.6284 41.2079 14.4281 40.9451 14.4406L39.7371 14.5032Z" fill="#1A1D3F"/>
<path d="M33.3586 14.5598L31.9566 14.6537C31.7 14.6725 31.4997 14.8978 31.5185 15.1544C31.5373 15.4048 31.7438 15.5926 31.9879 15.5926C32.0004 15.5926 32.0067 15.5926 32.0192 15.5926L33.4212 15.4987C33.6779 15.4799 33.8781 15.2546 33.8594 14.9979C33.8406 14.7413 33.6215 14.541 33.3586 14.5598Z" fill="#1A1D3F"/>
<path d="M22.0742 22.7591C22.1117 22.7591 22.1493 22.7591 22.1806 22.7591C22.3621 22.7591 22.5248 22.7466 22.6813 22.7153C23.2821 22.6089 23.7829 22.2709 24.0207 21.8015C24.221 21.4072 24.221 20.9878 24.221 20.6436C24.221 20.2618 24.221 19.8737 24.2147 19.4919C24.2147 19.0037 24.2085 18.2714 23.7766 17.7269C23.5075 17.3889 23.1132 17.1636 22.6312 17.0759C22.3746 17.0259 22.1305 17.1949 22.0867 17.4515C22.0366 17.7081 22.2056 17.9522 22.4622 17.996C22.6437 18.0273 22.8878 18.1087 23.0443 18.309C23.2634 18.5781 23.2821 19.01 23.2821 19.4982C23.2821 19.88 23.2821 20.268 23.2884 20.6498C23.2884 20.9127 23.2884 21.1881 23.1945 21.3759C23.0944 21.5762 22.8378 21.7326 22.5311 21.789C22.4059 21.814 22.2682 21.8203 22.1117 21.814C21.8551 21.8078 21.636 22.008 21.6298 22.2709C21.611 22.5338 21.8113 22.7529 22.0742 22.7591Z" fill="#1A1D3F"/>
<path d="M38.0093 14.0776C37.7464 14.0776 37.5399 14.2842 37.5399 14.5471C37.5336 16.8754 37.5837 20.0362 37.6275 22.2081C37.6338 22.4647 37.8403 22.665 38.097 22.665C38.1032 22.665 38.1032 22.665 38.1095 22.665C38.3661 22.6588 38.5726 22.446 38.5664 22.1831C38.5163 20.0112 38.4725 16.8629 38.4788 14.5408C38.4788 14.2904 38.2722 14.0776 38.0093 14.0776Z" fill="#1A1D3F"/>
<path d="M29.3155 13.3204C29.328 13.3204 29.3405 13.3204 29.353 13.3204C29.6097 13.3017 29.8037 13.0701 29.7787 12.8135C29.6723 11.5804 29.6785 10.4413 29.7912 9.32092C29.9038 8.18177 30.3232 7.08018 30.9741 6.21644C31.3121 5.76579 31.769 5.36521 32.4012 4.95211C33.6029 4.16348 35.393 3.68153 37.3834 3.57513C37.4209 5.35269 37.4335 7.15529 37.4522 8.8953C37.4648 10.1534 37.4773 11.4552 37.496 12.7321C37.5023 12.9887 37.7089 13.1953 37.9655 13.1953H37.9717C38.2284 13.189 38.4412 12.9762 38.4349 12.7196C38.4161 11.4427 38.4036 10.1471 38.3973 8.88904C38.3848 7.14277 38.3661 5.33391 38.3285 3.55009C38.5914 3.55009 38.8605 3.56261 39.1297 3.57513C41.7209 3.71908 43.9616 4.48894 44.9756 5.57802C45.614 6.26651 45.9833 7.11148 46.2274 8.4071C46.4527 9.62135 46.5403 11.111 46.484 12.5881C46.4715 12.8448 46.678 13.0638 46.9347 13.0763C47.1975 13.0889 47.4104 12.8823 47.4229 12.6257C47.4855 11.0797 47.3916 9.52121 47.1537 8.2381C46.9722 7.24918 46.6405 5.98485 45.6703 4.93959C43.1292 2.21066 35.537 1.78504 31.888 4.16347C31.1619 4.63916 30.6361 5.10859 30.2293 5.65312C29.4782 6.65457 28.99 7.92515 28.8586 9.23329C28.7397 10.41 28.7397 11.6055 28.8461 12.8948C28.8711 13.1389 29.0776 13.3204 29.3155 13.3204Z" fill="#1A1D3F"/>
<path d="M16.6974 27.1028C16.8226 27.1028 16.9415 27.0527 17.0292 26.9651C17.1168 26.8775 17.1669 26.7585 17.1669 26.6334V26.3204C17.1669 24.5741 17.1669 23.6103 15.865 22.9218C15.0388 22.4899 14.0874 22.5087 13.3175 22.5212C11.9093 22.5525 10.4697 22.5462 9.08018 22.5462C7.68442 22.5462 6.24484 22.5462 4.82404 22.5713C3.67864 22.5963 2.25784 22.6276 1.13121 23.4225C-0.0767828 24.28 -0.0267108 25.5443 0.0171024 26.7648C0.0296205 27.0152 0.22991 27.2155 0.480271 27.2155C0.918403 27.2155 1.36279 27.2217 1.81344 27.2217C4.01662 27.2217 6.33873 27.1904 8.59198 27.1591C11.3209 27.1216 14.125 27.084 16.6974 27.1028ZM0.949698 26.2829C0.930921 25.2877 1.01855 24.6618 1.68201 24.1923C2.50194 23.6103 3.60353 23.5414 4.84908 23.5164C6.25736 23.4851 7.69694 23.4913 9.08644 23.4913C10.4822 23.4913 11.9218 23.4913 13.3426 23.4663C14.0373 23.4538 14.826 23.435 15.4331 23.7542C16.1842 24.1485 16.2343 24.5303 16.2343 26.1577C13.7807 26.1452 11.1457 26.1827 8.59198 26.2203C6.03829 26.2578 3.39698 26.2954 0.949698 26.2829Z" fill="#2D5632"/>
<path d="M21.6734 15.6926C21.6796 15.6926 21.6796 15.6926 21.6859 15.6926C22.1428 15.6988 22.5997 15.9555 22.8438 16.3498C22.9815 16.5688 23.2694 16.6377 23.4885 16.5063C23.7076 16.3686 23.7764 16.0806 23.645 15.8616C23.2381 15.1981 22.4745 14.7662 21.6984 14.76C21.6922 14.76 21.6859 14.76 21.6796 14.76C20.8597 14.76 20.0711 15.2232 19.6642 15.9367C19.3262 16.5313 19.2887 17.2198 19.2949 17.877C19.2949 17.9396 19.2949 17.9959 19.2949 18.0522C19.3012 18.5467 19.3075 18.9786 19.1635 19.3979C19.0258 19.8048 18.619 19.9612 18.2872 19.9738C17.9743 19.9863 17.6801 19.642 17.5111 19.3166C17.3296 18.9661 17.2295 18.5217 17.2044 17.9584C17.1293 15.9993 17.1293 15.2169 17.1293 13.9275C17.1293 13.214 17.1293 12.3252 17.1105 10.992C17.1105 10.8606 17.1105 10.7104 17.1105 10.5539C17.1231 9.79657 17.1356 8.85772 16.76 8.188C16.3282 7.41188 15.6397 7.05511 14.6445 7.09893C14.3879 7.11145 14.1813 7.33051 14.1938 7.58713C14.2064 7.84375 14.4254 8.0503 14.682 8.03778C15.4269 8.00649 15.721 8.25685 15.9338 8.64491C16.1842 9.09556 16.1717 9.89672 16.1654 10.5414C16.1654 10.7041 16.1592 10.8543 16.1654 10.9983C16.178 12.3252 16.178 13.214 16.1842 13.9213C16.1842 15.2232 16.1842 16.0118 16.2593 17.9896C16.2844 18.6969 16.4221 19.2665 16.6724 19.7484C17.0605 20.487 17.6363 20.9126 18.2622 20.9126C18.281 20.9126 18.2998 20.9126 18.3185 20.9126C19.126 20.8813 19.8082 20.4056 20.046 19.7046C20.2401 19.1288 20.2338 18.578 20.2275 18.0397C20.2275 17.9834 20.2275 17.9271 20.2275 17.8645C20.2213 17.3763 20.2401 16.8192 20.4779 16.3936C20.7095 15.9742 21.1914 15.6926 21.6734 15.6926Z" fill="#1A1D3F"/>
<path d="M8.97984 2.18573C7.99717 2.12314 7.00198 2.50494 6.31975 3.21221C5.21816 4.35136 5.09298 6.01626 5.05543 7.61857C5.03039 8.58246 4.99909 9.44621 4.9678 10.3663C4.92399 11.568 4.88017 12.8136 4.84888 14.4034C4.81758 16.2873 4.91147 18.0712 6.45119 19.2604C7.11465 19.7736 7.94084 20.0302 8.74826 20.0302C9.57445 20.0302 10.3881 19.7611 10.9952 19.2228C12.1406 18.2089 12.3785 16.6128 12.4661 15.0418C12.6163 12.3128 12.5913 9.54009 12.4035 6.81116C12.3222 5.67827 12.1845 4.49532 11.4897 3.5502C10.9014 2.76156 9.96251 2.24832 8.97984 2.18573ZM11.5273 14.9917C11.4522 16.3624 11.2581 17.7332 10.3756 18.5218C9.51812 19.2854 8.01595 19.2854 7.02702 18.5218C5.83155 17.6017 5.75644 16.1183 5.78773 14.4221C5.81903 12.8386 5.86284 11.5993 5.90665 10.4038C5.93795 9.48376 5.96924 8.62002 5.99428 7.64361C6.02558 6.16648 6.13198 4.76445 6.99573 3.86315C7.49019 3.34991 8.20998 3.07451 8.92351 3.11833C9.63704 3.16214 10.313 3.53768 10.7386 4.10725C11.2894 4.85208 11.4021 5.87856 11.4709 6.87375C11.6524 9.57139 11.6712 12.3003 11.5273 14.9917Z" fill="#1A1D3F"/>
</svg>
