<svg width="45" height="45" viewBox="0 0 45 45" fill="none" xmlns="http://www.w3.org/2000/svg">
<path d="M44.2953 43.5907H41.2421V23.8882C42.9523 23.558 44.2484 22.0505 44.2484 20.2453V16.4874C44.2484 16.3788 44.2225 16.2694 44.1739 16.1723L39.6645 7.15355C39.5453 6.91492 39.3013 6.76402 39.0344 6.76402H26.9623V5.91851H32.2702C32.6593 5.91851 32.9748 5.60316 32.9748 5.21389V0.704584C32.9748 0.315405 32.6594 -3.41798e-05 32.2702 -3.41798e-05H29.264C28.8749 -3.41798e-05 28.5594 0.315317 28.5594 0.704584C28.5594 1.09376 28.8748 1.4092 29.264 1.4092H31.5657V4.50936H13.4342V1.40911H25.5063C25.8953 1.40911 26.2109 1.09376 26.2109 0.704496C26.2109 0.315317 25.8954 -0.00012207 25.5063 -0.00012207H12.7296C12.3405 -0.00012207 12.025 0.315229 12.025 0.704496V5.21389C12.025 5.60307 12.3404 5.91851 12.7296 5.91851H18.0375V6.71708C18.0375 6.73299 18.0388 6.74846 18.0399 6.76402H5.96557C5.69864 6.76402 5.45466 6.91484 5.33539 7.15355L0.825995 16.1723C0.777391 16.2694 0.751551 16.3788 0.751551 16.4874V20.2453C0.751551 22.0505 2.0475 23.558 3.75784 23.8882V33.7734C3.75784 34.1625 4.07328 34.478 4.46246 34.478C4.85164 34.478 5.16708 34.1626 5.16708 33.7734V23.8882C6.10944 23.7062 6.92559 23.1668 7.46876 22.4169C8.14358 23.3484 9.23931 23.9561 10.475 23.9561C11.7108 23.9561 12.8065 23.3484 13.4813 22.4169C14.1562 23.3484 15.2519 23.9561 16.4876 23.9561C17.7234 23.9561 18.8191 23.3484 19.4939 22.4169C20.1688 23.3484 21.2645 23.9561 22.5002 23.9561C23.736 23.9561 24.8317 23.3484 25.5065 22.4169C26.1813 23.3484 27.2771 23.9561 28.5128 23.9561C29.7485 23.9561 30.8443 23.3484 31.5191 22.4169C32.1939 23.3484 33.2897 23.9561 34.5254 23.9561C35.761 23.9561 36.8569 23.3484 37.5317 22.4169C38.0749 23.1667 38.891 23.7061 39.8334 23.8882V39.0813H38.9879V38.1889C38.9879 37.0234 38.0397 36.0751 36.8741 36.0751H30.6737C29.5081 36.0751 28.5599 37.0234 28.5599 38.1889V39.0813H27.7144V25.5062C27.7144 25.117 27.399 24.8016 27.0098 24.8016H17.9906C17.6015 24.8016 17.2859 25.1169 17.2859 25.5062V39.0813H16.4404V38.1889C16.4404 37.0234 15.4923 36.0751 14.3267 36.0751H8.12626C6.96066 36.0751 6.0125 37.0234 6.0125 38.1889V39.0813H5.16699V37.5312C5.16699 37.142 4.85155 36.8266 4.46237 36.8266C4.0732 36.8266 3.75776 37.1419 3.75776 37.5312V43.5907H0.704618C0.315527 43.5907 0 43.9061 0 44.2954C0 44.6845 0.315439 44.9999 0.704618 44.9999H44.2954C44.6845 44.9999 45 44.6845 45 44.2953C44.9999 43.9061 44.6845 43.5907 44.2953 43.5907ZM6.76405 20.2453C6.76405 21.5145 5.73151 22.5469 4.46237 22.5469C3.19324 22.5469 2.1607 21.5145 2.1607 20.2453V17.192H6.76405V20.2453ZM6.96084 15.7828H2.5962L6.40097 8.17325H9.49736L6.96084 15.7828ZM12.7766 20.2453C12.7766 21.5145 11.7441 22.5469 10.475 22.5469C9.20582 22.5469 8.17329 21.5145 8.17329 20.2453V17.192H12.7766V20.2453ZM12.8842 15.7828H8.44627L10.9828 8.17325H14.1525L12.8842 15.7828ZM18.7891 20.2453C18.7891 21.5145 17.7566 22.5469 16.4875 22.5469C15.2183 22.5469 14.1858 21.5145 14.1858 20.2453V17.192H18.7891V20.2453ZM18.7891 15.7828H14.313L15.5812 8.17325H18.789V15.7828H18.7891ZM24.8016 20.2453C24.8016 21.5145 23.7691 22.5469 22.5 22.5469C21.2308 22.5469 20.1983 21.5145 20.1983 20.2453V17.192H24.8016V20.2453ZM24.8016 15.7828H20.1983V8.17325H24.8016V15.7828ZM25.5532 6.76402H25.5063H19.4938H19.4444C19.4455 6.74846 19.4468 6.7329 19.4468 6.71708V5.91851H25.5533L25.5532 6.76402ZM7.42173 38.1888C7.42173 37.8002 7.73779 37.4842 8.12635 37.4842H14.3268C14.7153 37.4842 15.0314 37.8002 15.0314 38.1888V39.0812H7.42182L7.42173 38.1888ZM17.2859 43.5907H5.16699V40.4906H17.2859V43.5907ZM26.3047 43.5907H18.6952V26.2107H26.3047V43.5907ZM29.9686 38.1888C29.9686 37.8002 30.2847 37.4842 30.6732 37.4842H36.8736C37.2622 37.4842 37.5783 37.8002 37.5783 38.1888V39.0812H29.9687V38.1888H29.9686ZM39.8329 43.5907H27.714V40.4906H39.8329V43.5907ZM26.2108 8.17325H29.4186L30.6869 15.7828H26.2108V8.17325ZM30.8141 20.2453C30.8141 21.5145 29.7816 22.5469 28.5125 22.5469C27.2433 22.5469 26.2108 21.5145 26.2108 20.2453V17.192H30.8141V20.2453ZM30.8473 8.17325H34.017L36.5536 15.7828H32.1154L30.8473 8.17325ZM36.8266 20.2453C36.8266 21.5145 35.7941 22.5469 34.525 22.5469C33.2558 22.5469 32.2233 21.5145 32.2233 20.2453V17.192H36.8266V20.2453ZM35.5026 8.17325H38.5989L42.4037 15.7828H38.0391L35.5026 8.17325ZM38.2359 20.2453V17.192H42.8392V20.2453C42.8392 21.5145 41.8067 22.5469 40.5375 22.5469C39.2684 22.5469 38.2359 21.5144 38.2359 20.2453Z" fill="#2D5632"/>
</svg>
