<svg width="48" height="40" viewBox="0 0 48 40" fill="none" xmlns="http://www.w3.org/2000/svg">
<path d="M39.8548 33.8264C41.7712 33.7952 45.0609 33.7203 46.6901 33.6828C47.2519 33.6704 47.7139 33.2334 47.7576 32.6716C48.0634 28.9387 47.6327 24.6752 45.5478 22.3406C43.4379 19.9747 41.8024 18.7949 35.9221 18.7949C29.3178 18.8948 18.556 19.0072 11.9579 19.107C7.2137 19.1445 4.19242 20.8299 1.9764 24.3506C0.0475242 27.4093 0.340913 31.1297 0.696725 33.4082C0.777875 33.9388 1.23981 34.3258 1.77665 34.3133C4.06758 34.2509 6.37723 34.2072 8.69938 34.1697L39.8548 33.8264Z" fill="#2D5632"/>
<path d="M14.536 39.1514C16.3463 39.0577 18.1066 38.0777 19.0492 36.5296C19.9918 34.9815 20.0417 32.9091 19.0929 31.3672C17.2015 28.3147 11.2026 28.3085 9.36111 31.4109C8.3873 33.0464 8.52464 35.2374 9.6108 36.798C10.6907 38.3648 12.6383 39.2512 14.536 39.1514Z" fill="#1A1D3F"/>
<path d="M28.6804 31.8479C27.7753 34.1326 28.6804 36.9729 30.6905 38.3899C32.7005 39.8131 35.6032 39.7507 37.6132 38.3337C39.4484 37.0415 40.2537 34.6008 39.6732 32.4347C38.3935 27.6406 30.497 27.2598 28.6804 31.8479Z" fill="#1A1D3F"/>
<path d="M29.9921 11.6854C31.7524 9.40073 32.4016 5.7677 30.0857 2.86502C29.4178 2.22206 28.394 1.52916 27.2767 1.11717C25.8035 0.555363 23.9869 0.742632 22.4888 1.22953C20.9906 1.72268 19.5986 2.81508 18.7496 4.1447C17.9132 5.44934 17.5386 6.99119 17.1766 8.50183C16.6023 10.9176 16.6023 13.1836 15.1478 15.7554C18.7372 16.5981 22.5262 16.3734 25.8784 14.844C27.4202 14.1449 28.9558 13.0338 29.9921 11.6854Z" fill="#6CBE46"/>
<path d="M44.1931 25.5623C44.8548 26.1241 45.7475 26.3551 46.6152 26.3676C46.7712 26.3676 46.9273 26.3676 47.3892 26.224C47.0334 24.7071 46.4404 23.3525 45.5477 22.3475C45.348 22.1228 45.1545 21.9168 44.961 21.7108C43.8998 22.2726 43.5252 22.7033 43.3754 23.2339C43.1444 24.0704 43.5315 25.0005 44.1931 25.5623Z" fill="#DDEDE7"/>
<path d="M15.2541 35.9179C15.9969 35.5621 16.4838 34.7318 16.4277 33.9141C16.3902 33.4022 16.153 32.8966 15.7597 32.572C14.6736 31.6731 12.9632 31.9353 12.4326 33.3148C12.1392 34.0826 12.3577 35.019 12.9632 35.5745C13.5624 36.1239 14.5113 36.2674 15.2541 35.9179Z" fill="#DDEDE7"/>
<path d="M32.6755 35.5124C33.1374 35.9119 33.7741 36.1117 34.3797 36.0305C35.2661 35.9182 36.0401 35.1816 36.2024 34.3014C36.5395 32.4537 34.4483 30.8057 32.8191 31.9543C32.2073 32.385 31.8515 33.1528 31.8952 33.9019C31.9264 34.5199 32.2136 35.1129 32.6755 35.5124Z" fill="#DDEDE7"/>
<path d="M2.66363 31.4985C2.86962 31.099 2.86962 30.6308 2.86962 30.1814C2.86962 29.6445 2.86338 29.1077 2.86338 28.5709C2.86338 27.8467 2.83841 27.0665 2.38897 26.4984C2.09558 26.1239 1.65237 25.9054 1.17796 25.818C0.534998 26.5171 0.13549 30.6371 0.534999 32.4723C0.778449 32.4785 1.0219 32.4661 1.25911 32.4286C1.8334 32.3287 2.40145 32.0166 2.66363 31.4985Z" fill="#6CBE46"/>
<path d="M43.894 25.9176C44.7617 26.6542 45.8541 26.8165 46.6094 26.829C46.6407 26.829 46.6719 26.829 46.7093 26.829C46.9528 26.829 47.2025 26.8165 47.4646 26.7853C47.7206 26.7603 47.9078 26.5293 47.8829 26.2734C47.8579 26.0175 47.6269 25.8302 47.371 25.8552C47.1088 25.8801 46.8654 25.8926 46.6282 25.8926C45.773 25.8801 45.0114 25.6367 44.4995 25.1997C43.9377 24.7253 43.6631 23.97 43.8379 23.3582C43.9814 22.8401 44.4558 22.3719 45.0926 22.1098C45.3298 22.0099 45.4484 21.7352 45.3485 21.498C45.2486 21.2608 44.974 21.1422 44.7368 21.2421C43.8191 21.6166 43.1574 22.297 42.9327 23.1023C42.6581 24.0761 43.0451 25.1997 43.894 25.9176Z" fill="#1A1D3F"/>
<path d="M25.3533 22.7283L27.045 22.6471C27.3009 22.6346 27.5007 22.4161 27.4882 22.154C27.4757 21.898 27.2572 21.6983 26.995 21.7108L25.3034 21.7919C25.0474 21.8044 24.8477 22.0229 24.8602 22.2851C24.8727 22.5347 25.0787 22.7283 25.3283 22.7283C25.3408 22.7283 25.3471 22.7283 25.3533 22.7283Z" fill="#1A1D3F"/>
<path d="M13.9878 22.5033C14.0066 22.753 14.2125 22.9403 14.456 22.9403C14.4685 22.9403 14.4747 22.9403 14.4872 22.9403L16.4535 22.8029C16.7095 22.7842 16.9092 22.5595 16.8905 22.3035C16.8718 22.0476 16.6471 21.8478 16.3911 21.8666L14.4248 22.0039C14.1626 22.0226 13.9691 22.2474 13.9878 22.5033Z" fill="#1A1D3F"/>
<path d="M0.558994 32.9844C0.608933 32.9844 0.658872 32.9844 0.70881 32.9844C0.95226 32.9844 1.17074 32.9657 1.38298 32.9282C2.16327 32.7909 2.81247 32.3477 3.11834 31.7547C3.38052 31.2491 3.37428 30.681 3.37428 30.2191C3.37428 29.6822 3.36804 29.1454 3.36804 28.6086C3.36804 27.9157 3.36179 26.9668 2.79374 26.249C2.44417 25.812 1.9323 25.5186 1.30183 25.4C1.0459 25.3501 0.802445 25.5186 0.758749 25.7745C0.715053 26.0305 0.877353 26.2739 1.13329 26.3176C1.41419 26.3676 1.80746 26.4987 2.06339 26.8295C2.40672 27.2602 2.43169 27.8907 2.43793 28.6148C2.43793 29.1516 2.44417 29.6885 2.44417 30.2191C2.44417 30.6123 2.44417 31.0181 2.28812 31.324C2.11333 31.661 1.71382 31.917 1.22068 32.0044C1.03341 32.0356 0.827414 32.0481 0.590206 32.0418C0.334271 32.0356 0.11579 32.2353 0.109548 32.4975C0.0970632 32.7597 0.303059 32.9719 0.558994 32.9844Z" fill="#1A1D3F"/>
<path d="M22.7939 19.8004C22.5317 19.8004 22.3257 20.0064 22.3257 20.2686C22.3132 23.5084 22.3819 29.3449 22.4505 32.4037C22.4568 32.6596 22.6628 32.8593 22.9187 32.8593C22.925 32.8593 22.925 32.8593 22.9312 32.8593C23.1871 32.8531 23.3931 32.6409 23.3869 32.3787C23.3182 29.3262 23.2496 23.4959 23.262 20.2686C23.262 20.0064 23.056 19.8004 22.7939 19.8004Z" fill="#1A1D3F"/>
<path d="M35.2176 12.8217C35.5672 14.7006 35.536 16.8854 35.4548 18.7769C35.4423 19.0328 35.6483 19.2513 35.9043 19.2638C35.9105 19.2638 35.9167 19.2638 35.923 19.2638C36.1727 19.2638 36.3787 19.064 36.3912 18.8143C36.4661 16.873 36.4973 14.6195 36.1352 12.6531C35.7732 10.6868 35.1427 9.27605 34.094 8.09001C33.9254 7.8965 33.6258 7.87778 33.4323 8.05256C33.2388 8.2211 33.2201 8.52073 33.3948 8.71424C34.325 9.76295 34.893 11.0301 35.2176 12.8217Z" fill="#1A1D3F"/>
<path d="M10.9844 19.6068C10.9969 19.6068 11.0093 19.6068 11.0218 19.6068C11.2778 19.588 11.4713 19.3571 11.4463 19.1011C11.2965 17.347 11.3027 15.724 11.4588 14.126C11.6398 12.3032 12.1704 10.7926 13.0443 9.63778C13.5749 8.9324 14.2616 8.32065 15.0981 7.80878C15.3165 7.67145 15.3852 7.3843 15.2541 7.16582C15.1168 6.94734 14.8296 6.87867 14.6112 7.00976C13.6748 7.58406 12.9008 8.27695 12.3015 9.07597C11.3215 10.3744 10.7284 12.0473 10.5287 14.0386C10.3664 15.6866 10.3601 17.372 10.5162 19.1823C10.5412 19.4257 10.7409 19.6068 10.9844 19.6068Z" fill="#1A1D3F"/>
<path d="M19.3482 13.7328C19.4481 13.7328 19.5417 13.7016 19.6291 13.6392C24.4732 10.0186 28.7242 5.68021 32.2698 0.74254C32.4196 0.530301 32.3697 0.236912 32.1637 0.0870965C31.9577 -0.0627191 31.6581 -0.0127808 31.5083 0.193216C28.0188 5.04974 23.8365 9.31948 19.0673 12.8838C18.8613 13.0399 18.8176 13.3333 18.9737 13.5393C19.0673 13.6641 19.2109 13.7328 19.3482 13.7328Z" fill="#1A1D3F"/>
</svg>
