<svg width="55" height="48" viewBox="0 0 55 48" fill="none" xmlns="http://www.w3.org/2000/svg">
<path d="M53.3531 19.29C54.1917 18.1307 54.5052 16.4973 54.6146 15.3379C54.7459 13.989 54.6948 12.4796 54.4688 11.2036C54.425 10.9411 54.199 10.7515 53.9365 10.7515C53.0979 10.7442 52.2813 10.7442 51.4792 10.7442C51.4646 10.0807 51.45 9.41711 51.4354 8.74628C51.4136 7.90044 51.399 7.0619 51.3771 6.21607C51.3698 5.91711 51.1219 5.67648 50.8156 5.68378C50.5167 5.69107 50.2761 5.93899 50.2834 6.24524C50.3052 7.09107 50.3198 7.92961 50.3417 8.77544C50.3563 9.43169 50.3709 10.0879 50.3854 10.7515C49.1386 10.7588 47.899 10.7807 46.5865 10.8171L46.5063 6.5369C46.499 6.23794 46.2584 5.99732 45.9594 5.99732H45.9521C45.6531 6.00461 45.4125 6.25253 45.4125 6.55148L45.4927 10.8463C44.6906 10.8754 43.8521 10.9119 42.9625 10.9557C42.6781 10.9702 42.4521 11.2036 42.4448 11.4879C42.3573 14.4265 42.4667 17.6859 43.8813 19.5525C44.8656 20.8432 46.4261 21.6671 48.0594 21.7911L48.0667 21.9806C48.0667 21.9879 48.0667 21.9952 48.0667 22.0025C48.3656 26.4359 47.2209 31.1171 44.8511 35.1786C42.4813 39.24 38.9667 42.5286 34.9563 44.4463C30.9459 46.364 26.1771 47.0348 21.525 46.3348C16.8802 45.6348 12.5198 43.5859 9.25314 40.5671C5.98648 37.5484 3.6021 33.3702 2.53023 28.7911C1.46564 24.2119 1.75731 19.3994 3.35418 15.2504C5.28648 10.2192 8.73543 6.25982 13.3219 3.80253C17.5875 1.51294 22.7208 0.637944 27.7667 1.33794C31.8209 1.8994 35.7365 3.45253 39.0979 5.8369C39.3459 6.0119 39.6886 5.95357 39.8636 5.70565C40.0386 5.45773 39.9802 5.11503 39.7323 4.94003C36.2323 2.45357 32.149 0.834819 27.9198 0.244194C22.6406 -0.484973 17.274 0.433777 12.8042 2.83274C7.9771 5.42128 4.36043 9.57753 2.33335 14.8494C0.663559 19.2025 0.357309 24.2338 1.47293 29.0244C2.58856 33.815 5.0896 38.19 8.51668 41.3546C11.9438 44.5192 16.5084 46.6629 21.3646 47.3994C22.6188 47.589 23.8875 47.6838 25.1417 47.6838C28.7511 47.6838 32.3094 46.9109 35.4302 45.4161C39.6375 43.4036 43.3198 39.9546 45.799 35.7109C48.2781 31.4671 49.474 26.5744 49.1604 21.9223L49.1531 21.7546C50.8011 21.5723 52.3761 20.6463 53.3531 19.29ZM48.65 20.7119C48.6281 20.7119 48.6063 20.7119 48.5917 20.7119C48.5844 20.7119 48.5844 20.7119 48.5771 20.7119H48.5698C47.0896 20.7411 45.6386 20.0411 44.7563 18.889C43.5094 17.2484 43.4875 13.8723 43.524 12.0275C44.4063 11.9838 45.2375 11.9546 46.0396 11.9254C46.0396 11.9254 46.0396 11.9254 46.0469 11.9254H46.0542C46.0615 11.9254 46.0688 11.9254 46.0761 11.9254C48.6573 11.8379 50.9396 11.8307 53.4625 11.8452C53.8927 14.8129 53.3021 17.489 52.4636 18.6556C51.5886 19.8734 50.1229 20.6609 48.65 20.7119ZM31.0406 27.7629C34.1396 26.8296 36.1375 25.0796 37.5156 22.0754C38.9011 19.064 38.2886 15.4546 35.9625 12.8807C34.074 10.7952 31.8209 10.5546 29.2906 10.4744C24.1209 10.3067 20.0959 10.7296 15.8375 11.889C15.5969 11.9546 15.4292 12.1807 15.4365 12.4286C15.5167 16.4682 15.5969 20.8942 15.6698 25.1671C15.7427 29.44 15.8229 33.8661 15.9031 37.9057C15.9104 38.2046 16.1511 38.4379 16.4427 38.4379C16.6906 38.4379 16.9531 38.4379 17.2302 38.4379C17.9302 38.4379 18.6886 38.4307 19.425 38.4234C20.4459 38.4161 21.5031 38.4088 22.3927 38.4161C22.699 38.4234 22.9396 38.1754 22.9469 37.8765C22.9615 36.6004 22.9396 34.8869 22.925 33.2244C22.9104 31.7806 22.8886 30.2931 22.8959 29.0973C26.5344 28.7911 28.5469 28.514 31.0406 27.7629ZM22.2906 28.0546C22.0063 28.0765 21.7948 28.3098 21.7875 28.5942C21.7729 29.8702 21.7948 31.5838 21.8094 33.2463C21.824 34.6754 21.8386 36.1411 21.8386 37.3296C21.0729 37.3296 20.2271 37.3369 19.4031 37.3442C18.5792 37.3515 17.7334 37.3588 16.975 37.3588C16.8948 33.465 16.8219 29.2431 16.749 25.1525C16.6761 21.0254 16.6031 16.7671 16.5229 12.8369C20.5188 11.7869 24.3542 11.4077 29.2469 11.5682C31.6021 11.6484 33.5344 11.8452 35.1459 13.6171C37.1802 15.8629 37.7198 19.0056 36.5167 21.6234C35.2625 24.3504 33.5344 25.8744 30.7198 26.7202C28.4375 27.4057 26.6219 27.69 22.2906 28.0546ZM30.8729 17.2629C30.0927 15.7609 28.9261 15.4911 27.8906 15.4181C25.9511 15.2869 24.3396 15.2942 21.8531 15.7171C21.5834 15.7609 21.3865 16.0015 21.3938 16.2713C21.4302 17.4088 21.474 18.5025 21.5104 19.6036C21.5469 20.6973 21.5906 21.7911 21.6271 22.9286C21.6344 23.0744 21.7 23.2129 21.8094 23.315C21.9115 23.4025 22.0427 23.4536 22.174 23.4536C22.1886 23.4536 22.1959 23.4536 22.2104 23.4536C22.5167 23.4317 22.8813 23.4171 23.2677 23.4025C25.8927 23.2931 29.8594 23.1254 30.924 20.8067C31.3469 19.9025 31.3177 18.1161 30.8729 17.2629ZM29.9396 20.3546C29.1521 22.0682 25.4479 22.2213 23.2313 22.3161C23.049 22.3234 22.874 22.3307 22.7136 22.3379C22.6844 21.3973 22.6479 20.4786 22.6188 19.5671C22.5823 18.6265 22.5531 17.6859 22.5167 16.7234C24.6386 16.3952 26.0969 16.4025 27.8323 16.5119C28.7438 16.5702 29.4146 16.8036 29.9104 17.7661C30.1875 18.3129 30.2021 19.764 29.9396 20.3546Z" fill="#2D5632"/>
<path d="M42.9917 11.5026C42.9261 13.8067 42.9188 17.3796 44.3188 19.2171C45.325 20.5442 47.0021 21.3171 48.6646 21.2588C50.3271 21.2005 51.9313 20.3182 52.9084 18.9692C54.25 17.1099 54.3302 13.5515 53.9292 11.2984C50.2979 11.2692 47.1406 11.2984 42.9917 11.5026Z" fill="#6CBE46"/>
<path d="M29.2688 11.0213C24.5948 10.8682 20.4896 11.189 15.9761 12.414C16.1438 20.5005 16.2823 29.8046 16.4427 37.8911C18.2292 37.9057 20.599 37.8619 22.3927 37.8765C22.4219 35.339 22.3198 31.139 22.3417 28.6015C26.4615 28.2515 28.4375 27.9744 30.8875 27.238C33.8625 26.3411 35.7292 24.6713 37.0198 21.8494C38.3177 19.0276 37.7344 15.6588 35.5542 13.2526C33.8407 11.364 31.8136 11.1015 29.2688 11.0213ZM30.4354 20.5807C29.3636 22.9213 24.449 22.7609 22.1813 22.914C22.1011 20.639 22.0209 18.5317 21.9479 16.2567C24.3032 15.863 25.8636 15.8338 27.8615 15.9651C28.9552 16.038 29.7938 16.3588 30.3917 17.5109C30.7563 18.2255 30.7709 19.8442 30.4354 20.5807Z" fill="#2D5632"/>
<path d="M45.9594 5.98999H45.9521C45.6532 5.99728 45.4125 6.2452 45.4125 6.54416L45.5073 11.3785C45.5146 11.6775 45.7552 11.9181 46.0542 11.9181H46.0615C46.3605 11.9108 46.6011 11.6629 46.6011 11.3639L46.5063 6.52957C46.499 6.23061 46.2584 5.98999 45.9594 5.98999Z" fill="#2D5632"/>
<path d="M50.8157 5.68376C50.5167 5.69105 50.2761 5.93896 50.2834 6.24521C50.3052 7.09105 50.3198 7.92959 50.3417 8.77542C50.3636 9.62125 50.3782 10.4598 50.4 11.3056C50.4073 11.6046 50.648 11.8379 50.9469 11.8379C50.9542 11.8379 50.9542 11.8379 50.9615 11.8379C51.2605 11.8306 51.5011 11.5827 51.4938 11.2765C51.4719 10.4306 51.4573 9.59209 51.4355 8.74625C51.4136 7.90042 51.399 7.06188 51.3771 6.21605C51.3698 5.91709 51.1146 5.67646 50.8157 5.68376Z" fill="#2D5632"/>
<path d="M45.799 35.7254C48.2781 31.4817 49.474 26.589 49.1604 21.9369L49.1386 21.2442C49.1313 20.9452 48.8761 20.7046 48.5771 20.7119C48.2781 20.7192 48.0375 20.9744 48.0448 21.2734L48.0667 21.9734C48.0667 21.9806 48.0667 21.9879 48.0667 21.9952C48.3656 26.4286 47.2208 31.1098 44.8511 35.1713C42.4813 39.2327 38.9667 42.5213 34.9563 44.439C30.9459 46.3567 26.1771 47.0275 21.525 46.3275C16.8802 45.6275 12.5198 43.5786 9.25314 40.5598C5.98647 37.5411 3.6021 33.3629 2.53023 28.7838C1.46564 24.2119 1.75731 19.3994 3.35418 15.2504C5.28648 10.2192 8.73543 6.25982 13.3219 3.80253C17.5875 1.51294 22.7208 0.637944 27.7667 1.33794C31.8208 1.8994 35.7365 3.45253 39.0979 5.8369C39.3459 6.0119 39.6886 5.95357 39.8636 5.70565C40.0386 5.45773 39.9802 5.11503 39.7323 4.94003C36.2323 2.45357 32.149 0.834819 27.9198 0.244194C22.6406 -0.484973 17.274 0.433777 12.8042 2.83274C7.9771 5.42128 4.36043 9.57753 2.33335 14.8494C0.663559 19.2025 0.357309 24.2338 1.47293 29.0244C2.58856 33.815 5.0896 38.19 8.51668 41.3546C11.9438 44.5192 16.5084 46.6629 21.3646 47.3994C22.6188 47.589 23.8875 47.6838 25.1417 47.6838C28.7511 47.6838 32.3094 46.9109 35.4302 45.4161C39.6375 43.4182 43.3198 39.9692 45.799 35.7254Z" fill="#181818"/>
</svg>
