<svg width="153" height="45" viewBox="0 0 153 45" fill="none" xmlns="http://www.w3.org/2000/svg">
<path d="M151.492 39.6864C151.492 40.2527 151.38 40.8135 151.163 41.3367C150.946 41.8599 150.628 42.3353 150.227 42.7355C149.826 43.1358 149.35 43.4532 148.826 43.6695C148.301 43.8858 147.74 43.9969 147.173 43.9963H5.82723C4.68161 43.9975 3.58243 43.5441 2.77141 42.7359C1.96038 41.9276 1.50393 40.8307 1.50244 39.6864V5.31605C1.50393 4.17117 1.9602 3.07367 2.77106 2.26454C3.58192 1.45541 4.68109 1.00079 5.82723 1.00049H147.172C147.739 1.00049 148.301 1.11212 148.825 1.32901C149.349 1.5459 149.825 1.8638 150.226 2.26455C150.627 2.66531 150.946 3.14106 151.163 3.66464C151.38 4.18822 151.491 4.74937 151.491 5.31605L151.492 39.6864Z" fill="white"/>
<path d="M147.173 45H5.8274C4.41614 44.9997 3.06263 44.4402 2.06387 43.4442C1.06511 42.4482 0.502685 41.0971 0.5 39.6874L0.5 5.31821C0.502088 3.90779 1.06414 2.55578 2.06287 1.55878C3.0616 0.561775 4.41544 0.00119045 5.8274 0L147.172 0C148.584 0.00178446 149.937 0.56256 150.936 1.55944C151.935 2.55631 152.497 3.90797 152.499 5.31821V39.6874C152.502 42.6177 150.108 45 147.173 45Z" fill="#6B6B6B"/>
<path d="M151.492 39.6864C151.492 40.2527 151.38 40.8135 151.163 41.3367C150.946 41.8599 150.628 42.3353 150.227 42.7355C149.826 43.1358 149.35 43.4532 148.826 43.6695C148.301 43.8858 147.74 43.9969 147.173 43.9963H5.82723C4.68161 43.9975 3.58243 43.5441 2.77141 42.7359C1.96038 41.9276 1.50393 40.8307 1.50244 39.6864V5.31605C1.50393 4.17117 1.9602 3.07367 2.77106 2.26454C3.58192 1.45541 4.68109 1.00079 5.82723 1.00049H147.172C147.739 1.00049 148.301 1.11212 148.825 1.32901C149.349 1.5459 149.825 1.8638 150.226 2.26455C150.627 2.66531 150.946 3.14106 151.163 3.66464C151.38 4.18822 151.491 4.74937 151.491 5.31605L151.492 39.6864Z" fill="black"/>
<path d="M34.4399 22.2654C34.4073 18.6385 37.4129 16.874 37.5503 16.7919C35.8481 14.3128 33.2098 13.9741 32.2826 13.9471C30.0667 13.7141 27.9173 15.2716 26.7885 15.2716C25.6372 15.2716 23.8989 13.9696 22.0255 14.0078C19.6147 14.045 17.3594 15.4392 16.1224 17.6043C13.5697 22.0189 15.4735 28.5063 17.9192 32.0747C19.1427 33.8234 20.5722 35.7736 22.4434 35.7049C24.2741 35.6307 24.9579 34.5402 27.167 34.5402C29.3559 34.5402 29.998 35.7049 31.9064 35.661C33.871 35.6307 35.108 33.9056 36.2886 32.1422C37.7024 30.1403 38.2702 28.1665 38.2927 28.0652C38.2476 28.0495 34.4782 26.6113 34.4399 22.2654ZM30.835 11.5997C31.8196 10.3697 32.4933 8.69638 32.3063 6.99829C30.8812 7.06131 29.099 7.98294 28.0727 9.18589C27.1648 10.2459 26.3536 11.9834 26.5632 13.6174C28.164 13.7366 29.8076 12.8105 30.835 11.5997Z" fill="white"/>
<path d="M147.173 0H71.4639L101.118 45H147.173C148.584 44.9988 149.938 44.4385 150.937 43.442C151.935 42.4455 152.498 41.0941 152.5 39.684V5.31821C152.498 3.90788 151.936 2.55605 150.937 1.55911C149.938 0.562168 148.585 0.00148757 147.173 0Z" fill="url(#paint0_linear_394_27114)"/>
<path d="M60.956 35.451H58.3976L56.9962 31.0521H52.125L50.7901 35.451H48.2993L53.1265 20.4753H56.1074L60.956 35.451ZM56.5737 29.2066L55.3064 25.2962C55.1723 24.8967 54.92 23.9559 54.5505 22.475H54.5054C54.3567 23.1119 54.119 24.0527 53.7934 25.2962L52.5475 29.2066H56.5737ZM73.3457 29.9189C73.3457 31.7554 72.8466 33.2071 71.8474 34.2728C70.9529 35.2214 69.841 35.6952 68.5151 35.6952C67.0832 35.6952 66.0536 35.1854 65.4283 34.1636V39.8295H63.0266V28.2017C63.0266 27.0483 62.9961 25.8656 62.9376 24.6525H65.0498L65.1839 26.3641H65.2289C66.0299 25.0745 67.2454 24.4297 68.8767 24.4297C70.1519 24.4297 71.2165 24.9327 72.0682 25.9398C72.9187 26.9493 73.3457 28.2749 73.3457 29.9189ZM70.8988 30.0067C70.8988 28.9557 70.6622 28.0892 70.1868 27.4061C69.6675 26.6961 68.9702 26.3405 68.096 26.3405C67.5034 26.3405 66.9649 26.5385 66.4839 26.929C66.0017 27.3229 65.6863 27.8371 65.5387 28.474C65.4729 28.7122 65.4354 28.9574 65.4272 29.2044V31.006C65.4272 31.7903 65.6683 32.4531 66.1504 32.9955C66.6326 33.5357 67.259 33.8069 68.0295 33.8069C68.9341 33.8069 69.6382 33.4569 70.1418 32.7626C70.6465 32.066 70.8988 31.1478 70.8988 30.0067ZM85.7793 29.9189C85.7793 31.7554 85.2802 33.2071 84.281 34.2728C83.3854 35.2214 82.2746 35.6952 80.9475 35.6952C79.5157 35.6952 78.486 35.1854 77.8608 34.1636V39.8295H75.459V28.2017C75.459 27.0483 75.4286 25.8656 75.37 24.6525H77.4823L77.6164 26.3641H77.6614C78.4613 25.0745 79.6768 24.4297 81.3092 24.4297C82.5833 24.4297 83.6479 24.9327 84.5018 25.9398C85.3512 26.9493 85.7793 28.2749 85.7793 29.9189ZM83.3313 30.0067C83.3313 28.9557 83.0936 28.0892 82.6182 27.4061C82.0989 26.6961 81.4038 26.3405 80.5296 26.3405C79.937 26.3405 79.3985 26.5385 78.9153 26.929C78.4331 27.3229 78.1188 27.8371 77.9712 28.474C77.898 28.7711 77.8586 29.0131 77.8586 29.2044V31.006C77.8586 31.7903 78.1008 32.4531 78.5807 32.9955C79.0628 33.5346 79.6892 33.8069 80.462 33.8069C81.3677 33.8069 82.0718 33.4569 82.5743 32.7626C83.0789 32.066 83.3313 31.1478 83.3313 30.0067ZM99.6807 31.2502C99.6807 32.5252 99.2346 33.5616 98.3481 34.3617C97.3725 35.2349 96.0105 35.6726 94.2644 35.6726C92.6511 35.6726 91.3579 35.3621 90.3823 34.7398L90.9377 32.7401C91.991 33.3635 93.148 33.6741 94.4074 33.6741C95.3132 33.6741 96.0172 33.4693 96.5197 33.0631C97.0232 32.6557 97.2778 32.111 97.2778 31.4314C97.2778 30.8226 97.0672 30.3128 96.6537 29.8976C96.238 29.4834 95.5509 29.0975 94.5854 28.743C91.9606 27.7651 90.647 26.3348 90.647 24.4533C90.647 23.2245 91.1112 22.2185 92.0372 21.4319C92.9632 20.6464 94.1911 20.2537 95.7187 20.2537C97.083 20.2537 98.2196 20.4911 99.122 20.9649L98.5193 22.9206C97.6699 22.4615 96.7112 22.232 95.6387 22.232C94.7916 22.232 94.1269 22.4401 93.6515 22.8543C93.2516 23.2245 93.0488 23.6757 93.0488 24.2114C93.0488 24.8022 93.2798 25.2928 93.7394 25.6777C94.1382 26.0321 94.8659 26.4181 95.9181 26.8322C97.2091 27.3521 98.1577 27.9575 98.7649 28.653C99.3766 29.3484 99.6807 30.216 99.6807 31.2502ZM107.642 26.453H104.995V31.6958C104.995 33.0293 105.461 33.6944 106.396 33.6944C106.825 33.6944 107.181 33.6583 107.463 33.5829L107.529 35.4048C107.056 35.5815 106.433 35.6704 105.662 35.6704C104.713 35.6704 103.972 35.3812 103.437 34.8028C102.904 34.2244 102.636 33.2555 102.636 31.8916V26.4485H101.059V24.648H102.636V22.6708L104.995 21.9596V24.648H107.642V26.453ZM119.563 29.9628C119.563 31.6227 119.088 32.9854 118.139 34.0511C117.147 35.1483 115.826 35.6952 114.18 35.6952C112.592 35.6952 111.329 35.1696 110.387 34.1197C109.446 33.0676 108.975 31.7419 108.975 30.1429C108.975 28.4695 109.461 27.0989 110.431 26.0332C111.404 24.9665 112.713 24.4331 114.358 24.4331C115.945 24.4331 117.219 24.9597 118.183 26.0107C119.105 27.0303 119.563 28.3469 119.563 29.9628ZM117.073 30.018C117.073 29.0288 116.859 28.1803 116.43 27.4703C115.927 26.6128 115.206 26.184 114.272 26.184C113.31 26.184 112.572 26.6128 112.069 27.4703C111.639 28.1803 111.425 29.0435 111.425 30.063C111.425 31.0533 111.639 31.904 112.069 32.6118C112.589 33.4693 113.313 33.898 114.251 33.898C115.17 33.898 115.889 33.4603 116.41 32.5904C116.851 31.8635 117.073 31.0094 117.073 30.018ZM127.373 26.7625C127.124 26.7174 126.87 26.6952 126.616 26.6961C125.771 26.6961 125.118 27.0134 124.658 27.6526C124.26 28.2152 124.059 28.9264 124.059 29.785V35.451H121.657V28.0532C121.659 26.9196 121.636 25.7861 121.587 24.6536H123.679L123.767 26.7197H123.834C124.088 26.0096 124.487 25.4368 125.035 25.0081C125.536 24.6335 126.145 24.4306 126.771 24.4297C126.993 24.4297 127.193 24.4454 127.371 24.4736L127.373 26.7625ZM138.115 29.5408C138.121 29.9056 138.092 30.27 138.027 30.629H130.822C130.849 31.6958 131.198 32.5128 131.867 33.0754C132.474 33.5773 133.259 33.8294 134.224 33.8294C135.291 33.8294 136.264 33.6606 137.139 33.3196L137.516 34.984C136.493 35.4296 135.285 35.6513 133.891 35.6513C132.215 35.6513 130.899 35.1584 129.942 34.1749C128.987 33.1902 128.508 31.8669 128.508 30.2093C128.508 28.5821 128.953 27.2261 129.844 26.1447C130.777 24.9901 132.037 24.4128 133.623 24.4128C135.181 24.4128 136.361 24.9901 137.162 26.1447C137.796 27.0595 138.115 28.1938 138.115 29.5408ZM135.825 28.9185C135.842 28.2062 135.684 27.5929 135.358 27.0742C134.943 26.4057 134.303 26.0726 133.445 26.0726C132.66 26.0726 132.02 26.3978 131.534 27.0505C131.134 27.5693 130.896 28.1927 130.823 28.9163L135.825 28.9185Z" fill="white"/>
<path d="M51.4321 15.1792C50.764 15.1792 50.1861 15.1466 49.7051 15.0914V7.85121C50.3779 7.74739 51.0577 7.69622 51.7385 7.69817C54.4929 7.69817 55.7614 9.05191 55.7614 11.2586C55.7614 13.8041 54.2631 15.1792 51.4321 15.1792ZM51.8354 8.62655C51.4636 8.62655 51.147 8.64905 50.8846 8.70307V14.207C51.0265 14.2295 51.2991 14.2396 51.6822 14.2396C53.4869 14.2396 54.5143 13.2133 54.5143 11.2913C54.5143 9.57743 53.5849 8.62655 51.8354 8.62655ZM59.7144 15.2344C58.162 15.2344 57.156 14.0764 57.156 12.5044C57.156 10.8659 58.1834 9.69784 59.8022 9.69784C61.3321 9.69784 62.3606 10.8006 62.3606 12.4177C62.3606 14.0764 61.3005 15.2344 59.7144 15.2344ZM59.7594 10.5598C58.9066 10.5598 58.3603 11.3565 58.3603 12.4706C58.3603 13.5633 58.9179 14.36 59.7482 14.36C60.5784 14.36 61.1361 13.5081 61.1361 12.4481C61.1361 11.3678 60.5897 10.5598 59.7594 10.5598ZM71.213 9.807L69.5513 15.114H68.4687L67.7804 12.8093C67.6093 12.2456 67.4668 11.6736 67.3534 11.0955H67.3309C67.2442 11.6739 67.0797 12.2534 66.9051 12.8093L66.1728 15.114H65.079L63.5153 9.807H64.7286L65.3302 12.3299C65.4721 12.9309 65.5915 13.498 65.6907 14.0337H65.7132C65.7999 13.5869 65.9419 13.0288 66.1503 12.3412L66.9051 9.80812H67.8671L68.5893 12.2872C68.7639 12.8881 68.9058 13.4778 69.0162 14.0348H69.0478C69.1244 13.489 69.2449 12.9095 69.4082 12.2872L70.0538 9.80812L71.213 9.807ZM77.3301 15.114H76.1495V12.0666C76.1495 11.1281 75.789 10.6577 75.0781 10.6577C74.3785 10.6577 73.8975 11.2586 73.8975 11.9575V15.114H72.7169V11.3239C72.7169 10.8547 72.7056 10.3516 72.673 9.80587H73.7116L73.7668 10.6251H73.7995C74.1172 10.0579 74.7616 9.69784 75.4837 9.69784C76.5989 9.69784 77.3312 10.5497 77.3312 11.9361L77.3301 15.114ZM80.5858 15.114H79.404V7.37183H80.5858V15.114ZM84.8903 15.2344C83.339 15.2344 82.3319 14.0764 82.3319 12.5044C82.3319 10.8659 83.3593 9.69784 84.977 9.69784C86.508 9.69784 87.5354 10.8006 87.5354 12.4177C87.5365 14.0764 86.4753 15.2344 84.8903 15.2344ZM84.9342 10.5598C84.0814 10.5598 83.535 11.3565 83.535 12.4706C83.535 13.5633 84.0938 14.36 84.9218 14.36C85.7532 14.36 86.3097 13.5081 86.3097 12.4481C86.3108 11.3678 85.7656 10.5598 84.9342 10.5598ZM92.1902 15.114L92.1046 14.5029H92.0731C91.7126 14.9947 91.1865 15.2344 90.5196 15.2344C89.5677 15.2344 88.8917 14.5682 88.8917 13.6724C88.8917 12.3626 90.0284 11.6851 91.9965 11.6851V11.5872C91.9965 10.8884 91.6258 10.5384 90.8936 10.5384C90.3698 10.5384 89.9101 10.6701 89.5057 10.9323L89.2657 10.157C89.7569 9.85088 90.3698 9.69784 91.0896 9.69784C92.4775 9.69784 93.1782 10.4293 93.1782 11.8933V13.848C93.1782 14.3836 93.2019 14.7989 93.2548 15.1151L92.1902 15.114ZM92.028 12.4706C90.7167 12.4706 90.0588 12.7879 90.0588 13.5408C90.0588 14.0978 90.3979 14.3701 90.8688 14.3701C91.4693 14.3701 92.028 13.9121 92.028 13.2898V12.4706ZM98.9112 15.114L98.856 14.2621H98.8233C98.4842 14.9058 97.9142 15.2344 97.1177 15.2344C95.8369 15.2344 94.8883 14.1091 94.8883 12.5257C94.8883 10.8659 95.8718 9.69672 97.2146 9.69672C97.9255 9.69672 98.429 9.93641 98.7129 10.418H98.7366V7.37183H99.9183V13.6837C99.9183 14.1968 99.9307 14.6773 99.9622 15.114H98.9112ZM98.7366 11.9912C98.7366 11.2485 98.2443 10.615 97.4929 10.615C96.6175 10.615 96.0824 11.3903 96.0824 12.4819C96.0824 13.552 96.6378 14.2846 97.4692 14.2846C98.2116 14.2846 98.7366 13.6398 98.7366 12.8757V11.9912ZM107.411 15.2344C105.86 15.2344 104.854 14.0764 104.854 12.5044C104.854 10.8659 105.881 9.69784 107.499 9.69784C109.03 9.69784 110.057 10.8006 110.057 12.4177C110.058 14.0764 108.998 15.2344 107.411 15.2344ZM107.455 10.5598C106.603 10.5598 106.057 11.3565 106.057 12.4706C106.057 13.5633 106.614 14.36 107.444 14.36C108.275 14.36 108.831 13.5081 108.831 12.4481C108.834 11.3678 108.287 10.5598 107.455 10.5598ZM116.406 15.114H115.225V12.0666C115.225 11.1281 114.864 10.6577 114.153 10.6577C113.454 10.6577 112.974 11.2586 112.974 11.9575V15.114H111.792V11.3239C111.792 10.8547 111.781 10.3516 111.748 9.80587H112.787L112.842 10.6251H112.875C113.191 10.0579 113.837 9.69672 114.558 9.69672C115.673 9.69672 116.406 10.5486 116.406 11.935V15.114ZM124.35 10.6915H123.051V13.2684C123.051 13.9245 123.278 14.252 123.738 14.252C123.946 14.252 124.121 14.2295 124.262 14.1968L124.294 15.0926C124.066 15.1803 123.759 15.2242 123.378 15.2242C122.448 15.2242 121.891 14.7111 121.891 13.3675V10.6915H121.116V9.807H121.891V8.83473L123.051 8.48476V9.80587H124.35V10.6915ZM130.6 15.114H129.42V12.0891C129.42 11.1394 129.061 10.6589 128.349 10.6589C127.737 10.6589 127.167 11.0741 127.167 11.9147V15.114H125.988V7.37183H127.167V10.5598H127.191C127.562 9.98142 128.101 9.69672 128.788 9.69672C129.912 9.69672 130.6 10.57 130.6 11.9575V15.114ZM137.003 12.7441H133.46C133.482 13.749 134.148 14.3161 135.134 14.3161C135.658 14.3161 136.14 14.2283 136.566 14.0652L136.749 14.8844C136.247 15.1027 135.656 15.2119 134.967 15.2119C133.306 15.2119 132.322 14.1631 132.322 12.537C132.322 10.9098 133.329 9.68659 134.834 9.68659C136.192 9.68659 137.043 10.6915 137.043 12.2095C137.051 12.3887 137.037 12.5681 137.003 12.7441ZM135.92 11.9034C135.92 11.0842 135.507 10.5058 134.752 10.5058C134.074 10.5058 133.538 11.0955 133.461 11.9034H135.92Z" fill="white"/>
<defs>
<linearGradient id="paint0_linear_394_27114" x1="111.981" y1="45.1195" x2="111.981" y2="-117.172" gradientUnits="userSpaceOnUse">
<stop stop-color="#1A1A1A" stop-opacity="0.1"/>
<stop offset="0.123" stop-color="#212121" stop-opacity="0.151"/>
<stop offset="0.308" stop-color="#353535" stop-opacity="0.227"/>
<stop offset="0.532" stop-color="#575757" stop-opacity="0.318"/>
<stop offset="0.783" stop-color="#858585" stop-opacity="0.421"/>
<stop offset="1" stop-color="#B3B3B3" stop-opacity="0.51"/>
</linearGradient>
</defs>
</svg>
