<svg width="45" height="45" viewBox="0 0 45 45" fill="none" xmlns="http://www.w3.org/2000/svg">
<path d="M18.7617 18.6002H9.7893C9.40215 18.6002 9.08838 18.9141 9.08838 19.3011V26.7782C9.08838 27.1653 9.40224 27.4791 9.7893 27.4791H18.7617C19.1488 27.4791 19.4626 27.1652 19.4626 26.7782V19.3011C19.4627 18.9141 19.1488 18.6002 18.7617 18.6002ZM13.5746 26.0772H10.4903V20.0022H13.5746V26.0772ZM18.0608 26.0772H14.9765V20.0022H18.0608V26.0772Z" fill="#2D5632"/>
<path d="M35.211 18.6002H26.2386C25.8514 18.6002 25.5377 18.9141 25.5377 19.3011V26.7782C25.5377 27.1653 25.8515 27.4791 26.2386 27.4791H35.211C35.5983 27.4791 35.9119 27.1652 35.9119 26.7782V19.3011C35.9119 18.9141 35.5982 18.6002 35.211 18.6002ZM30.0238 26.0772H26.9396V20.0022H30.0238V26.0772ZM34.51 26.0772H31.4258V20.0022H34.51V26.0772Z" fill="#2D5632"/>
<path d="M25.4908 8.88025H19.5093C19.1221 8.88025 18.8083 9.19411 18.8083 9.58117V15.5627C18.8083 15.9499 19.1222 16.2637 19.5093 16.2637H25.4908C25.8781 16.2637 26.1918 15.9498 26.1918 15.5627V9.58117C26.1918 9.19411 25.8779 8.88025 25.4908 8.88025ZM21.7991 14.8619H20.2102V13.273H21.7991V14.8619ZM21.7991 11.8711H20.2102V10.2822H21.7991V11.8711ZM24.7898 14.8619H23.2009V13.273H24.7898V14.8619ZM24.7898 11.8711H23.2009V10.2822H24.7898V11.8711Z" fill="#2D5632"/>
<path d="M21.0048 35.7974C20.6176 35.7974 20.3038 36.1112 20.3038 36.4983V37.246C20.3038 37.6331 20.6177 37.9469 21.0048 37.9469C21.3919 37.9469 21.7057 37.633 21.7057 37.246V36.4983C21.7057 36.1112 21.3918 35.7974 21.0048 35.7974Z" fill="#2D5632"/>
<path d="M44.1833 43.2744H43.3374C43.837 42.6445 44.1366 41.849 44.1366 40.9846C44.1366 38.9489 42.4804 37.2928 40.4448 37.2928C39.8945 37.2928 39.3724 37.4148 38.9027 37.6316V17.6664L42.1363 20.2072C42.4368 20.4433 42.8847 20.3894 43.1206 20.0891L44.8529 17.8842C45.0888 17.5839 45.0348 17.1358 44.7348 16.9L37.5735 11.2731C37.2691 11.034 36.8285 11.0868 36.5892 11.3912C36.3501 11.6957 36.403 12.1363 36.7074 12.3755L43.3176 17.5692L42.4513 18.6716L22.9332 3.33601C22.6789 3.13632 22.3212 3.13632 22.0669 3.33601L2.54877 18.6717L1.68252 17.5693L22.0668 1.55307C22.3218 1.35268 22.6782 1.35268 22.9331 1.55307L34.0299 10.2721C34.3341 10.5111 34.775 10.4583 35.0142 10.1539C35.2534 9.84956 35.2005 9.40888 34.8961 9.16964L23.7992 0.450746C23.0342 -0.150249 21.9659 -0.150249 21.2007 0.450746L0.265203 16.9C-0.0348543 17.1359 -0.0888189 17.5841 0.147079 17.8843L1.8794 20.0891C2.11855 20.3935 2.55923 20.4462 2.86368 20.2072L6.09734 17.6664V32.0122C6.09734 32.3993 6.4112 32.7131 6.79827 32.7131C7.18543 32.7131 7.49919 32.3992 7.49919 32.0122V16.5649L22.5 4.77855L37.5007 16.5649V38.7103C37.5007 38.7261 37.502 38.7416 37.503 38.7571C37.0327 39.3767 36.753 40.1484 36.753 40.9846C36.753 41.849 37.0525 42.6445 37.5522 43.2744H35.1127C35.6123 42.6445 35.9119 41.849 35.9119 40.9846C35.9119 38.9489 34.2557 37.2928 32.2201 37.2928C30.1845 37.2928 28.5284 38.9489 28.5284 40.9846C28.5284 41.849 28.8279 42.6445 29.3276 43.2744H26.9395V30.5167C26.9395 30.1296 26.6257 29.8158 26.2386 29.8158H18.7616C18.3744 29.8158 18.0606 30.1297 18.0606 30.5167V43.2743H15.6726C16.1722 42.6444 16.4717 41.8489 16.4717 40.9845C16.4717 38.9488 14.8156 37.2927 12.78 37.2927C10.7444 37.2927 9.08825 38.9488 9.08825 40.9845C9.08825 41.8489 9.38778 42.6444 9.88744 43.2743H7.44787C7.94752 42.6444 8.24705 41.8489 8.24705 40.9845C8.24705 40.145 7.96493 39.3704 7.49111 38.7497C7.49594 38.7164 7.49937 38.6826 7.49937 38.6479V35.7506C7.49937 35.3634 7.18551 35.0497 6.79844 35.0497C6.41129 35.0497 6.09752 35.3635 6.09752 35.7506V37.6315C5.62783 37.4147 5.10568 37.2927 4.5554 37.2927C2.51977 37.2927 0.863649 38.9488 0.863649 40.9845C0.863649 41.8489 1.16318 42.6444 1.66284 43.2743H0.816891C0.429734 43.2743 0.115966 43.5881 0.115966 43.9752C0.115966 44.3624 0.429822 44.6761 0.816891 44.6761H44.1833C44.5706 44.6761 44.8842 44.3623 44.8842 43.9752C44.8842 43.5882 44.5704 43.2744 44.1833 43.2744ZM4.55531 43.2744C3.29276 43.2744 2.2655 42.2471 2.2655 40.9846C2.2655 39.722 3.29276 38.6947 4.55531 38.6947C5.81785 38.6947 6.84511 39.722 6.84511 40.9846C6.84511 42.2471 5.81794 43.2744 4.55531 43.2744ZM12.78 43.2744C11.5175 43.2744 10.4902 42.2471 10.4902 40.9846C10.4902 39.722 11.5175 38.6947 12.78 38.6947C14.0425 38.6947 15.0698 39.722 15.0698 40.9846C15.0698 42.2471 14.0425 43.2744 12.78 43.2744ZM25.5375 43.2744H19.4625V31.2177H25.5375V43.2744ZM32.2201 43.2744C30.9575 43.2744 29.9303 42.2471 29.9303 40.9846C29.9303 39.722 30.9575 38.6947 32.2201 38.6947C33.4828 38.6947 34.5099 39.722 34.5099 40.9846C34.5099 42.2471 33.4828 43.2744 32.2201 43.2744ZM40.4448 43.2744C39.1822 43.2744 38.155 42.2471 38.155 40.9846C38.155 39.722 39.1822 38.6947 40.4448 38.6947C41.7074 38.6947 42.7346 39.722 42.7346 40.9846C42.7346 42.2471 41.7074 43.2744 40.4448 43.2744Z" fill="#2D5632"/>
</svg>
