<svg width="45" height="45" viewBox="0 0 45 45" fill="none" xmlns="http://www.w3.org/2000/svg">
<path d="M8.97194 5.26099C6.92576 5.26099 5.26111 6.92563 5.26111 8.97181V15.7359C5.26111 16.125 5.57646 16.4405 5.96573 16.4405H11.9782C12.3674 16.4405 12.6829 16.1251 12.6829 15.7359V8.97181C12.6828 6.92563 11.018 5.26099 8.97194 5.26099ZM8.97194 6.67014C9.99542 6.67014 10.8646 7.3418 11.1629 8.2672H6.781C7.0793 7.3418 7.94845 6.67014 8.97194 6.67014ZM8.26732 15.0313H6.67026V9.67643H8.26732V15.0313ZM11.2736 15.0313H9.67656V9.67643H11.2736V15.0313Z" fill="#2D5632"/>
<path d="M7.46873 20.2923H3.71097C3.32179 20.2923 3.00635 20.6077 3.00635 20.9969V24.0032C3.00635 24.3923 3.3217 24.7078 3.71097 24.7078H7.46882C7.858 24.7078 8.17343 24.3924 8.17343 24.0032V20.9969C8.17335 20.6077 7.858 20.2923 7.46873 20.2923ZM6.7642 23.2985H4.4155V21.7014H6.76411L6.7642 23.2985Z" fill="#2D5632"/>
<path d="M14.2329 20.2923H10.475C10.0858 20.2923 9.77039 20.6077 9.77039 20.9969V24.0032C9.77039 24.3923 10.0857 24.7078 10.475 24.7078H14.2329C14.622 24.7078 14.9375 24.3924 14.9375 24.0032V20.9969C14.9375 20.6077 14.622 20.2923 14.2329 20.2923ZM13.5282 23.2985H11.1796V21.7014H13.5282V23.2985Z" fill="#2D5632"/>
<path d="M7.46873 28.5594H3.71097C3.32179 28.5594 3.00635 28.8749 3.00635 29.2641V32.2704C3.00635 32.6595 3.3217 32.975 3.71097 32.975H7.46882C7.858 32.975 8.17343 32.6595 8.17343 32.2704V29.2641C8.17335 28.875 7.858 28.5594 7.46873 28.5594ZM6.7642 31.5657H4.4155V29.9687H6.76411L6.7642 31.5657Z" fill="#2D5632"/>
<path d="M14.2329 28.5594H10.475C10.0858 28.5594 9.77039 28.8749 9.77039 29.2641V32.2704C9.77039 32.6595 10.0857 32.975 10.475 32.975H14.2329C14.622 32.975 14.9375 32.6595 14.9375 32.2704V29.2641C14.9375 28.875 14.6219 28.5594 14.2329 28.5594ZM13.5282 31.5657H11.1796V29.9687H13.5282V31.5657Z" fill="#2D5632"/>
<path d="M43.5439 12.6826C43.9331 12.6826 44.2485 12.3672 44.2485 11.978V8.97172C44.2485 8.78486 44.1743 8.60565 44.0422 8.47355L35.7749 0.206389C35.4996 -0.0687964 35.0536 -0.0687964 34.7784 0.206389L26.7175 8.26719H17.5309L9.47012 0.206389C9.19485 -0.0687964 8.7488 -0.0687964 8.47362 0.206389L0.206455 8.47364C0.0742676 8.60574 8.78842e-05 8.78486 8.78842e-05 8.9718V25.5062C8.78842e-05 25.8953 0.315439 26.2108 0.704707 26.2108C1.09389 26.2108 1.40933 25.8954 1.40933 25.5062V9.2636L8.97196 1.70097L16.5346 9.2636V43.5908H13.4344V41.9258C15.1447 41.5956 16.4407 40.0881 16.4407 38.2828C16.4407 36.2367 14.776 34.572 12.7299 34.572C10.6838 34.572 9.01907 36.2367 9.01907 38.2828C9.01907 40.0881 10.315 41.5955 12.0254 41.9258V43.5908H5.91864V41.9258C7.6289 41.5956 8.92494 40.0881 8.92494 38.2828C8.92494 36.2367 7.2602 34.572 5.21411 34.572C3.16793 34.572 1.50328 36.2366 1.50328 38.2828C1.50328 40.0881 2.79923 41.5955 4.50958 41.9258V43.5908H1.40924V29.2641C1.40924 28.875 1.09389 28.5595 0.704619 28.5595C0.315439 28.5595 0 28.8749 0 29.2641V44.2954C0 44.6845 0.315351 45 0.704619 45H43.5438C43.933 45 44.2484 44.6846 44.2484 44.2954V15.7359C44.2484 15.3468 43.9331 15.0312 43.5438 15.0312C43.1546 15.0312 42.8392 15.3467 42.8392 15.7359V43.5908H39.739V41.9258C41.4493 41.5956 42.7453 40.0881 42.7453 38.2828C42.7453 36.2367 41.0806 34.572 39.0345 34.572C36.9884 34.572 35.3237 36.2367 35.3237 38.2828C35.3237 40.0881 36.6196 41.5955 38.33 41.9258V43.5908H32.2235V41.9258C33.9338 41.5956 35.2298 40.0881 35.2298 38.2828C35.2298 36.2367 33.5651 34.572 31.519 34.572C29.4729 34.572 27.8081 36.2367 27.8081 38.2828C27.8081 40.0881 29.1041 41.5955 30.8144 41.9258V43.5908H27.7143V9.2636L35.2769 1.70097L42.8395 9.2636V11.9781C42.8393 12.3672 43.1546 12.6826 43.5439 12.6826ZM2.91234 38.2829C2.91234 37.0136 3.94479 35.9812 5.21402 35.9812C6.48325 35.9812 7.5157 37.0136 7.5157 38.2829C7.5157 39.5521 6.48325 40.5846 5.21402 40.5846C3.94479 40.5846 2.91234 39.552 2.91234 38.2829ZM10.428 38.2829C10.428 37.0137 11.4605 35.9812 12.7297 35.9812C13.9989 35.9812 15.0314 37.0136 15.0314 38.2829C15.0314 39.5521 13.9989 40.5846 12.7297 40.5846C11.4605 40.5846 10.428 39.552 10.428 38.2829ZM26.3049 43.5908H17.9437V9.67642H26.3049V43.5908ZM36.7328 38.2829C36.7328 37.0137 37.7653 35.9812 39.0345 35.9812C40.3037 35.9812 41.3362 37.0136 41.3362 38.2829C41.3362 39.5521 40.3037 40.5846 39.0345 40.5846C37.7653 40.5846 36.7328 39.552 36.7328 38.2829ZM29.2171 38.2829C29.2171 37.0137 30.2496 35.9812 31.5188 35.9812C32.788 35.9812 33.8205 37.0136 33.8205 38.2829C33.8205 39.5521 32.788 40.5846 31.5188 40.5846C30.2496 40.5846 29.2171 39.552 29.2171 38.2829Z" fill="#2D5632"/>
<path d="M35.2767 5.26099C33.2307 5.26099 31.5659 6.92563 31.5659 8.97181V15.7359C31.5659 16.125 31.8813 16.4405 32.2705 16.4405H38.283C38.6722 16.4405 38.9877 16.1251 38.9877 15.7359V8.97181C38.9876 6.92572 37.3228 5.26099 35.2767 5.26099ZM35.2767 6.67014C36.3002 6.67014 37.1694 7.3418 37.4677 8.2672H33.0858C33.3841 7.3418 34.2533 6.67014 35.2767 6.67014ZM34.5721 15.0313H32.9751V9.67643H34.5721V15.0313ZM37.5784 15.0313H35.9814V9.67643H37.5784V15.0313Z" fill="#2D5632"/>
<path d="M33.7735 20.2923H30.0157C29.6265 20.2923 29.311 20.6077 29.311 20.9969V24.0032C29.311 24.3923 29.6264 24.7078 30.0157 24.7078H33.7735C34.1627 24.7078 34.4781 24.3924 34.4781 24.0032V20.9969C34.478 20.6077 34.1627 20.2923 33.7735 20.2923ZM33.0689 23.2985H30.7203V21.7014H33.0689V23.2985Z" fill="#2D5632"/>
<path d="M40.5375 20.2923H36.7797C36.3905 20.2923 36.0751 20.6077 36.0751 20.9969V24.0032C36.0751 24.3923 36.3904 24.7078 36.7797 24.7078H40.5375C40.9267 24.7078 41.2422 24.3924 41.2422 24.0032V20.9969C41.2422 20.6077 40.9267 20.2923 40.5375 20.2923ZM39.8329 23.2985H37.4843V21.7014H39.8329V23.2985Z" fill="#2D5632"/>
<path d="M33.7735 28.5594H30.0157C29.6265 28.5594 29.311 28.8749 29.311 29.2641V32.2704C29.311 32.6595 29.6264 32.975 30.0157 32.975H33.7735C34.1627 32.975 34.4781 32.6595 34.4781 32.2704V29.2641C34.478 28.875 34.1626 28.5594 33.7735 28.5594ZM33.0689 31.5657H30.7203V29.9687H33.0689V31.5657Z" fill="#2D5632"/>
<path d="M40.5375 28.5594H36.7797C36.3905 28.5594 36.0751 28.8749 36.0751 29.2641V32.2704C36.0751 32.6595 36.3904 32.975 36.7797 32.975H40.5375C40.9267 32.975 41.2422 32.6595 41.2422 32.2704V29.2641C41.2422 28.875 40.9267 28.5594 40.5375 28.5594ZM39.8329 31.5657H37.4843V29.9687H39.8329V31.5657Z" fill="#2D5632"/>
<path d="M24.0032 12.025H20.2454C19.8562 12.025 19.5408 12.3405 19.5408 12.7296V15.7359C19.5408 16.125 19.8561 16.4406 20.2454 16.4406H24.0032C24.3924 16.4406 24.7079 16.1251 24.7079 15.7359V12.7296C24.7078 12.3405 24.3923 12.025 24.0032 12.025ZM23.2986 15.0313H20.95V13.4343H23.2986V15.0313Z" fill="#2D5632"/>
<path d="M24.0032 20.2923H20.2454C19.8562 20.2923 19.5408 20.6077 19.5408 20.9969V24.0032C19.5408 24.3923 19.8561 24.7078 20.2454 24.7078H24.0032C24.3924 24.7078 24.7079 24.3924 24.7079 24.0032V20.9969C24.7078 20.6077 24.3923 20.2923 24.0032 20.2923ZM23.2986 23.2985H20.95V21.7014H23.2986V23.2985Z" fill="#2D5632"/>
<path d="M24.0032 28.5594H20.2454C19.8562 28.5594 19.5408 28.8749 19.5408 29.2641V32.2704C19.5408 32.6595 19.8561 32.975 20.2454 32.975H24.0032C24.3924 32.975 24.7079 32.6595 24.7079 32.2704V29.2641C24.7078 28.875 24.3923 28.5594 24.0032 28.5594ZM23.2986 31.5657H20.95V29.9687H23.2986V31.5657Z" fill="#2D5632"/>
<path d="M24.0032 36.8267H20.2454C19.8562 36.8267 19.5408 37.1422 19.5408 37.5313V40.5376C19.5408 40.9267 19.8561 41.2423 20.2454 41.2423H24.0032C24.3924 41.2423 24.7079 40.9268 24.7079 40.5376V37.5313C24.7078 37.1422 24.3923 36.8267 24.0032 36.8267ZM23.2986 39.833H20.95V38.236H23.2986V39.833Z" fill="#2D5632"/>
</svg>
